<?xml version="1.0" encoding="utf-8" ?>
<svg baseProfile="full" height="100" shape-rendering="geometricPrecision" version="1.1" viewBox="0 0 1200 1200"
     width="100" xmlns="http://www.w3.org/2000/svg" xmlns:ev="http://www.w3.org/2001/xml-events"
     xmlns:xlink="http://www.w3.org/1999/xlink">
  <defs/>
  <path d="M 403.00 617.40 L 403.00 195.37 L 414.94 211.00 L 423.03 216.00 L 422.73 224.00 L 426.99 232.00 L 430.11 231.00 L 425.52 219.00 L 419.45 162.00 L 402.55 75.00 L 402.42 22.00 L 410.00 17.84 L 421.00 24.19 L 435.00 25.81 L 448.45 42.00 L 444.49 603.00 L 443.00 610.15 L 441.00 603.82 L 431.00 603.19 L 421.00 595.87 L 411.00 596.58 L 409.19 609.00 L 403.00 617.40 Z M 848.00 131.19 L 847.00 57.76 L 859.19 74.00 L 861.50 97.00 L 854.20 122.00 L 848.00 131.19 Z M 593.00 651.23 L 578.00 651.64 L 576.50 649.00 L 577.51 71.00 L 587.00 66.50 L 619.00 67.55 L 623.49 71.00 L 619.47 648.00 L 593.00 651.23 Z M 490.00 701.14 L 490.55 104.00 L 534.00 78.89 L 531.49 638.00 L 529.00 639.71 L 524.95 634.00 L 518.00 631.88 L 510.08 640.00 L 512.37 650.00 L 507.58 653.00 L 507.40 660.00 L 501.58 667.00 L 501.19 678.00 L 490.00 701.14 Z M 758.00 881.01 L 751.51 879.00 L 752.55 185.00 L 764.76 155.00 L 798.00 109.70 L 795.45 575.00 L 791.00 588.30 L 779.81 597.00 L 785.81 609.00 L 778.72 608.00 L 778.00 614.23 L 773.00 616.16 L 767.33 614.00 L 765.55 617.00 L 777.57 640.00 L 765.96 637.00 L 773.19 648.00 L 771.55 656.00 L 775.45 677.00 L 768.88 685.00 L 772.00 700.53 L 765.78 708.00 L 766.18 715.00 L 760.55 719.00 L 767.45 734.00 L 763.24 739.00 L 770.20 748.00 L 779.45 775.00 L 777.50 792.00 L 780.45 831.00 L 773.19 861.00 L 758.00 881.01 Z M 850.00 395.42 L 846.00 395.91 L 845.50 393.00 L 846.57 166.00 L 869.00 153.81 L 890.00 149.58 L 890.22 218.00 L 865.87 250.00 L 866.43 257.00 L 859.42 262.00 L 858.88 272.00 L 863.00 276.83 L 867.19 274.00 L 867.00 268.71 L 873.00 273.09 L 879.00 268.55 L 890.27 269.00 L 889.47 361.00 L 880.23 366.00 L 882.38 374.00 L 869.00 377.19 L 858.94 390.00 L 851.19 390.00 L 850.00 395.42 Z M 228.00 216.12 L 227.99 166.00 L 253.00 159.60 L 261.00 165.82 L 266.00 163.70 L 266.00 207.94 L 228.00 216.12 Z M 1069.00 430.85 L 1062.00 419.69 L 1056.74 419.00 L 1052.00 411.99 L 1034.00 404.91 L 1026.00 394.82 L 1019.00 397.11 L 1015.55 394.00 L 1015.60 324.00 L 1032.00 329.16 L 1039.81 324.00 L 1035.00 306.65 L 1021.00 297.47 L 1015.55 290.00 L 1016.00 194.76 L 1033.19 213.00 L 1048.00 264.27 L 1056.00 270.19 L 1071.42 275.00 L 1070.01 313.00 L 1049.69 325.00 L 1039.41 341.00 L 1049.27 345.00 L 1052.00 350.47 L 1070.19 363.00 L 1069.00 430.85 Z M 88.00 334.08 L 75.55 317.00 L 77.00 303.73 L 89.00 299.63 L 88.00 334.08 Z M 228.00 427.41 L 226.42 349.00 L 236.00 342.81 L 265.00 338.60 L 264.42 402.00 L 249.00 405.54 L 228.00 427.41 Z M 1152.00 498.24 L 1137.01 471.00 L 1132.20 470.00 L 1133.93 464.00 L 1119.00 460.88 L 1114.67 464.00 L 1115.00 391.61 L 1129.73 408.00 L 1139.93 411.00 L 1139.99 416.00 L 1148.14 419.00 L 1145.80 422.00 L 1152.43 426.00 L 1152.00 498.24 Z M 887.00 660.57 L 880.00 637.54 L 872.00 643.45 L 865.18 641.00 L 868.83 621.00 L 858.77 607.00 L 845.55 573.00 L 847.00 434.36 L 870.00 461.49 L 888.43 477.00 L 887.00 660.57 Z M 48.00 577.22 L 45.51 575.00 L 45.51 518.00 L 50.01 513.00 L 49.18 508.00 L 59.00 503.47 L 75.00 484.94 L 88.00 477.70 L 88.22 555.00 L 82.00 560.22 L 78.00 559.15 L 69.00 575.85 L 65.00 571.19 L 48.00 577.22 Z M 443.00 770.40 L 435.70 769.00 L 422.82 756.00 L 416.91 709.00 L 421.23 703.00 L 427.23 679.00 L 425.88 670.00 L 433.22 659.00 L 432.81 653.00 L 441.40 643.00 L 439.57 638.00 L 442.00 635.67 L 443.00 770.40 Z M 1064.00 1132.12 L 1041.00 1127.19 L 1029.69 1119.00 L 1013.17 1092.00 L 1015.00 862.76 L 1022.23 873.00 L 1047.22 932.00 L 1054.45 960.00 L 1047.55 985.00 L 1065.45 1014.00 L 1064.00 1132.12 Z M 361.00 1199.30 L 331.00 1199.48 L 324.70 1196.00 L 361.00 1195.55 L 361.00 1199.30 Z"
        fill="#EEFF66" fill-rule="evenodd" stroke="none"/>
  <path d="M 799.00 577.37 L 795.50 573.00 L 798.55 110.00 L 804.19 103.00 L 806.78 88.00 L 812.00 78.66 L 831.00 57.94 L 841.00 53.60 L 846.45 57.00 L 846.45 133.00 L 834.78 152.00 L 829.80 175.00 L 846.27 167.00 L 845.49 401.00 L 837.00 403.69 L 830.00 416.91 L 822.00 412.99 L 817.89 424.00 L 828.54 425.00 L 831.00 428.51 L 835.00 427.19 L 845.43 435.00 L 845.41 563.00 L 837.23 546.00 L 832.60 544.00 L 831.12 536.00 L 826.00 540.91 L 819.00 536.88 L 813.00 541.30 L 813.45 528.00 L 810.00 523.70 L 807.00 553.67 L 803.00 543.21 L 801.51 546.00 L 801.78 554.00 L 807.37 565.00 L 799.00 577.37 Z M 750.00 882.18 L 730.94 876.00 L 715.55 847.00 L 708.55 798.00 L 706.50 738.00 L 715.81 720.00 L 712.00 717.60 L 708.00 719.30 L 700.00 709.51 L 700.77 685.00 L 688.56 689.00 L 696.45 676.00 L 691.89 672.00 L 698.17 660.00 L 697.81 652.00 L 681.24 659.00 L 686.00 635.56 L 661.00 644.45 L 634.00 646.55 L 625.00 651.40 L 619.58 649.00 L 622.50 98.00 L 625.00 68.63 L 650.00 72.78 L 688.00 90.76 L 707.31 105.00 L 728.24 133.00 L 739.22 157.00 L 740.00 200.85 L 752.41 189.00 L 750.00 882.18 Z M 1015.00 289.30 L 1009.77 284.00 L 1001.77 257.00 L 1001.19 240.00 L 990.00 226.29 L 955.00 213.78 L 914.00 209.45 L 901.00 205.19 L 891.00 216.24 L 892.73 149.00 L 906.00 147.55 L 919.00 152.45 L 932.00 152.78 L 952.00 168.78 L 957.00 165.55 L 965.00 166.55 L 997.00 176.80 L 1014.47 192.00 L 1015.00 289.30 Z M 1015.00 394.24 L 998.00 378.82 L 984.00 377.46 L 933.00 328.84 L 926.00 333.45 L 923.19 333.00 L 924.00 328.65 L 920.00 329.76 L 916.24 333.00 L 919.76 339.00 L 913.00 338.99 L 909.00 345.18 L 898.07 346.00 L 897.94 352.00 L 890.00 353.30 L 891.00 267.99 L 919.00 258.87 L 934.00 262.78 L 993.00 291.99 L 993.99 297.00 L 1000.27 300.00 L 1014.47 316.00 L 1011.58 320.00 L 1015.50 325.00 L 1015.00 394.24 Z M 1013.00 1089.57 L 1004.78 1074.00 L 993.55 1025.00 L 993.22 990.00 L 976.81 962.00 L 951.77 876.00 L 944.55 836.00 L 947.50 822.00 L 945.19 806.00 L 940.00 799.81 L 930.98 797.00 L 922.77 785.00 L 918.19 761.00 L 910.81 754.00 L 907.45 721.00 L 900.57 714.00 L 900.40 703.00 L 896.60 701.00 L 896.22 691.00 L 892.60 685.00 L 894.22 676.00 L 887.55 662.00 L 889.00 485.29 L 903.20 511.00 L 917.77 553.00 L 927.19 570.00 L 925.81 586.00 L 935.22 597.00 L 947.80 636.00 L 959.22 653.00 L 960.78 667.00 L 971.22 686.00 L 970.50 694.00 L 981.22 719.00 L 984.81 743.00 L 990.40 750.00 L 986.60 756.00 L 993.45 771.00 L 992.55 782.00 L 997.16 794.00 L 995.55 804.00 L 1000.78 833.00 L 1014.45 861.00 L 1013.00 1089.57 Z"
        fill="#006699" fill-rule="evenodd" stroke="none"/>
  <path d="M 391.00 339.22 L 388.55 337.00 L 391.58 325.00 L 386.94 316.00 L 378.88 314.00 L 380.13 309.00 L 376.19 298.00 L 371.00 292.45 L 370.01 286.00 L 360.88 280.00 L 362.27 272.00 L 321.46 201.00 L 308.00 202.80 L 302.00 207.83 L 266.60 207.00 L 267.00 161.99 L 283.00 149.78 L 330.42 141.00 L 330.55 115.00 L 342.23 76.00 L 357.00 0.00 L 402.50 0.00 L 402.01 17.00 L 394.00 21.53 L 389.51 29.00 L 391.00 31.29 L 397.00 24.76 L 402.40 24.00 L 402.27 70.00 L 389.00 54.81 L 383.00 53.81 L 377.76 59.00 L 370.55 80.00 L 369.45 113.00 L 362.12 145.00 L 365.00 153.27 L 386.06 170.00 L 402.45 194.00 L 401.45 336.00 L 391.00 339.22 Z M 125.00 345.19 L 104.00 343.19 L 89.99 335.00 L 91.00 299.06 L 124.23 288.00 L 137.22 263.00 L 153.80 210.00 L 164.69 196.00 L 197.00 172.73 L 227.00 166.19 L 226.01 216.00 L 189.00 232.66 L 182.78 242.00 L 182.23 261.00 L 169.24 300.00 L 153.30 316.00 L 132.53 326.00 L 128.55 333.00 L 129.19 341.00 L 125.00 345.19 Z M 363.00 1195.19 L 323.00 1195.19 L 304.81 1167.00 L 299.55 1143.00 L 297.50 1085.00 L 306.40 1052.00 L 293.81 1032.00 L 291.50 1010.00 L 299.55 936.00 L 314.45 890.00 L 310.45 848.00 L 304.51 825.00 L 308.45 806.00 L 304.55 795.00 L 307.50 779.00 L 304.60 767.00 L 307.45 755.00 L 305.60 747.00 L 310.45 731.00 L 315.50 674.00 L 315.00 667.20 L 310.68 668.00 L 310.55 660.00 L 323.66 631.00 L 318.55 621.00 L 326.13 607.00 L 325.78 591.00 L 336.45 562.00 L 334.87 552.00 L 341.09 543.00 L 335.92 539.00 L 348.59 512.00 L 345.24 509.00 L 361.22 482.00 L 363.81 469.00 L 379.13 444.00 L 375.17 439.00 L 376.77 433.00 L 369.00 434.81 L 367.00 427.66 L 362.00 430.39 L 360.00 422.82 L 354.00 421.82 L 349.00 428.47 L 346.94 420.00 L 340.00 423.47 L 337.00 418.70 L 329.59 425.00 L 327.00 415.70 L 318.00 418.92 L 316.00 415.56 L 310.82 416.00 L 308.00 410.70 L 298.61 417.00 L 297.00 407.88 L 292.00 411.76 L 288.00 407.42 L 282.00 408.40 L 265.00 402.94 L 265.58 339.00 L 276.00 332.63 L 283.00 334.83 L 287.00 332.55 L 326.00 332.51 L 339.00 336.49 L 343.00 331.70 L 348.00 337.18 L 357.00 335.61 L 362.00 340.71 L 368.00 336.15 L 375.00 344.09 L 383.00 335.76 L 384.69 347.00 L 401.39 353.00 L 401.45 619.00 L 389.84 651.00 L 397.37 671.00 L 392.82 675.00 L 394.00 682.66 L 384.00 673.09 L 381.60 675.00 L 383.45 686.00 L 379.55 712.00 L 386.83 727.00 L 380.60 741.00 L 385.12 752.00 L 379.60 758.00 L 379.60 777.00 L 382.87 786.00 L 378.55 803.00 L 382.45 820.00 L 375.19 841.00 L 366.82 848.00 L 365.51 866.00 L 375.22 884.00 L 377.45 911.00 L 377.45 1004.00 L 369.50 1042.00 L 378.45 1069.00 L 384.45 1137.00 L 374.19 1181.00 L 363.00 1195.19 Z M 90.00 551.19 L 88.82 476.00 L 135.00 438.06 L 142.00 427.54 L 154.00 426.94 L 156.81 415.00 L 154.52 412.00 L 165.40 401.00 L 163.29 397.00 L 172.00 393.01 L 178.00 381.73 L 195.40 368.00 L 195.80 363.00 L 204.00 362.22 L 226.00 350.19 L 226.50 428.00 L 224.24 433.00 L 214.00 446.47 L 190.00 463.69 L 182.18 476.00 L 178.00 472.71 L 168.00 482.91 L 161.00 484.99 L 159.91 490.00 L 154.82 489.00 L 144.00 501.92 L 134.53 507.00 L 130.00 517.74 L 127.00 516.23 L 120.69 520.00 L 115.00 528.47 L 104.99 534.00 L 102.46 542.00 L 94.00 544.09 L 90.00 551.19 Z M 0.00 630.19 L 0.00 563.00 L 8.00 550.94 L 19.00 546.31 L 19.92 538.00 L 26.06 530.00 L 34.95 527.00 L 45.00 517.72 L 45.42 577.00 L 35.00 582.06 L 34.00 589.94 L 26.30 593.00 L 20.00 610.34 L 0.00 630.19 Z"
        fill="#990000" fill-rule="evenodd" stroke="none"/>
  <path d="M 452.00 771.19 L 445.00 771.42 L 443.50 768.00 L 443.50 636.00 L 449.40 613.00 L 444.50 607.00 L 449.00 44.69 L 455.76 60.00 L 464.19 68.00 L 479.00 109.44 L 489.00 104.67 L 490.50 108.00 L 488.45 706.00 L 475.24 752.00 L 464.00 764.47 L 452.00 771.19 Z M 575.00 652.42 L 547.00 647.23 L 531.82 640.00 L 531.50 582.00 L 535.57 80.00 L 576.00 69.36 L 577.50 463.00 L 575.00 652.42 Z M 1073.00 311.26 L 1070.53 310.00 L 1070.50 290.00 L 1071.58 276.00 L 1074.00 274.55 L 1081.00 279.70 L 1084.16 290.00 L 1073.00 311.26 Z M 1114.00 458.75 L 1103.00 453.01 L 1102.00 448.06 L 1090.00 438.60 L 1084.00 439.46 L 1070.70 426.00 L 1071.00 363.70 L 1114.19 391.00 L 1114.00 458.75 Z M 1195.00 548.03 L 1180.53 536.00 L 1152.81 500.00 L 1153.00 430.27 L 1166.06 438.00 L 1196.19 475.00 L 1195.00 548.03 Z M 1067.00 1130.08 L 1066.00 1015.77 L 1082.23 1063.00 L 1085.50 1093.00 L 1078.24 1118.00 L 1067.00 1130.08 Z"
        fill="#30956a" fill-rule="evenodd" stroke="none"/>
</svg>