<?xml version="1.0" encoding="utf-8" ?>
<svg baseProfile="full" height="77" shape-rendering="geometricPrecision" version="1.1" viewBox="0 0 219 219"
     width="77" xmlns="http://www.w3.org/2000/svg"
>
  <defs/>
  <path d="M 8.00 218.29 L 0.00 218.00 L 0.00 0.00 L 8.50 0.00 L 8.00 218.29 Z M 41.00 218.29 L 15.50 218.00 L 17.00 0.00 L 41.50 0.00 L 41.00 218.29 Z M 73.00 218.29 L 47.50 218.00 L 49.00 0.00 L 73.50 0.00 L 73.00 218.29 Z"
        fill="#990000" fill-rule="evenodd" stroke="none"/>
  <path d="M 137.00 218.29 L 112.50 218.00 L 114.00 0.00 L 137.50 0.00 L 137.00 218.29 Z M 154.00 218.29 L 144.50 218.00 L 146.00 0.00 L 154.50 0.00 L 154.00 218.29 Z M 185.00 218.29 L 161.50 218.00 L 163.00 0.00 L 185.50 0.00 L 185.00 218.29 Z"
        fill="#006699" fill-rule="evenodd" stroke="none"/>
  <path d="M 89.00 218.29 L 80.50 218.00 L 82.00 0.00 L 89.50 0.00 L 89.00 218.29 Z M 105.00 218.29 L 96.50 218.00 L 98.00 0.00 L 105.50 0.00 L 105.00 218.29 Z M 203.00 218.29 L 194.50 218.00 L 196.00 0.00 L 203.50 0.00 L 203.00 218.29 Z M 218.00 218.50 L 210.50 218.00 L 210.50 0.00 L 213.00 0.00 L 218.50 0.00 L 218.00 218.50 Z"
        fill="#2f956a" fill-rule="evenodd" stroke="none"/>
  <g transform="scale(0.2138671875)" fill="#900" fill-rule="evenodd">
    <path d="M 980.00 983.42 L 44.00 982.94 L 44.06 26.00 L 981.00 26.06 L 980.00 983.42 Z M 962.94 963.00 L 963.45 903.00 L 958.63 897.00 L 963.45 892.00 L 963.45 864.00 L 962.33 852.00 L 957.89 850.00 L 963.50 845.00 L 963.08 807.00 L 958.84 804.00 L 963.45 798.00 L 963.47 715.00 L 958.63 712.00 L 963.42 707.00 L 963.50 694.00 L 957.92 689.00 L 963.50 684.00 L 963.45 670.00 L 958.58 666.00 L 963.40 663.00 L 963.36 633.00 L 957.63 632.00 L 963.50 626.00 L 963.33 599.00 L 958.63 598.00 L 963.42 594.00 L 963.45 577.00 L 957.63 574.00 L 960.00 571.63 L 963.00 573.84 L 963.50 569.00 L 963.47 462.00 L 958.63 459.00 L 963.40 456.00 L 963.49 417.00 L 958.51 413.00 L 963.49 409.00 L 963.40 379.00 L 959.70 377.00 L 963.45 370.00 L 958.56 367.00 L 963.45 361.00 L 963.49 325.00 L 957.60 321.00 L 963.50 315.00 L 963.45 304.00 L 959.63 298.00 L 963.42 295.00 L 963.42 280.00 L 957.63 277.00 L 963.50 271.00 L 963.42 259.00 L 958.56 255.00 L 960.00 251.93 L 963.32 254.00 L 963.43 210.00 L 958.38 206.00 L 963.45 203.00 L 963.39 118.00 L 956.89 115.00 L 963.05 113.00 L 963.42 95.00 L 960.76 93.00 L 963.42 90.00 L 963.50 77.00 L 959.01 45.00 L 863.00 44.53 L 859.00 48.11 L 857.78 45.00 L 851.00 44.53 L 846.00 49.12 L 842.00 44.53 L 761.00 44.53 L 757.00 47.34 L 754.00 44.53 L 740.00 44.51 L 734.00 48.34 L 732.00 44.55 L 680.00 44.51 L 677.23 45.00 L 678.00 50.11 L 673.00 44.66 L 649.00 44.51 L 644.00 50.44 L 639.00 44.50 L 455.00 44.53 L 451.00 49.87 L 449.00 44.67 L 421.00 44.53 L 417.00 50.12 L 412.00 44.50 L 296.00 44.51 L 292.00 47.11 L 286.00 44.50 L 281.00 48.16 L 276.00 44.51 L 261.00 44.53 L 257.00 47.41 L 254.00 44.64 L 238.00 44.53 L 234.00 48.11 L 230.00 44.51 L 213.00 46.71 L 205.00 44.64 L 201.00 48.16 L 196.00 44.51 L 124.00 44.52 L 119.00 48.12 L 116.00 44.64 L 101.00 44.53 L 97.00 48.34 L 95.00 44.55 L 63.06 45.00 L 62.67 55.00 L 66.36 57.00 L 62.51 62.00 L 62.51 171.00 L 67.39 176.00 L 62.58 179.00 L 62.53 241.00 L 68.12 245.00 L 62.53 249.00 L 62.53 286.00 L 66.44 291.00 L 62.66 294.00 L 65.16 303.00 L 62.50 309.00 L 68.08 314.00 L 62.53 317.00 L 62.70 334.00 L 66.08 337.00 L 62.58 340.00 L 62.50 376.00 L 69.11 381.00 L 62.50 387.00 L 62.67 401.00 L 68.12 404.00 L 62.55 407.00 L 62.53 446.00 L 68.62 450.00 L 62.55 454.00 L 62.67 471.00 L 68.37 474.00 L 62.72 476.00 L 62.53 494.00 L 69.08 498.00 L 63.00 500.09 L 62.50 503.00 L 62.58 538.00 L 68.37 542.00 L 62.58 547.00 L 62.57 574.00 L 67.11 578.00 L 62.67 580.00 L 62.53 596.00 L 68.59 602.00 L 62.53 606.00 L 62.67 619.00 L 68.40 622.00 L 62.53 627.00 L 63.00 631.91 L 68.12 634.00 L 62.67 637.00 L 62.67 654.00 L 68.40 658.00 L 62.67 661.00 L 62.53 677.00 L 68.51 680.00 L 66.00 683.09 L 63.00 681.27 L 62.53 684.00 L 62.67 701.00 L 68.40 705.00 L 62.53 709.00 L 62.53 744.00 L 67.76 749.00 L 62.53 752.00 L 62.73 769.00 L 67.40 773.00 L 62.67 776.00 L 62.50 792.00 L 63.00 795.73 L 67.00 793.82 L 68.81 797.00 L 62.53 800.00 L 62.72 816.00 L 68.16 818.00 L 62.51 822.00 L 62.67 839.00 L 68.12 841.00 L 62.53 846.00 L 62.70 862.00 L 67.11 865.00 L 62.58 869.00 L 62.55 907.00 L 68.12 911.00 L 62.53 915.00 L 62.51 955.00 L 63.00 957.78 L 69.11 958.00 L 63.16 963.00 L 86.25 963.00 L 84.81 958.00 L 88.00 955.63 L 89.83 959.00 L 87.08 963.00 L 90.00 963.49 L 108.00 963.28 L 112.00 955.92 L 113.82 958.00 L 111.09 963.00 L 114.00 963.50 L 962.94 963.00 Z M 791.00 939.22 L 781.94 935.00 L 771.69 913.00 L 765.88 911.00 L 767.18 904.00 L 730.23 795.00 L 721.00 790.44 L 717.00 780.79 L 710.19 779.00 L 715.22 775.00 L 685.22 698.00 L 674.87 679.00 L 676.22 669.00 L 668.19 650.00 L 662.78 646.00 L 661.41 628.00 L 652.19 621.00 L 650.46 614.00 L 606.00 566.53 L 602.00 564.66 L 600.00 568.18 L 595.06 567.00 L 596.00 563.08 L 599.86 563.00 L 599.06 560.00 L 591.00 552.96 L 586.00 555.15 L 584.00 547.53 L 567.00 536.61 L 585.24 560.00 L 597.20 581.00 L 606.78 607.00 L 611.82 610.00 L 608.63 613.00 L 614.12 645.00 L 611.45 676.00 L 601.77 711.00 L 568.00 750.47 L 533.00 776.40 L 510.00 784.22 L 485.00 785.43 L 474.00 783.42 L 467.00 778.51 L 463.00 784.37 L 460.77 778.00 L 454.00 773.81 L 444.00 769.60 L 439.89 771.00 L 439.06 765.00 L 429.00 758.94 L 411.00 736.52 L 404.00 737.18 L 407.40 732.00 L 392.56 708.00 L 387.00 692.56 L 380.41 691.00 L 385.18 687.00 L 380.55 674.00 L 377.50 644.00 L 381.78 606.00 L 389.23 592.00 L 391.87 579.00 L 416.20 545.00 L 409.00 546.77 L 387.00 561.53 L 363.93 584.00 L 363.91 589.00 L 358.00 589.15 L 343.81 601.00 L 328.00 637.95 L 319.99 641.00 L 317.01 657.00 L 297.78 695.00 L 285.19 738.00 L 279.00 742.55 L 271.00 760.27 L 260.77 766.00 L 241.78 804.00 L 233.41 825.00 L 238.18 830.00 L 235.00 831.42 L 232.00 828.68 L 227.76 835.00 L 213.18 866.00 L 207.81 870.00 L 190.00 903.34 L 183.00 909.19 L 176.00 907.94 L 175.81 897.00 L 185.19 881.00 L 184.87 876.00 L 190.23 872.00 L 202.19 849.00 L 220.22 808.00 L 227.42 785.00 L 223.00 780.09 L 229.00 782.06 L 236.22 764.00 L 238.63 752.00 L 233.55 747.00 L 246.22 718.00 L 245.87 713.00 L 252.00 707.49 L 252.82 701.00 L 258.61 694.00 L 256.86 689.00 L 265.20 681.00 L 280.23 651.00 L 279.56 643.00 L 283.19 639.00 L 287.78 620.00 L 316.00 565.06 L 321.00 564.47 L 347.73 540.00 L 359.31 534.00 L 361.00 529.61 L 369.00 529.20 L 380.31 523.00 L 382.14 518.00 L 385.00 521.07 L 425.33 503.00 L 390.00 493.55 L 376.00 493.80 L 372.00 499.37 L 371.00 491.72 L 314.00 485.13 L 308.00 481.55 L 303.00 487.17 L 301.00 479.93 L 284.00 490.54 L 282.00 498.18 L 277.00 493.63 L 269.00 498.93 L 254.00 501.77 L 247.00 508.37 L 241.00 507.78 L 228.66 516.00 L 227.00 522.17 L 217.00 523.81 L 205.70 531.00 L 193.94 543.00 L 182.00 543.76 L 159.00 561.51 L 157.27 569.00 L 143.04 574.00 L 147.17 576.00 L 145.44 579.00 L 140.00 575.84 L 126.00 583.99 L 123.00 590.15 L 119.00 587.87 L 109.00 590.83 L 105.55 586.00 L 107.76 578.00 L 169.49 526.00 L 174.00 511.94 L 228.00 471.17 L 266.00 453.15 L 268.00 447.58 L 277.00 449.45 L 291.00 445.84 L 300.00 447.45 L 316.00 442.55 L 337.00 443.55 L 418.00 464.45 L 422.00 464.72 L 423.40 460.00 L 422.00 451.99 L 399.00 437.81 L 392.82 439.00 L 391.92 433.00 L 380.73 427.00 L 350.01 394.00 L 345.10 393.00 L 346.72 388.00 L 327.19 351.00 L 300.00 325.31 L 283.01 296.00 L 276.53 292.00 L 263.47 273.00 L 235.60 245.00 L 213.00 214.69 L 194.00 200.46 L 133.31 136.00 L 124.00 127.96 L 120.62 129.00 L 118.73 116.00 L 129.00 115.77 L 160.00 137.24 L 166.00 136.88 L 168.15 143.00 L 188.00 157.24 L 228.00 184.19 L 236.91 184.00 L 239.00 191.47 L 248.00 194.54 L 249.00 200.26 L 261.11 209.00 L 258.19 213.00 L 261.53 219.00 L 304.50 267.00 L 321.31 278.00 L 337.00 294.66 L 351.82 325.00 L 374.00 346.06 L 381.76 365.00 L 400.53 391.00 L 423.00 413.47 L 431.00 417.34 L 416.00 400.30 L 415.13 394.00 L 403.60 381.00 L 391.80 357.00 L 375.78 302.00 L 375.19 287.00 L 369.76 281.00 L 363.71 265.00 L 358.61 262.00 L 360.18 258.00 L 354.55 238.00 L 356.16 228.00 L 334.78 165.00 L 327.55 130.00 L 329.45 117.00 L 323.17 71.00 L 328.53 58.00 L 336.00 55.55 L 340.24 59.00 L 355.00 116.00 L 361.37 116.00 L 367.79 138.00 L 374.16 141.00 L 371.23 145.00 L 383.77 203.00 L 386.00 210.30 L 397.41 222.00 L 401.23 233.00 L 404.82 252.00 L 408.31 255.00 L 405.58 258.00 L 407.55 275.00 L 417.22 302.00 L 421.77 336.00 L 429.24 348.00 L 426.78 353.00 L 442.00 381.34 L 446.00 383.80 L 438.55 354.00 L 436.50 325.00 L 440.21 304.00 L 437.59 301.00 L 453.94 276.00 L 465.00 267.12 L 477.31 272.00 L 480.16 281.00 L 477.43 298.00 L 463.55 329.00 L 464.00 332.73 L 469.46 335.00 L 461.64 335.00 L 461.00 363.23 L 472.00 333.72 L 484.00 325.81 L 497.00 323.66 L 508.00 338.83 L 520.00 325.24 L 534.00 329.76 L 554.00 347.29 L 559.00 364.67 L 557.45 328.00 L 547.55 289.00 L 547.55 276.00 L 552.00 266.35 L 554.00 269.40 L 565.00 270.53 L 579.11 291.00 L 577.55 298.00 L 583.50 332.00 L 581.45 358.00 L 574.88 382.00 L 577.00 383.44 L 587.24 374.00 L 585.92 368.00 L 592.27 364.00 L 597.45 344.00 L 601.45 326.00 L 602.55 296.00 L 610.45 276.00 L 609.60 259.00 L 612.37 248.00 L 608.63 243.00 L 614.46 240.00 L 617.76 229.00 L 634.02 211.00 L 667.09 132.00 L 665.83 128.00 L 671.43 127.00 L 676.12 120.00 L 675.00 115.74 L 681.44 114.00 L 687.00 101.05 L 692.00 99.31 L 715.00 73.34 L 723.00 62.00 L 721.00 56.08 L 726.00 59.72 L 734.00 54.55 L 743.29 56.00 L 744.12 71.00 L 732.67 89.00 L 737.00 91.06 L 737.00 94.94 L 729.00 95.73 L 719.76 112.00 L 707.78 136.00 L 708.00 138.72 L 712.00 137.19 L 713.19 140.00 L 710.00 143.12 L 706.00 142.19 L 703.02 151.00 L 697.76 155.00 L 663.78 227.00 L 666.11 233.00 L 657.55 262.00 L 658.93 267.00 L 653.00 270.69 L 645.34 284.00 L 647.39 290.00 L 644.32 292.00 L 644.83 300.00 L 641.55 305.00 L 639.45 334.00 L 633.22 357.00 L 614.24 395.00 L 601.47 412.00 L 583.00 427.82 L 585.00 430.40 L 604.00 418.47 L 625.00 398.31 L 649.24 364.00 L 652.00 355.00 L 658.00 353.47 L 666.06 344.00 L 674.46 342.00 L 678.76 331.00 L 697.00 308.53 L 741.34 279.00 L 766.73 253.00 L 791.69 233.00 L 807.00 228.24 L 835.00 209.82 L 851.00 205.20 L 857.75 201.00 L 856.00 195.60 L 860.00 196.82 L 860.00 200.47 L 885.00 189.24 L 890.26 186.00 L 890.08 182.00 L 902.46 178.00 L 900.00 170.19 L 907.00 175.12 L 918.00 170.55 L 929.00 172.69 L 928.06 184.00 L 893.69 206.00 L 893.00 211.07 L 889.00 208.88 L 883.00 212.99 L 883.31 221.00 L 874.00 220.76 L 848.00 238.62 L 848.00 245.01 L 843.00 241.63 L 835.66 246.00 L 790.27 290.00 L 780.00 295.93 L 777.00 301.72 L 773.00 301.54 L 740.00 327.53 L 722.73 350.00 L 725.71 358.00 L 720.00 358.40 L 718.00 353.90 L 692.73 371.00 L 691.01 381.00 L 664.58 413.00 L 633.34 441.00 L 593.92 467.00 L 606.00 469.50 L 689.00 463.50 L 705.00 469.43 L 722.00 468.77 L 733.00 479.20 L 746.00 483.53 L 775.00 512.24 L 788.00 518.36 L 790.70 514.00 L 794.27 514.00 L 795.00 518.82 L 790.10 521.00 L 799.00 527.43 L 803.00 526.15 L 802.15 531.00 L 810.00 538.93 L 815.43 538.00 L 828.00 560.34 L 835.00 561.06 L 832.70 566.00 L 853.00 588.49 L 875.00 609.34 L 882.00 605.10 L 880.80 615.00 L 896.00 629.06 L 900.00 631.62 L 903.00 628.58 L 906.08 630.00 L 902.42 633.00 L 909.01 647.00 L 893.00 646.24 L 846.00 605.47 L 819.27 578.00 L 807.00 577.45 L 797.00 573.20 L 781.00 556.76 L 740.00 530.73 L 732.08 533.00 L 730.00 524.53 L 701.00 506.81 L 645.00 511.40 L 621.00 508.85 L 606.00 503.60 L 600.00 511.08 L 596.00 504.73 L 587.99 505.00 L 590.00 510.47 L 603.00 516.80 L 606.00 522.47 L 620.00 532.03 L 623.00 525.33 L 626.00 535.06 L 664.00 565.30 L 668.19 563.00 L 666.69 569.00 L 678.24 581.00 L 705.22 627.00 L 712.67 653.00 L 709.81 659.00 L 729.73 704.00 L 737.16 713.00 L 737.81 724.00 L 744.23 735.00 L 752.81 766.00 L 757.07 769.00 L 752.33 774.00 L 755.12 780.00 L 753.55 786.00 L 761.23 807.00 L 765.82 836.00 L 771.00 838.59 L 767.78 846.00 L 774.78 870.00 L 781.19 873.00 L 776.87 879.00 L 782.22 884.00 L 779.55 891.00 L 787.57 915.00 L 794.47 920.00 L 797.45 927.00 L 797.19 935.00 L 791.00 939.22 Z M 368.37 219.00 L 368.23 206.00 L 348.00 144.87 L 351.78 167.00 L 368.37 219.00 Z M 649.27 217.00 L 674.00 157.27 L 647.77 210.00 L 645.88 216.00 L 649.27 217.00 Z M 290.07 275.00 L 253.47 231.00 L 244.46 224.00 L 268.54 255.00 L 290.07 275.00 Z M 630.11 275.00 L 643.00 230.60 L 636.00 230.18 L 633.78 233.00 L 630.11 275.00 Z M 390.35 274.00 L 383.00 238.07 L 374.00 239.23 L 381.77 261.00 L 390.35 274.00 Z M 736.05 307.00 L 800.00 253.75 L 774.00 272.53 L 736.05 307.00 Z M 338.35 335.00 L 314.80 302.00 L 311.00 290.70 L 305.00 287.77 L 302.00 294.26 L 338.35 335.00 Z M 397.01 303.00 L 399.00 293.73 L 390.00 293.19 L 391.00 301.34 L 397.01 303.00 Z M 622.27 307.00 L 626.16 301.00 L 623.00 293.55 L 616.55 298.00 L 616.82 306.00 L 622.27 307.00 Z M 685.67 354.00 L 722.47 320.00 L 720.00 312.06 L 684.00 349.06 L 685.67 354.00 Z M 353.29 357.00 L 355.19 350.00 L 348.00 344.78 L 342.33 352.00 L 353.29 357.00 Z M 496.27 364.00 L 498.22 358.00 L 492.00 352.81 L 488.78 361.00 L 491.00 364.18 L 496.27 364.00 Z M 672.29 376.00 L 677.40 366.00 L 670.00 359.55 L 666.81 362.00 L 664.87 373.00 L 672.29 376.00 Z M 456.29 511.00 L 459.19 505.00 L 449.77 489.00 L 447.55 478.00 L 453.45 462.00 L 448.81 455.00 L 448.50 443.00 L 460.80 402.00 L 477.00 384.77 L 492.00 384.55 L 497.00 388.66 L 503.46 405.00 L 500.50 417.00 L 504.40 426.00 L 493.55 451.00 L 497.00 457.18 L 504.00 457.19 L 509.45 451.00 L 511.40 423.00 L 505.33 388.00 L 510.00 383.78 L 527.28 380.00 L 524.43 378.00 L 485.00 377.78 L 471.71 383.00 L 459.81 395.00 L 447.78 424.00 L 441.59 458.00 L 443.55 484.00 L 449.78 507.00 L 452.00 511.01 L 456.29 511.00 Z M 545.27 517.00 L 553.24 512.00 L 569.22 480.00 L 573.45 469.00 L 573.40 454.00 L 567.22 429.00 L 551.19 395.00 L 532.00 381.91 L 545.00 391.46 L 553.28 404.00 L 556.77 418.00 L 562.43 426.00 L 563.55 441.00 L 567.43 449.00 L 567.22 461.00 L 563.01 470.00 L 558.63 472.00 L 561.22 487.00 L 554.00 501.34 L 545.29 509.00 L 545.27 517.00 Z M 246.45 486.00 L 274.00 469.58 L 292.10 465.00 L 246.66 477.00 L 241.55 482.00 L 246.45 486.00 Z M 686.94 492.00 L 690.83 483.00 L 685.00 477.55 L 678.60 484.00 L 682.00 491.06 L 686.94 492.00 Z M 752.94 517.00 L 753.00 508.73 L 747.06 507.00 L 738.30 498.00 L 717.00 486.80 L 710.77 488.00 L 713.00 493.24 L 732.95 502.00 L 748.73 517.00 L 752.94 517.00 Z M 187.62 526.00 L 192.00 519.69 L 225.37 498.00 L 199.66 509.00 L 182.93 525.00 L 187.62 526.00 Z M 804.00 554.00 L 783.00 532.53 L 770.00 526.10 L 774.00 532.47 L 804.00 554.00 Z M 463.45 564.00 L 480.00 548.34 L 486.00 555.22 L 496.00 552.24 L 500.70 558.00 L 505.00 558.45 L 518.00 544.99 L 526.00 549.16 L 537.00 539.62 L 528.00 540.40 L 508.00 534.84 L 497.00 539.42 L 493.00 534.63 L 483.00 541.45 L 474.00 537.55 L 466.00 538.81 L 456.73 543.00 L 452.84 551.00 L 455.00 553.78 L 459.00 551.29 L 458.36 563.00 L 463.45 564.00 Z M 553.01 687.00 L 561.50 664.00 L 560.31 660.00 L 552.82 656.00 L 553.78 637.00 L 564.00 625.99 L 575.00 645.71 L 575.45 618.00 L 572.00 611.81 L 566.00 613.30 L 559.00 607.47 L 555.00 599.82 L 550.00 600.01 L 546.00 595.22 L 542.00 597.34 L 535.78 588.00 L 535.18 575.00 L 530.00 573.55 L 523.81 582.00 L 517.24 609.00 L 502.00 611.99 L 499.55 622.00 L 504.53 631.00 L 515.00 638.45 L 525.00 636.24 L 536.00 625.77 L 547.00 625.19 L 545.55 681.00 L 548.73 687.00 L 553.01 687.00 Z M 336.30 587.00 L 341.22 580.00 L 340.00 574.58 L 332.00 575.78 L 328.77 580.00 L 330.00 586.46 L 336.30 587.00 Z M 447.21 692.00 L 456.24 684.00 L 458.45 676.00 L 453.00 666.73 L 447.82 664.00 L 445.47 657.00 L 439.06 655.00 L 438.55 652.00 L 446.53 628.00 L 463.00 623.19 L 471.20 616.00 L 471.45 590.00 L 464.00 583.84 L 451.00 597.45 L 444.71 597.00 L 440.00 590.19 L 431.00 595.81 L 428.00 590.88 L 420.00 591.98 L 408.55 612.00 L 412.00 617.12 L 427.00 603.60 L 437.18 609.00 L 437.19 615.00 L 427.78 633.00 L 426.55 644.00 L 428.74 649.00 L 433.40 650.00 L 433.81 664.00 L 441.22 670.00 L 441.77 685.00 L 447.21 692.00 Z M 669.29 605.00 L 671.40 602.00 L 668.00 594.66 L 659.73 592.00 L 658.00 601.27 L 663.00 605.22 L 669.29 605.00 Z M 304.30 635.00 L 321.00 601.24 L 315.81 605.00 L 299.92 634.00 L 304.30 635.00 Z M 696.71 661.00 L 685.23 626.00 L 678.00 621.61 L 687.80 654.00 L 696.71 661.00 Z M 258.29 741.00 L 283.23 690.00 L 294.00 657.89 L 287.80 664.00 L 258.29 741.00 Z M 524.29 703.00 L 532.50 688.00 L 531.19 679.00 L 525.00 675.55 L 515.00 684.66 L 511.50 693.00 L 512.73 699.00 L 524.29 703.00 Z M 428.26 697.00 L 430.22 688.00 L 427.00 679.66 L 423.00 677.82 L 422.77 691.00 L 428.26 697.00 Z M 736.38 769.00 L 702.18 679.00 L 697.00 678.01 L 727.77 758.00 L 733.00 768.31 L 736.38 769.00 Z M 534.45 734.00 L 552.24 711.00 L 552.94 705.00 L 547.00 706.69 L 536.76 722.00 L 531.41 733.00 L 534.45 734.00 Z M 468.90 748.00 L 463.24 732.00 L 458.00 727.89 L 457.81 739.00 L 463.00 746.46 L 468.90 748.00 Z"
          fill="#000000" fill-rule="evenodd" stroke="none"/>
  </g>
</svg>