<?xml version="1.0" encoding="UTF-8"?>
<svg xmlns="http://www.w3.org/2000/svg" width="192" height="192" viewBox="0 0 1024 1024">
  <g fill-rule="evenodd">
    <g transform="translate(0.000000,1024.000000) scale(0.100000,-0.100000)">
    <path d="M3413 8315 c-12 -8 -37 -14 -55 -13 -28 3 -34 -1 -36 -19 -2 -16 2
-23 12 -23 11 0 16 -9 16 -26 0 -22 3 -25 23 -20 12 3 25 6 30 6 4 0 7 11 7
24 0 14 10 30 25 40 26 17 34 46 12 46 -7 0 -22 -7 -34 -15z" fill="#4A0E05"/>
    <path d="M2892 8097 c-26 -27 -30 -77 -7 -77 34 0 65 31 65 66 0 41 -25 46
-58 11z" fill="#4A0E05"/>
    <path d="M2985 7926 c-55 -21 -88 -56 -53 -56 25 0 137 55 138 68 0 17 -15 15
-85 -12z" fill="#4A0E05"/>
    <path d="M2511 7813 c-13 -32 -39 -90 -58 -130 -34 -68 -34 -73 -18 -89 22
-23 51 -6 48 27 0 13 14 62 32 109 45 114 51 140 33 140 -8 0 -24 -25 -37 -57z" fill="#4A0E05"/>
  </g>
    <g transform="translate(0.000000,1024.000000) scale(0.100000,-0.100000)">
    <path d="M3430 10186 c-114 -16 -124 -19 -265 -63 -114 -37 -122 -39 -245 -94
-564 -252 -1054 -832 -1268 -1500 -81 -253 -110 -456 -122 -854 -10 -332 -16
-385 -61 -512 -58 -164 -109 -243 -244 -374 -52 -52 -95 -97 -95 -102 0 -13
80 -127 136 -194 29 -34 61 -76 71 -93 15 -27 22 -31 48 -26 46 9 278 128 383
196 51 33 97 60 101 60 4 0 11 -42 15 -92 3 -51 9 -106 12 -123 5 -30 3 -31
-123 -94 -358 -177 -530 -387 -569 -693 -9 -75 -15 -82 -86 -108 -315 -114
-534 -330 -613 -607 -14 -50 -28 -70 -100 -143 -143 -145 -235 -291 -336 -530
-29 -69 -57 -126 -61 -128 -11 -5 -10 -442 1 -442 4 0 16 28 26 63 63 229 181
523 269 671 177 298 353 438 605 483 240 42 385 -29 482 -234 66 -139 107
-200 173 -259 56 -49 56 -49 81 -189 33 -180 61 -373 80 -550 25 -235 50 -408
86 -588 10 -54 19 -100 19 -103 0 -2 7 -4 15 -4 13 0 15 21 15 133 -1 300 -38
650 -117 1077 -23 129 -24 125 17 122 19 -1 43 -11 52 -20 43 -42 118 -329
178 -677 12 -66 30 -172 42 -235 11 -63 22 -128 25 -145 26 -166 80 -407 121
-540 33 -107 136 -305 159 -305 17 0 17 -3 -17 130 -41 153 -70 282 -81 355
-14 91 -43 251 -83 450 -20 99 -47 239 -62 310 -57 291 -106 478 -149 574 -27
58 -32 99 -12 106 151 48 157 49 173 29 28 -36 220 -437 294 -614 184 -440
423 -771 647 -895 76 -42 84 -53 56 -77 -26 -23 -162 -112 -211 -139 l-43 -24
-57 60 c-61 65 -181 220 -203 263 -8 15 -27 49 -42 76 -35 60 -137 264 -162
324 -23 55 -50 58 -40 4 16 -87 127 -394 178 -492 48 -91 81 -138 147 -210 68
-75 66 -79 -42 -133 -209 -102 -247 -118 -273 -111 -19 5 -25 2 -25 -10 0 -11
-24 -28 -67 -47 -92 -42 -260 -109 -273 -109 -15 0 -81 140 -131 279 -50 137
-74 160 -64 59 9 -87 32 -213 50 -278 22 -83 20 -106 -12 -118 -51 -20 -123
-42 -137 -42 -56 0 -95 354 -96 875 0 293 -33 718 -71 915 -68 352 -181 630
-256 630 -18 0 -17 -4 23 -98 50 -117 90 -263 119 -432 54 -318 50 -967 -4
-697 -11 57 -28 120 -68 252 -21 66 -103 273 -142 355 -94 199 -281 436 -281
355 0 -8 33 -79 74 -157 131 -250 303 -722 366 -998 23 -101 40 -199 40 -227
0 -39 -25 -46 -36 -10 -60 198 -334 609 -530 796 -141 135 -173 126 -74 -20
33 -48 60 -90 60 -93 0 -6 77 -133 111 -183 16 -23 29 -44 29 -48 0 -3 17 -32
38 -63 108 -162 195 -341 258 -528 65 -194 33 -206 -71 -26 -165 286 -480 503
-735 506 -127 1 -135 -18 -23 -53 352 -109 707 -459 863 -851 110 -275 103
-278 -115 -56 -171 174 -256 240 -399 307 -245 114 -500 109 -709 -16 -67 -40
-67 -40 -67 -102 0 -73 4 -75 67 -27 190 145 454 157 709 34 106 -51 254 -159
254 -185 0 -19 11 -20 -117 11 -174 43 -407 39 -538 -8 -99 -36 -302 -153
-336 -194 -6 -8 -18 -14 -25 -14 -11 0 -14 -21 -14 -95 0 -102 4 -109 41 -69
254 271 739 350 1064 173 116 -64 94 -74 -143 -71 -295 4 -396 -19 -566 -133
-147 -97 -218 -187 -338 -425 -23 -47 -46 -86 -50 -88 -12 -5 -10 -382 2 -382
6 0 10 7 10 15 0 16 26 106 62 210 24 72 122 277 172 360 100 167 263 281 421
292 101 7 112 -7 43 -52 -177 -117 -365 -386 -493 -706 -74 -182 -204 -623
-205 -691 0 -10 -4 -18 -10 -18 -6 0 -10 -67 -10 -180 l0 -180 5120 0 5120 0
0 185 0 185 -1445 0 -1445 0 0 32 c0 18 7 107 16 198 l16 165 93 115 c170 208
194 228 308 245 227 34 438 104 620 207 49 28 132 67 186 88 131 51 223 98
296 152 33 24 98 66 145 93 161 94 289 243 435 505 32 58 88 157 124 220 50
89 65 124 64 153 -1 53 -41 94 -102 103 -38 6 -54 16 -91 55 -50 52 -106 74
-164 64 -26 -5 -47 0 -96 25 -154 78 -304 -38 -464 -358 -71 -143 -145 -254
-164 -250 -43 9 -56 53 -42 142 26 169 0 344 -69 456 -48 78 -150 165 -207
176 -37 7 -42 20 -20 62 7 15 19 52 26 82 11 46 24 66 80 126 41 43 81 98 101
139 40 81 38 81 146 63 87 -14 88 -14 96 -48 102 -406 517 -607 963 -466 262
83 464 350 464 614 0 237 -122 419 -347 518 -415 184 -991 -59 -1079 -453
l-16 -74 -82 6 c-44 4 -86 8 -92 10 -7 2 -13 40 -16 97 -6 153 -82 283 -221
383 -62 44 -66 58 -38 114 40 78 210 271 239 271 7 0 48 -29 90 -66 267 -227
626 -272 927 -116 468 243 460 841 -15 1114 -244 140 -588 147 -820 15 -128
-72 -255 -233 -306 -387 -37 -115 -11 -335 51 -424 24 -33 18 -50 -27 -84 -74
-55 -195 -207 -233 -293 -19 -41 -19 -41 -85 -34 -36 4 -96 10 -135 14 -70 6
-70 6 -67 53 15 205 -136 381 -372 433 -69 16 -78 20 -106 58 -51 69 -69 149
-50 219 l11 37 177 -6 c312 -10 476 42 637 202 189 187 233 463 114 711 -153
321 -666 581 -1089 551 -532 -38 -847 -522 -628 -966 93 -190 321 -355 610
-443 l77 -23 -6 -95 c-4 -75 -2 -105 12 -140 33 -89 37 -84 -61 -102 -285 -54
-466 -285 -451 -575 5 -103 5 -102 -59 -80 -249 87 -532 -68 -615 -338 -13
-41 -29 -75 -35 -75 -6 0 -30 62 -54 137 -149 475 -305 729 -568 923 -58 42
-75 71 -52 85 47 29 102 223 102 365 1 234 -77 378 -299 553 -131 103 -197
170 -218 219 -21 53 -19 67 20 147 131 266 191 531 161 715 -21 131 -23 122
27 147 124 63 234 187 289 324 31 76 32 87 33 215 0 213 -49 320 -230 495 -85
83 -96 99 -148 207 -139 295 -384 567 -657 733 -70 43 -70 42 -36 177 77 304
239 514 539 698 64 40 117 78 117 86 0 39 -354 226 -545 288 -338 109 -753
153 -1055 112z m167 -291 c1 -176 19 -315 38 -315 8 0 11 68 11 243 l-1 242
104 3 c57 1 108 -1 113 -6 6 -6 4 -43 -6 -93 -20 -115 -36 -278 -36 -376 0
-76 2 -83 20 -83 18 0 20 7 20 59 0 129 64 479 89 489 12 5 127 -10 189 -25
28 -7 28 -17 -2 -79 -53 -113 -102 -322 -127 -544 -15 -134 -14 -134 -42 -126
-147 42 -458 56 -592 28 -684 -147 -1252 -796 -1379 -1575 -23 -138 -66 -395
-76 -452 -47 -266 -249 -561 -465 -679 -27 -16 -54 -32 -59 -37 -20 -18 -37
-8 -66 38 -40 63 -39 70 26 133 57 57 156 197 181 259 8 20 24 55 34 79 11 23
22 57 26 75 3 17 9 37 13 42 13 18 29 136 40 300 14 195 8 177 61 189 67 17
67 46 0 46 l-51 0 0 110 c0 130 -3 127 124 136 62 5 86 11 86 20 0 8 -3 14 -7
15 -203 17 -197 13 -183 102 20 126 14 121 140 113 94 -6 110 -5 110 8 0 14
-27 24 -154 58 -48 13 -48 13 -42 58 21 156 44 179 143 145 77 -27 176 -54
201 -55 36 -1 3 29 -61 54 -104 42 -207 95 -207 106 0 11 32 94 61 157 22 49
38 53 89 21 48 -30 142 -78 152 -78 21 0 4 30 -29 54 -166 116 -166 117 -101
226 45 75 59 75 159 1 140 -104 155 -72 19 40 -49 40 -90 80 -90 89 0 19 97
150 111 150 5 0 52 -36 104 -80 52 -44 99 -80 105 -80 26 0 4 35 -70 113 -54
57 -80 92 -80 108 0 29 114 159 139 159 24 0 87 -73 210 -241 15 -21 41 -26
41 -8 0 6 -45 73 -100 150 -55 77 -100 145 -100 152 0 24 131 137 158 137 10
0 29 -21 45 -48 15 -26 33 -56 40 -67 6 -10 29 -48 50 -82 36 -58 67 -82 67
-50 0 6 -34 75 -75 152 -41 77 -75 143 -75 147 0 9 162 108 177 108 12 0 47
-71 116 -232 22 -54 47 -98 54 -98 19 0 18 2 -43 171 -74 203 -75 195 9 237
37 18 74 32 81 29 16 -6 43 -74 97 -244 29 -93 46 -133 56 -133 11 0 14 7 10
23 -29 134 -51 220 -72 279 -26 75 -30 103 -17 112 19 11 205 57 216 53 8 -3
17 -56 25 -149 7 -78 17 -168 22 -198 5 -30 12 -70 15 -87 3 -21 11 -33 21
-33 12 0 14 7 9 28 -13 62 -27 445 -17 455 14 14 90 25 151 23 l45 -1 2 -170z
m774 79 c57 -19 112 -38 122 -41 25 -8 21 -23 -20 -75 -90 -110 -121 -153
-165 -233 -40 -73 -88 -186 -88 -208 0 -29 35 6 65 65 89 172 146 257 224 336
74 75 82 76 196 21 94 -45 104 -63 55 -93 -150 -88 -367 -340 -441 -511 -28
-65 -26 -64 -120 -21 -41 18 -86 38 -101 44 -27 11 -28 15 -28 79 0 70 13 191
30 278 6 28 14 75 19 105 10 64 53 194 81 251 26 49 37 49 171 3z m-528 -785
c131 -24 132 -26 131 -119 -1 -44 -5 -85 -10 -90 -6 -6 -56 0 -132 15 -501
102 -946 -93 -1311 -575 -86 -114 -236 -366 -341 -572 -45 -90 -78 -118 -65
-55 16 78 75 268 99 320 14 32 26 60 26 62 0 18 146 295 188 357 54 80 171
211 282 315 218 204 477 323 780 357 60 7 288 -3 353 -15z m353 -108 c59 -28
66 -34 60 -54 -4 -12 -9 -46 -13 -75 -3 -29 -10 -55 -16 -59 -11 -7 -116 26
-138 45 -14 11 -39 124 -39 174 0 18 75 2 146 -31z m-365 -181 c467 -84 858
-361 1079 -764 55 -99 46 -108 -68 -70 -42 14 -99 30 -127 36 -27 5 -68 14
-90 19 -410 92 -768 26 -1076 -199 -112 -82 -279 -241 -279 -267 0 -34 38 -14
283 152 148 100 284 178 343 195 10 4 46 16 79 28 126 46 472 73 463 36 -12
-52 -231 -187 -390 -240 -557 -186 -750 -270 -580 -251 31 3 70 9 85 12 112
21 -135 -128 -317 -191 -94 -33 -313 -111 -353 -128 -108 -42 30 -43 240 -2
113 23 -122 -139 -321 -219 -60 -25 -104 -36 -322 -87 -110 -26 -180 -56 -267
-114 -87 -57 -85 -78 5 -51 29 10 30 -15 1 -41 -34 -30 -86 -116 -106 -175
-24 -71 -30 -79 -57 -79 -18 0 -25 7 -30 31 -24 124 36 290 146 400 44 44 247
189 264 189 23 0 484 372 612 494 51 49 52 59 7 80 -58 28 -46 48 48 80 122
42 437 265 437 310 0 7 -24 21 -55 31 -61 19 -71 39 -24 49 112 22 314 172
397 293 70 104 69 119 -5 129 -148 18 -389 -56 -515 -159 -68 -56 -82 -59 -74
-14 15 84 18 164 7 171 -24 15 -148 -38 -251 -107 -74 -50 -194 -178 -234
-250 -34 -60 -66 -87 -66 -55 0 26 -33 98 -45 98 -7 0 -62 -52 -124 -115 -136
-141 -159 -150 -105 -42 165 328 419 589 699 720 175 82 450 109 686 67z m-41
-397 c0 -52 -205 -207 -348 -264 -91 -36 -95 -36 -87 1 6 26 4 30 -14 30 -52
0 -9 50 106 124 143 92 343 155 343 109z m-603 -97 c-9 -126 -68 -222 -199
-322 -63 -49 -78 -53 -78 -24 0 31 -26 24 -57 -15 -75 -94 -74 44 1 155 67
100 271 279 320 280 17 0 18 -6 13 -74z m-534 -280 c37 -96 26 -246 -25 -354
-43 -92 -168 -209 -168 -157 0 24 -25 17 -40 -10 -21 -40 -40 -31 -40 18 0
148 78 342 183 454 60 64 80 75 90 49z m690 -43 c78 -7 82 -15 30 -64 -139
-131 -387 -235 -506 -212 -27 5 -39 33 -14 33 23 0 67 25 67 38 0 6 -9 12 -21
12 -40 0 -15 34 66 88 153 102 218 121 378 105z m1370 -63 c325 -96 550 -274
592 -467 10 -50 -13 -41 -68 27 -71 89 -190 164 -382 240 -157 62 -305 142
-305 164 0 12 47 66 57 66 2 0 50 -14 106 -30z m-164 -118 c69 -57 97 -75 197
-125 149 -76 237 -172 269 -295 27 -101 26 -102 -56 -102 -117 0 -287 -100
-359 -212 -53 -82 -58 -114 -28 -180 14 -29 35 -98 47 -153 13 -55 36 -136 53
-180 55 -149 54 -142 28 -170 -13 -14 -43 -34 -67 -46 -47 -23 -35 -24 -182
16 -63 17 -125 5 -142 -28 -19 -35 -4 -47 60 -47 73 0 90 -6 102 -36 22 -58
221 1 294 88 38 45 31 124 -19 231 -84 179 -112 348 -59 355 17 3 24 -3 29
-25 22 -91 127 -108 166 -26 22 46 68 45 68 -1 0 -19 7 -68 16 -108 11 -46 17
-123 18 -208 1 -223 -45 -377 -236 -780 -41 -85 -80 -181 -165 -405 -158 -416
-236 -504 -445 -505 -279 -1 -894 403 -1059 696 -29 50 -59 71 -59 41 0 -7 15
-49 33 -93 143 -351 369 -580 732 -743 77 -35 144 -67 149 -72 12 -11 -23
-152 -69 -273 -20 -54 -34 -100 -32 -103 38 -38 186 188 187 285 0 41 36 27
59 -23 60 -127 68 -322 18 -407 -90 -154 -268 -184 -642 -109 -147 30 -480
171 -620 263 -27 18 -95 62 -150 97 -55 36 -137 94 -182 130 -125 100 -248
194 -353 269 -111 80 -118 93 -58 112 400 129 667 529 668 1003 0 87 0 87 43
87 88 0 127 47 127 151 0 68 -14 76 -45 26 -43 -68 -111 -62 -223 23 -79 59
-146 135 -198 225 -51 88 -45 283 8 263 10 -4 17 -28 22 -73 6 -63 34 -132 69
-177 28 -36 35 -20 30 62 -5 70 -4 80 11 80 9 0 16 -7 16 -15 0 -22 44 -107
76 -144 31 -37 64 -56 117 -65 36 -7 37 -6 37 24 0 16 -9 47 -20 67 -39 74
-22 111 66 139 164 52 256 150 312 331 35 112 201 290 387 413 61 40 142 98
180 130 48 39 93 65 145 84 273 99 380 150 487 231 72 54 84 54 142 7z m-2238
-174 c6 -25 10 -90 7 -154 -3 -110 -4 -112 -52 -209 -90 -181 -128 -216 -140
-129 -19 139 5 246 92 420 62 125 76 135 93 72z m634 -46 c65 -12 57 -33 -42
-107 -98 -74 -180 -117 -268 -140 -123 -32 -197 -8 -100 32 25 10 45 24 45 31
0 16 -13 15 -57 -3 -124 -52 -13 74 125 142 104 50 191 64 297 45z m2242 -206
c136 -114 141 -290 14 -409 -72 -68 -96 -64 -64 9 25 59 31 283 9 356 -23 80
-14 90 41 44z m-2617 -151 c0 -30 -322 -215 -375 -215 -51 0 59 144 144 189
72 39 231 57 231 26z m2445 -79 c35 -25 -3 -196 -46 -204 -8 -1 -22 12 -31 28
-26 45 -97 74 -165 67 -68 -7 -70 10 -6 54 98 68 200 91 248 55z m-3055 -290
c0 -35 -102 -156 -132 -156 -21 0 -23 16 -5 34 7 8 35 41 62 75 48 59 75 76
75 47z m1120 -11 c0 -8 -6 -15 -14 -15 -8 0 -16 -6 -19 -14 -17 -43 -213 -99
-309 -89 -78 8 -81 33 -5 33 85 0 303 64 315 93 6 13 32 7 32 -8z m-785 -387
c-58 -264 -192 -432 -453 -569 -171 -89 -261 -178 -308 -299 -23 -61 -30 -67
-99 -85 -100 -26 -103 -20 -59 130 64 224 166 331 443 470 227 113 362 221
433 344 29 51 53 56 43 9z m119 -194 c11 -29 6 -119 -9 -179 -63 -242 -221
-374 -584 -486 -147 -46 -167 -38 -110 39 33 45 89 82 249 162 156 79 342 278
407 437 19 44 36 55 47 27z m5036 -93 c361 -80 672 -320 745 -575 63 -217 -49
-476 -251 -583 -335 -177 -969 -51 -1234 245 -288 322 -125 797 314 912 99 26
309 27 426 1z m-4873 -303 c-21 -519 -410 -804 -1022 -752 -309 27 -517 -1
-743 -97 -85 -37 -84 -14 1 68 162 156 346 235 764 328 297 67 406 101 540
172 184 97 131 3 -60 -106 -62 -35 -175 -81 -289 -117 -279 -87 -294 -104 -99
-104 262 0 422 56 591 205 109 96 233 306 275 468 12 44 23 67 33 67 12 0 14
-20 9 -132z m2321 -331 c37 -30 88 -68 114 -86 103 -69 224 -201 252 -276 70
-182 42 -392 -70 -525 -38 -45 -80 -40 -77 10 1 19 6 36 12 38 17 6 13 32 -4
32 -8 0 -15 -6 -15 -13 0 -14 -40 -37 -65 -37 -18 0 -18 0 1 80 51 216 29 361
-74 504 -89 122 -138 216 -158 299 -9 40 8 35 84 -26z m-89 -297 c133 -179
163 -273 132 -422 -15 -69 -19 -70 -117 -30 l-69 29 -7 96 c-4 53 -16 140 -27
192 -28 129 -26 240 4 233 7 -2 45 -46 84 -98z m4363 -14 c495 -95 716 -603
399 -916 -435 -430 -1303 -13 -1131 543 86 279 397 437 732 373z m-7522 -220
c298 -72 457 -299 399 -569 -44 -209 -318 -200 -479 17 -63 86 -49 101 40 41
105 -70 198 -79 246 -22 68 81 -41 286 -192 357 -108 52 -112 36 -16 -64 123
-130 140 -294 21 -203 -17 12 -67 54 -112 92 -211 182 -289 227 -419 246 -95
14 -99 28 -15 54 196 59 408 80 527 51z m3010 -296 c213 -71 425 -174 615
-298 222 -145 354 -311 454 -572 36 -93 46 -119 61 -152 28 -68 71 -221 63
-229 -10 -10 -169 -58 -194 -59 -39 0 -108 58 -119 102 -67 263 -100 313 -100
148 0 -119 1 -118 -96 -52 -69 47 -69 47 -76 129 -14 174 -77 329 -197 491
-14 17 -31 32 -38 32 -15 0 -18 -26 -4 -34 29 -18 151 -379 151 -447 0 -59 6
-58 -92 -9 -44 22 -89 40 -100 40 -43 0 -55 17 -62 87 -12 117 -97 401 -148
491 -80 142 -83 147 -190 264 -79 86 -101 118 -82 118 4 0 73 -22 154 -50z
m-2370 -136 c110 -82 459 -317 525 -354 230 -129 496 -237 665 -269 36 -7 84
-17 107 -22 78 -17 311 -11 373 10 166 57 229 114 266 239 16 57 15 313 -2
385 -5 20 -3 27 9 27 23 0 68 -78 117 -205 55 -139 35 -340 -52 -519 -47 -96
-57 -108 -125 -152 -72 -46 -125 -96 -196 -184 -241 -297 -696 -780 -735 -780
-59 0 -273 177 -386 320 -92 115 -204 297 -286 465 -46 95 -271 522 -310 589
-10 17 -43 75 -74 129 -54 92 -57 100 -49 140 13 66 31 59 131 -55 110 -126
361 -372 462 -454 78 -64 223 -164 236 -164 4 0 15 -6 23 -14 32 -28 191 -105
277 -134 302 -100 583 -39 763 165 76 86 62 115 -24 49 -291 -222 -656 -196
-1059 77 -290 195 -675 560 -764 723 -47 88 -23 85 108 -12z m2200 -51 c134
-144 212 -288 288 -533 52 -169 49 -174 -107 -184 -57 -3 -148 -14 -202 -23
-55 -9 -102 -13 -106 -10 -3 4 11 38 31 75 94 181 106 424 29 636 -52 145 -39
152 67 39z m2965 -98 c161 -42 285 -161 285 -274 0 -28 -2 -27 -95 19 -198
100 -370 86 -509 -41 -97 -89 -133 -240 -78 -333 26 -44 29 -76 6 -76 -9 0
-38 -11 -66 -25 -70 -35 -79 -33 -117 29 -142 236 -65 550 162 660 114 56 289
73 412 41z m48 -310 c77 -23 152 -66 154 -90 2 -16 -16 -29 -100 -69 -88 -42
-113 -60 -185 -132 -118 -119 -160 -117 -226 13 -86 170 136 343 357 278z
m491 -185 c32 -5 61 -11 63 -14 28 -27 -240 -396 -288 -396 -23 0 -79 48 -79
67 0 9 18 36 41 60 50 55 100 159 106 221 3 26 6 53 8 60 5 15 67 16 149 2z
m-267 -71 c-7 -56 -36 -111 -94 -178 l-39 -44 -92 34 c-50 19 -92 39 -92 45 0
29 137 136 216 169 95 39 108 36 101 -26z m1928 17 c155 -52 252 -131 313
-255 36 -73 37 -77 37 -191 0 -116 0 -116 -44 -206 -250 -506 -1041 -455
-1177 77 -95 370 436 721 871 575z m-1428 -67 c60 -49 123 -130 137 -176 32
-102 22 -253 -22 -343 -38 -76 -57 -77 -66 -3 -9 82 -44 150 -105 205 -44 40
-138 88 -171 88 -18 0 -11 19 34 87 24 37 58 96 75 131 38 75 40 75 118 11z
m-1635 -20 c85 -18 162 -64 208 -125 49 -65 49 -58 -5 -119 -45 -49 -45 -49
-92 -32 -195 69 -377 11 -484 -153 -17 -25 -17 -25 -64 -2 -48 23 -48 23 -41
84 23 223 257 393 478 347z m-1607 -93 c19 -8 54 -28 77 -44 24 -16 63 -40 88
-53 24 -13 85 -52 135 -86 49 -34 142 -95 205 -135 133 -84 180 -123 180 -147
0 -72 -172 -79 -312 -12 -48 22 -90 41 -93 41 -5 0 -249 114 -275 129 -8 4
-16 18 -18 30 -3 22 -6 22 -90 16 -48 -4 -116 -2 -152 4 -307 48 -310 48 -310
28 0 -26 218 -95 435 -137 79 -16 169 -64 206 -112 99 -124 147 -296 103 -363
-22 -34 -35 -31 -64 13 -103 157 -178 195 -594 298 -173 43 20 -81 243 -156
139 -47 153 -54 209 -107 74 -70 70 -132 -16 -245 -47 -62 -68 -62 -135 0 -74
69 -111 88 -259 138 -147 49 -148 50 -148 30 0 -15 113 -93 221 -154 168 -95
186 -220 50 -335 -59 -50 -118 -70 -221 -75 -113 -5 -137 7 -109 56 17 31 55
41 167 41 90 1 96 22 19 59 -44 21 -57 22 -142 16 -94 -7 -94 -7 -131 -70 -79
-134 -239 -271 -379 -323 -75 -27 -217 -36 -298 -17 -38 8 -38 8 -31 -31 6
-40 6 -40 -102 -139 -204 -187 -250 -229 -359 -324 -60 -52 -136 -120 -170
-150 -138 -124 -494 -412 -750 -607 -383 -291 -877 -513 -1296 -582 -132 -22
-433 -9 -464 20 -5 5 -16 9 -25 9 -27 0 -109 58 -131 92 -75 119 83 707 267
996 125 195 404 407 561 427 26 3 73 10 103 15 30 5 100 17 155 25 219 35 491
117 730 220 17 7 58 25 92 39 58 24 92 39 226 100 28 13 84 38 122 55 278 127
598 310 760 436 148 115 419 406 657 706 215 270 273 315 433 337 271 37 575
51 630 28z m2215 -76 c0 -27 -47 -120 -61 -120 -20 0 -119 70 -119 84 0 19 93
55 143 55 31 1 37 -2 37 -19z m218 -21 c102 -31 88 -69 -42 -113 -106 -36
-133 -20 -95 57 43 84 41 84 137 56z m-465 -103 c18 -13 61 -39 97 -58 65 -35
65 -35 64 -96 -1 -83 -12 -94 -88 -90 -60 3 -60 3 -96 65 -20 35 -48 75 -63
91 -34 35 -34 39 5 79 38 39 40 40 81 9z m694 -18 c43 -30 43 -27 -29 -94 -35
-32 -89 -85 -120 -118 l-57 -59 -78 22 c-43 12 -94 25 -113 29 -38 9 -46 24
-36 77 6 32 6 32 85 37 84 5 193 48 256 102 37 31 50 32 92 4z m398 -17 c94
-43 127 -100 133 -229 4 -77 2 -96 -12 -111 -29 -32 -135 -73 -190 -75 -51 -1
-51 -1 -59 69 -11 96 -34 196 -60 257 -21 51 -21 51 11 79 39 35 113 39 177
10z m-1397 -32 c29 -11 28 -25 -7 -90 -17 -30 -38 -86 -48 -124 -17 -67 -21
-71 -63 -93 l-45 -23 -92 90 c-107 103 -110 113 -49 169 87 80 204 108 304 71z
m171 -116 c51 -61 44 -75 -46 -95 -90 -21 -90 -21 -69 34 42 103 69 117 115
61z m961 -14 c46 -108 52 -239 10 -239 -51 0 -240 82 -240 104 0 17 176 186
194 186 8 0 23 -23 36 -51z m-1853 24 c25 -75 90 -227 114 -270 45 -82 40 -86
-72 -57 -120 31 -258 -4 -341 -87 -26 -26 -48 -53 -48 -59 0 -29 -30 -6 -35
28 -3 20 -11 53 -16 72 -6 19 -9 55 -7 80 3 45 3 45 58 51 127 14 184 69 178
170 -3 61 -3 61 32 74 55 20 129 19 137 -2z m402 -209 c76 -70 76 -72 -6 -150
-83 -77 -96 -79 -117 -17 -21 62 -20 101 5 168 26 71 41 71 118 -1z m797 39
c4 -10 25 -56 47 -102 47 -97 49 -92 -80 -157 -82 -41 -109 -40 -98 4 4 15 8
79 10 142 2 115 2 115 31 121 56 13 84 10 90 -8z m-1796 -38 l85 -34 6 -93 c3
-51 13 -122 22 -158 17 -67 57 -252 82 -375 35 -177 44 -332 24 -427 -34 -165
-102 -348 -176 -473 -70 -117 -238 -335 -259 -335 -25 0 -14 26 50 129 94 149
222 431 258 571 26 102 32 404 10 500 -8 30 -20 84 -29 120 -24 104 -73 230
-89 230 -20 0 -18 -70 6 -230 22 -145 26 -338 9 -422 -45 -229 -139 -469 -275
-707 -108 -190 -364 -493 -364 -432 0 4 44 101 98 214 115 243 125 266 146
332 15 48 46 186 46 206 0 21 -29 7 -39 -18 -86 -228 -452 -687 -697 -879
-127 -99 -136 -87 -36 49 139 190 228 347 315 562 42 101 97 284 97 320 0 20
-29 19 -37 -1 -23 -61 -203 -357 -315 -519 -125 -180 -520 -504 -615 -505 -36
0 -29 12 73 111 337 331 558 724 641 1144 33 169 31 165 100 165 139 0 266 80
359 225 19 30 64 78 100 107 68 55 98 95 124 163 12 30 22 41 40 43 166 20
250 216 162 375 -50 91 -47 93 78 42z m2000 26 c33 -9 36 -31 10 -64 -31 -39
-56 -35 -80 13 -11 21 -20 44 -20 50 0 11 51 12 90 1z m-430 -16 c16 -19 8
-193 -10 -242 -38 -104 -236 59 -218 180 2 17 20 27 88 49 98 31 123 34 140
13z m646 -77 c27 -12 87 -36 134 -53 111 -41 115 -56 35 -132 -79 -74 -140
-109 -168 -96 -33 15 -175 151 -183 175 -5 16 6 32 47 74 60 61 67 63 135 32z
m594 -86 c0 -35 -55 -128 -107 -180 -87 -87 -262 -151 -336 -123 -40 15 -33
36 27 80 61 45 119 110 146 162 18 35 22 37 87 44 37 4 86 13 108 20 57 19 75
18 75 -3z m-1656 -59 c47 -107 62 -243 25 -243 -55 0 -199 94 -199 130 0 25
117 150 140 150 10 0 24 -15 34 -37z m-469 -23 c60 -33 62 -37 68 -148 l6
-104 -57 -58 c-162 -166 -412 -90 -412 125 1 107 64 178 185 209 48 12 171 -2
210 -24z m623 -5 c26 -41 89 -89 138 -105 41 -14 43 -28 7 -62 -38 -35 -86
-58 -121 -58 -29 0 -29 0 -36 75 -4 41 -13 96 -21 122 -23 76 -7 89 33 28z
m679 -35 c20 -23 71 -70 115 -106 43 -36 78 -71 78 -77 0 -20 -94 -197 -105
-197 -5 0 -23 27 -38 61 -115 248 -487 167 -487 -105 0 -140 163 -253 310
-216 102 26 94 27 87 -13 -18 -115 -167 -240 -301 -254 -51 -5 -54 -4 -75 26
-13 18 -58 57 -101 87 -88 62 -124 99 -186 194 -74 115 -80 133 -57 167 11 15
26 46 34 68 18 55 30 66 85 76 86 16 164 68 232 154 27 36 41 44 85 53 78 16
156 47 212 86 64 44 68 44 112 -4z m943 -100 c139 -72 228 -309 179 -482 -12
-46 -13 -46 -99 -3 -134 68 -270 81 -360 35 -65 -33 -72 -29 -99 55 -13 42
-41 104 -62 140 -50 82 -50 81 18 88 83 9 185 63 258 137 66 68 85 71 165 30z
m-1964 -81 c25 -17 64 -39 87 -50 23 -11 49 -24 57 -29 8 -5 28 -11 43 -15 40
-8 36 -58 -5 -63 -22 -3 -28 -9 -28 -27 0 -14 -8 -29 -19 -35 -102 -54 -269
116 -219 225 15 33 30 32 84 -6z m2822 -45 c28 -8 28 -31 -2 -85 -14 -24 -54
-118 -91 -209 -36 -91 -70 -174 -75 -185 -5 -11 -21 -49 -36 -85 -30 -76 -105
-223 -149 -295 -234 -380 -461 -533 -932 -625 -99 -20 -253 -9 -343 24 -111
41 -110 41 -110 19 0 -21 80 -102 123 -123 36 -18 35 -25 -15 -79 -24 -26 -76
-86 -117 -135 -137 -161 -378 -380 -490 -444 -169 -97 -268 -121 -504 -122
-154 0 -144 -14 -128 179 60 713 244 1016 680 1115 63 14 152 42 198 62 98 42
103 41 74 -25 -11 -27 -21 -59 -21 -71 0 -49 37 -7 131 149 133 219 211 303
364 390 119 69 116 70 109 -40 -6 -94 -6 -94 27 -144 85 -125 233 -136 447
-33 57 28 192 154 192 180 0 22 39 5 50 -22 37 -88 -63 -181 -280 -260 -47
-17 -106 -45 -133 -61 -56 -35 -60 -35 -148 -9 -150 45 -310 41 -413 -10 -84
-43 -77 -69 12 -46 106 28 226 18 387 -31 60 -19 60 -19 63 -61 4 -51 21 -54
45 -9 43 80 93 114 276 187 125 49 131 50 131 6 0 -111 28 -124 53 -24 39 157
180 397 255 433 32 16 42 40 20 48 -19 6 81 201 151 295 96 128 140 161 199
146z m-1476 -61 c71 -65 140 -188 162 -289 7 -31 6 -31 -91 -78 -165 -80 -251
-143 -313 -231 -110 -155 -213 -241 -298 -251 -37 -5 -37 -4 -66 57 -31 67
-31 68 37 93 160 59 273 194 313 376 13 58 26 85 55 120 21 25 58 89 83 143
51 110 57 114 118 60z m-432 7 c80 -41 131 -179 82 -223 -114 -103 -331 -37
-320 98 10 119 128 181 238 125z m2168 -24 c2 -17 -4 -36 -15 -50 -22 -24 -51
-85 -81 -166 -18 -47 -74 -195 -115 -305 -85 -224 -239 -423 -393 -511 -102
-58 -110 -41 -29 64 30 40 55 74 55 78 0 3 13 24 29 48 56 82 244 498 285 633
29 94 98 205 139 224 64 29 121 23 125 -15z m-3212 -63 c70 -96 121 -129 218
-142 l49 -6 3 -132 2 -133 -38 0 c-53 0 -173 -42 -234 -83 -181 -120 -311
-288 -430 -557 -16 -36 -43 -96 -61 -135 -17 -38 -42 -96 -56 -127 -29 -70
-54 -79 -44 -16 20 130 114 415 200 603 12 28 25 60 29 73 11 33 164 363 182
389 42 65 -3 55 -65 -14 -41 -46 -210 -313 -260 -410 -7 -13 -18 -23 -26 -23
-18 0 -19 -8 5 86 37 150 46 286 27 436 -9 73 -14 134 -12 137 3 2 37 -6 77
-18 40 -11 87 -21 104 -21 75 0 221 63 263 114 21 25 38 19 67 -21z m3388 -25
c8 -14 7 -24 -3 -40 -38 -60 -124 -214 -172 -308 -47 -91 -119 -209 -174 -287
-36 -52 -59 -18 -27 39 10 18 31 62 46 98 16 36 34 79 41 95 8 17 32 82 55
145 23 63 52 138 65 167 41 88 138 140 169 91z m-1337 -239 c88 -36 154 -71
159 -84 3 -8 -10 -35 -33 -62 -21 -26 -45 -56 -53 -66 -23 -28 -133 -87 -163
-87 -21 0 -31 9 -46 39 -24 45 -74 91 -102 91 -28 0 -24 -13 17 -54 51 -51 46
-90 -11 -94 -160 -11 -164 223 -4 305 50 25 185 32 236 12z m-3927 -44 c28
-33 -61 -313 -132 -417 -10 -14 -18 -29 -18 -32 0 -44 -303 -429 -436 -555
-193 -183 -314 -261 -579 -371 -22 -8 -98 -30 -109 -30 -23 0 2 30 47 54 188
105 497 430 631 662 76 133 64 137 -60 18 -320 -308 -594 -495 -863 -585 -93
-32 -144 -37 -139 -15 2 7 57 59 123 116 66 57 228 209 361 339 342 336 557
538 580 544 10 3 46 11 79 17 149 28 279 92 395 195 90 79 100 84 120 60z
m2429 -183 c48 -23 57 -58 12 -49 -39 8 -101 48 -101 66 0 16 32 9 89 -17z
m-204 -42 c21 -21 67 -52 102 -67 81 -35 79 -47 -9 -62 -142 -24 -219 -64
-334 -173 -188 -179 -274 -360 -500 -1055 -53 -163 -94 -273 -101 -273 -30 0
-10 342 31 536 118 558 345 947 639 1095 101 50 122 50 172 -1z m273 -256 c63
-18 73 -48 20 -59 -167 -36 -385 -208 -472 -374 -87 -167 -194 -565 -236 -880
-13 -98 -16 -101 -111 -101 -94 0 -91 -8 -59 200 114 732 323 1140 625 1219
84 22 138 21 233 -5z m-1586 -1049 c1 -118 3 -248 3 -287 l0 -73 -58 -3 c-42
-2 -59 1 -63 11 -6 17 20 221 46 359 36 185 42 208 56 208 11 0 14 -41 16
-215z m-472 -59 c0 -20 -173 -117 -286 -160 -140 -54 -251 -80 -447 -106 -99
-13 -648 -13 -770 0 -51 5 -141 14 -202 20 -116 12 -133 14 -369 55 -161 28
-166 29 -166 50 0 11 132 14 763 18 765 4 875 9 1108 46 69 11 279 63 319 80
36 14 50 13 50 -3z m120 -130 c0 -22 -208 -186 -235 -186 -4 0 -19 -8 -33 -18
-300 -208 -1380 -257 -2102 -95 -63 14 -133 29 -155 34 -22 4 -60 15 -84 23
-24 9 -52 16 -62 16 -11 0 -19 7 -19 16 0 18 84 16 290 -6 47 -5 146 -14 220
-20 74 -6 189 -15 255 -21 175 -16 719 -12 905 6 324 31 522 68 695 132 39 14
79 27 90 30 11 3 61 27 110 53 96 50 125 59 125 36z m2365 -88 c-8 -89 -7 -88
-56 -88 -51 0 -52 25 -3 103 51 82 69 77 59 -15z" fill="#0F0B06"/>
    <path d="M4110 8654 c0 -9 19 -38 43 -65 23 -26 58 -74 76 -106 86 -147 91
-150 251 -172 47 -7 106 -17 132 -24 87 -20 74 15 -52 143 -92 94 -159 134
-337 204 -105 41 -113 42 -113 20z m257 -146 c116 -54 198 -148 116 -133 -133
24 -132 24 -169 81 -58 91 -49 100 53 52z" fill="#0F0B06"/>
    <path d="M3860 7420 c-102 -21 -294 -149 -266 -177 3 -4 23 1 43 11 162 77
377 72 476 -12 35 -30 21 -42 -51 -42 -105 0 -246 -42 -333 -98 -15 -9 -41
-26 -58 -37 -41 -26 -40 -45 3 -45 21 0 68 17 121 46 110 57 127 56 137 -10
14 -97 84 -124 148 -57 39 40 63 51 75 31 19 -32 35 -8 29 42 -7 51 -7 51 17
44 121 -37 149 -34 203 22 56 57 59 75 12 67 -31 -6 -39 -1 -111 63 -143 129
-299 183 -445 152z" fill="#0F0B06"/>
    <path d="M4279 6620 c-103 -31 -278 -255 -314 -402 -13 -53 19 -30 57 41 51
94 109 171 131 171 9 0 17 -4 17 -10 0 -5 7 -10 15 -10 8 0 15 9 15 20 0 38
50 120 90 148 58 40 53 62 -11 42z" fill="#0F0B06"/>
    <path d="M4345 6202 c-252 -30 -484 -426 -381 -648 83 -178 296 -243 448 -137
54 37 65 62 78 184 14 117 33 175 84 252 87 131 126 274 87 321 -18 21 -223
39 -316 28z m223 -119 c7 -50 -49 -60 -260 -46 -199 13 -76 74 142 70 109 -2
115 -3 118 -24z m-479 -487 c31 -27 117 -49 209 -54 105 -5 120 -21 60 -64
-76 -53 -209 -22 -275 66 -44 57 -40 92 6 52z" fill="#0F0B06"/>
    <path d="M3890 5468 c0 -30 61 -137 102 -179 131 -135 266 -144 376 -25 71 77
55 95 -42 46 -135 -69 -315 -7 -392 135 -18 34 -44 47 -44 23z" fill="#0F0B06"/>
    <path d="M6685 5898 c-3 -35 -5 -108 -3 -163 3 -100 3 -100 33 -103 28 -2 31
1 58 68 39 95 57 94 57 -4 0 -77 13 -106 46 -106 16 0 144 253 144 284 0 13
-7 17 -27 14 -23 -3 -31 -12 -52 -65 -32 -82 -51 -83 -51 -4 0 133 -43 152
-93 41 -44 -97 -60 -93 -56 13 4 82 4 82 -23 85 -25 3 -26 1 -33 -60z" fill="#0F0B06"/>
    <path d="M7061 5843 c-34 -34 -49 -81 -58 -175 -6 -65 -5 -68 25 -97 39 -40
107 -44 146 -8 58 53 80 227 35 273 -42 42 -110 45 -148 7z m99 -38 c30 -36
-12 -206 -53 -213 -47 -9 -57 35 -32 133 23 85 55 116 85 80z" fill="#0F0B06"/>
    <path d="M7306 5812 c-11 -19 -67 -285 -62 -298 5 -12 56 -21 56 -9 0 25 45
205 56 223 17 26 52 29 61 5 4 -9 -3 -64 -15 -122 -29 -138 -28 -141 6 -141
27 0 28 2 57 123 30 122 30 122 60 122 40 0 42 -21 16 -134 -29 -123 -28 -141
7 -141 27 0 28 1 56 134 27 126 28 136 13 160 -18 27 -63 41 -106 31 -22 -5
-35 -1 -50 14 -15 15 -34 21 -65 21 -25 0 -48 5 -51 10 -7 12 -32 13 -39 2z" fill="#0F0B06"/>
    <path d="M7712 5694 c-30 -21 -30 -64 0 -64 12 0 30 8 40 17 23 21 51 8 56
-25 4 -25 -17 -37 -80 -46 -62 -9 -88 -40 -88 -107 0 -56 28 -79 95 -79 19 0
44 -6 55 -12 13 -8 23 -9 29 -3 14 16 63 253 56 276 -16 49 -116 76 -163 43z
m78 -178 c0 -51 -45 -91 -75 -66 -22 18 -18 47 7 64 28 20 68 21 68 2z" fill="#0F0B06"/>
    <path d="M7946 5648 c-12 -36 -56 -256 -56 -275 0 -19 6 -23 28 -23 28 0 29 1
51 108 28 130 56 169 91 127 10 -12 8 -37 -14 -132 -27 -121 -25 -137 15 -131
20 3 25 15 51 128 30 135 30 162 -5 184 -32 20 -156 31 -161 14z" fill="#0F0B06"/>
    <path d="M8974 5086 c-8 -34 2 -46 36 -46 30 0 51 35 35 59 -13 22 -64 13 -71
-13z" fill="#0F0B06"/>
    <path d="M9135 5028 c-2 -7 -5 -24 -7 -38 -2 -16 -11 -26 -28 -30 -32 -8 -38
-39 -11 -59 21 -16 21 -16 1 -131 -32 -184 -24 -210 62 -210 35 0 38 2 38 29
0 20 -6 30 -20 34 -24 6 -24 12 -2 141 17 98 22 107 65 120 24 8 21 39 -5 51
-19 8 -23 18 -23 55 0 43 -1 45 -33 48 -20 2 -34 -2 -37 -10z" fill="#0F0B06"/>
    <path d="M8702 5008 c-69 -35 -116 -222 -78 -313 39 -92 184 -86 216 10 14 42
7 55 -28 55 -21 0 -30 -7 -39 -30 -12 -32 -48 -41 -71 -18 -30 30 -2 197 38
233 27 24 54 10 58 -29 7 -59 82 -60 82 -1 0 75 -104 130 -178 93z" fill="#0F0B06"/>
    <path d="M8955 4968 c-13 -41 -56 -304 -53 -331 3 -32 39 -51 58 -30 12 12 72
343 66 359 -7 17 -65 18 -71 2z" fill="#0F0B06"/>
    <path d="M9284 4907 c-2 -7 2 -75 11 -151 25 -227 18 -271 -43 -278 -45 -5
-44 -53 2 -68 73 -24 81 -13 209 259 100 213 100 211 49 211 -37 0 -37 0 -76
-100 -51 -131 -66 -132 -66 -2 0 72 -4 103 -16 120 -17 24 -62 30 -70 9z" fill="#0F0B06"/>
    <path d="M2780 3636 c0 -28 86 -143 169 -226 164 -163 360 -228 516 -169 77
29 72 45 -17 52 -185 16 -435 145 -593 306 -49 51 -75 63 -75 37z" fill="#0F0B06"/>
    <path d="M9657 3734 c-4 -4 -7 -27 -7 -51 0 -37 -4 -45 -25 -53 -14 -5 -25
-14 -25 -19 0 -23 14 -41 31 -41 18 0 19 -9 19 -143 0 -177 6 -189 83 -185 60
3 82 43 35 63 -36 16 -41 262 -6 267 34 5 37 45 4 58 -21 8 -25 16 -28 57 -3
47 -4 48 -38 51 -20 2 -39 0 -43 -4z" fill="#0F0B06"/>
    <path d="M9074 3640 c-105 -42 -128 -322 -31 -384 87 -56 197 -4 197 94 0 48
-52 44 -77 -7 -23 -47 -55 -55 -78 -19 -26 39 -18 222 10 242 32 23 59 13 71
-26 14 -43 76 -54 82 -14 12 82 -89 148 -174 114z" fill="#0F0B06"/>
    <path d="M9375 3637 c-71 -33 -96 -109 -38 -115 27 -3 34 2 48 27 18 36 53 41
78 13 31 -34 13 -58 -63 -88 -62 -23 -97 -59 -105 -104 -15 -89 53 -153 139
-131 23 6 59 9 81 8 l40 -2 3 156 c3 166 -3 199 -41 223 -34 23 -106 29 -142
13z m105 -236 c0 -74 -50 -122 -90 -86 -28 25 -25 42 14 81 44 44 76 46 76 5z" fill="#0F0B06"/>
    <path d="M7060 9989 c-614 -38 -985 -174 -1281 -469 -240 -239 -360 -512 -399
-908 -52 -516 194 -1044 598 -1282 84 -50 82 -42 38 -162 -125 -345 -305 -678
-496 -918 -110 -139 -97 -141 139 -24 408 203 691 450 983 857 12 17 16 17 90
-2 425 -109 1461 -117 2014 -15 822 151 1281 642 1302 1391 25 911 -415 1388
-1383 1504 -300 35 -1226 52 -1605 28z m1460 -139 c839 -63 1246 -350 1382
-972 32 -147 37 -465 10 -624 -102 -596 -513 -957 -1230 -1079 -553 -94 -1549
-80 -1957 26 -139 37 -124 41 -182 -48 -132 -203 -373 -457 -578 -611 -139
-103 -179 -110 -116 -19 115 169 311 637 328 787 5 45 5 45 -74 83 -665 319
-818 1394 -284 2006 266 306 637 434 1351 465 165 7 1214 -3 1350 -14z" fill="#0F0B06"/>
    <path d="M9015 9454 c-121 -30 -173 -84 -190 -198 -19 -123 39 -206 191 -277
110 -51 144 -83 144 -134 0 -112 -171 -119 -189 -7 -6 37 -6 37 -84 40 -77 3
-77 3 -77 -36 0 -140 90 -216 255 -217 150 0 221 51 246 178 28 138 -27 222
-196 303 -104 49 -129 75 -129 132 0 98 137 106 162 8 15 -56 154 -67 160 -12
10 82 -55 180 -133 203 -49 15 -133 23 -160 17z" fill="#0F0B06"/>
    <path d="M7802 9429 c-76 -38 -112 -107 -112 -213 1 -116 45 -171 190 -239
111 -51 140 -78 140 -132 0 -57 -30 -85 -91 -85 -57 0 -76 14 -92 70 -13 45
-13 45 -87 45 l-75 0 3 -55 c7 -123 103 -200 248 -200 166 0 254 81 254 235 0
127 -42 179 -206 256 -97 45 -128 79 -120 128 15 93 156 101 156 9 0 -40 21
-49 97 -46 l68 3 -3 50 c-4 73 -35 130 -90 162 -65 38 -214 44 -280 12z" fill="#0F0B06"/>
    <path d="M6184 9426 c-3 -7 -4 -38 -2 -67 l3 -54 85 -5 85 -5 5 -330 5 -330
75 0 75 0 5 330 5 330 85 5 85 5 0 65 0 65 -253 3 c-208 2 -253 0 -258 -12z" fill="#0F0B06"/>
    <path d="M6785 9428 c-3 -7 -4 -189 -3 -403 l3 -390 75 0 75 0 5 170 5 170 55
3 c123 7 119 13 122 -176 l3 -167 75 0 75 0 0 400 0 400 -75 0 -75 0 -5 -155
-5 -155 -85 0 -85 0 -5 155 -5 155 -73 3 c-52 2 -74 -1 -77 -10z" fill="#0F0B06"/>
    <path d="M7425 9428 c-3 -7 -4 -189 -3 -403 l3 -390 70 0 70 0 0 400 0 400
-68 3 c-48 2 -69 -1 -72 -10z" fill="#0F0B06"/>
    <path d="M8555 9428 c-3 -7 -4 -189 -3 -403 l3 -390 75 0 75 0 0 400 0 400
-73 3 c-52 2 -74 -1 -77 -10z" fill="#0F0B06"/>
    <path d="M6331 8390 c-147 -31 -191 -130 -191 -425 0 -345 56 -435 269 -435
145 1 202 43 236 178 30 114 23 127 -65 127 l-75 0 -8 -61 c-14 -104 -91 -144
-155 -81 -27 27 -27 27 -30 224 -5 289 7 333 96 333 49 0 66 -19 84 -90 13
-55 13 -55 82 -58 88 -4 91 0 76 86 -27 161 -148 237 -319 202z" fill="#0F0B06"/>
    <path d="M6785 8368 c-3 -7 -4 -195 -3 -418 l3 -405 75 0 75 0 5 160 c5 160 5
160 40 160 35 0 35 0 100 -160 l66 -160 87 -3 c49 -2 87 1 87 7 0 5 -35 86
-77 181 l-77 172 43 35 c65 55 76 82 76 198 0 123 -23 175 -95 215 -43 24 -55
25 -223 28 -140 3 -178 1 -182 -10z m306 -157 c40 -41 42 -114 3 -161 -25 -29
-30 -31 -88 -28 l-61 3 -3 94 c-4 122 -4 121 63 121 49 0 60 -4 86 -29z" fill="#0F0B06"/>
    <path d="M7583 8368 c-5 -7 -15 -40 -22 -73 -7 -33 -49 -213 -93 -399 -46
-200 -75 -343 -70 -348 5 -5 42 -8 83 -6 l74 3 15 70 c21 98 18 95 119 95 101
0 106 -3 116 -75 14 -95 14 -95 105 -95 68 0 80 3 80 17 0 19 -188 802 -196
814 -9 15 -200 11 -211 -3z m121 -244 c17 -67 46 -219 46 -240 0 -23 -3 -24
-60 -24 -72 0 -71 -5 -38 173 21 116 38 146 52 91z" fill="#0F0B06"/>
    <path d="M8095 8368 c-3 -7 -4 -195 -3 -418 l3 -405 80 0 80 0 5 170 5 170
100 5 100 5 0 70 0 70 -100 5 -100 5 0 95 0 95 130 5 130 5 0 65 0 65 -213 3
c-165 2 -214 0 -217 -10z" fill="#0F0B06"/>
    <path d="M8604 8366 c-3 -7 -4 -38 -2 -67 l3 -54 85 -5 85 -5 5 -345 5 -345
75 0 75 0 5 345 5 345 83 3 82 3 0 69 0 70 -250 0 c-203 0 -252 -3 -256 -14z" fill="#0F0B06"/>
    <path d="M9247 8373 c-9 -15 20 -554 30 -564 6 -6 30 -9 54 -7 43 3 44 4 51
43 10 57 29 515 23 526 -7 11 -152 12 -158 2z" fill="#0F0B06"/>
    <path d="M9254 7687 c-3 -8 -4 -43 -2 -78 l3 -64 70 0 70 0 0 75 0 75 -68 3
c-50 2 -69 -1 -73 -11z" fill="#0F0B06"/>
  </g>
    <g transform="translate(0.000000,1024.000000) scale(0.100000,-0.100000)">
    <path d="M0 10050 l0 -190 1298 -2 1297 -3 85 53 c477 301 987 372 1615 228
190 -44 513 -176 626 -257 25 -17 60 -18 705 -19 l679 0 120 35 c287 86 544
109 1225 109 584 1 933 -16 1135 -55 163 -30 265 -53 328 -72 71 -22 82 -22
600 -19 l527 2 0 190 0 190 -5120 0 -5120 0 0 -190z" fill="#B53018"/>
    <path d="M3653 10054 c-3 -8 -4 -132 -1 -275 4 -211 2 -259 -9 -259 -7 0 -13
1 -13 3 0 1 -9 48 -20 105 -15 77 -20 144 -20 269 l0 166 -81 -6 c-45 -4 -88
-12 -95 -18 -21 -17 -14 -294 12 -491 8 -64 -18 -68 -34 -5 -27 107 -52 296
-52 400 0 75 -1 77 -24 77 -28 0 -197 -48 -209 -59 -4 -4 11 -63 32 -132 22
-68 52 -178 67 -244 15 -65 29 -127 32 -137 2 -11 -1 -18 -9 -18 -18 0 -34 40
-109 271 -68 213 -72 219 -107 219 -32 0 -123 -47 -123 -64 0 -7 15 -55 34
-107 19 -52 49 -134 66 -184 18 -49 41 -107 51 -127 23 -45 24 -58 4 -58 -15
0 -100 166 -176 343 -48 113 -46 112 -144 50 -88 -56 -85 -47 -36 -137 21 -39
60 -111 86 -161 26 -49 56 -102 66 -117 23 -31 24 -48 5 -48 -19 0 -111 124
-186 253 -35 59 -68 107 -74 107 -18 -1 -146 -121 -146 -137 0 -16 232 -347
251 -358 14 -9 11 -35 -5 -35 -16 0 -124 121 -221 248 -38 50 -75 92 -82 92
-15 0 -143 -141 -143 -158 0 -8 49 -66 110 -130 60 -65 110 -123 110 -129 0
-29 -35 -8 -147 87 -65 55 -123 100 -130 100 -16 0 -103 -116 -103 -138 0 -15
217 -205 278 -243 23 -14 30 -39 11 -39 -19 0 -131 70 -225 141 -51 38 -98 69
-106 69 -15 0 -98 -136 -98 -160 0 -9 54 -54 120 -100 109 -78 141 -110 107
-110 -17 0 -142 60 -196 94 -65 42 -78 35 -118 -67 -19 -48 -33 -93 -30 -100
2 -7 73 -42 156 -77 134 -58 183 -90 136 -90 -34 0 -164 31 -229 55 -100 36
-99 37 -125 -54 -35 -122 -38 -118 112 -160 159 -45 172 -66 35 -56 -51 3
-118 7 -148 8 l-55 2 -14 -87 c-8 -48 -12 -90 -8 -94 3 -3 41 -11 84 -16 138
-17 143 -18 143 -33 0 -11 -13 -15 -47 -16 -91 -1 -186 -23 -194 -44 -11 -30
-11 -183 1 -190 5 -3 41 -9 80 -12 92 -8 90 -24 -7 -48 l-78 -20 -6 -140 c-17
-363 -113 -610 -313 -805 -55 -53 -54 -48 -14 -105 39 -54 34 -54 116 -6 179
106 310 263 408 489 37 85 60 187 99 435 58 366 98 519 187 715 358 793 1088
1222 1786 1052 54 -13 60 -9 66 43 20 166 29 224 46 312 21 108 55 221 91 304
14 34 18 56 12 62 -16 16 -181 35 -194 22 -25 -25 -76 -317 -86 -496 -5 -91
-8 -107 -22 -105 -34 7 -25 352 15 579 6 36 6 36 -71 42 -111 10 -125 9 -132
-9z" fill="#B53018"/>
    <path d="M4222 9988 c-63 -80 -130 -369 -146 -630 -5 -81 -1 -89 44 -103 14
-4 53 -21 87 -36 81 -38 77 -40 118 43 83 164 281 395 407 473 66 42 62 54
-37 103 -107 53 -99 54 -176 -21 -73 -71 -128 -151 -219 -319 -85 -159 -120
-155 -59 6 38 102 173 312 240 372 39 35 23 46 -136 100 -80 27 -108 29 -123
12z" fill="#B53018"/>
    <path d="M3368 9180 c-401 -84 -788 -377 -998 -757 -81 -145 -185 -389 -214
-499 -31 -118 -30 -114 -11 -114 8 0 15 4 15 9 0 12 143 272 224 409 255 427
601 705 971 779 124 25 362 22 493 -7 57 -12 105 -20 108 -17 16 15 26 149 13
161 -55 51 -425 73 -601 36z" fill="#B53018"/>
    <path d="M4060 9088 c1 -18 6 -60 13 -93 13 -60 13 -60 62 -73 100 -27 93 -29
100 19 17 112 19 107 -70 144 -100 43 -105 43 -105 3z" fill="#B53018"/>
    <path d="M3455 8909 c-268 -34 -492 -153 -701 -371 -132 -139 -294 -370 -294
-420 0 -10 -4 -18 -10 -18 -5 0 -10 -7 -10 -15 0 -8 7 -15 15 -15 8 0 15 4 15
9 0 5 30 38 67 73 37 35 82 78 99 97 40 41 52 38 73 -19 21 -57 42 -61 64 -15
73 152 329 356 481 381 39 7 39 7 32 -62 -4 -38 -9 -86 -13 -106 -7 -48 11
-51 52 -8 111 116 401 204 554 168 63 -14 63 -16 1 -109 -83 -128 -230 -250
-361 -301 -70 -27 -74 -41 -16 -60 65 -22 59 -37 -50 -129 -130 -110 -263
-194 -345 -221 -77 -25 -88 -47 -38 -73 17 -9 30 -22 30 -29 0 -16 -72 -83
-202 -188 -51 -42 -138 -115 -193 -162 -105 -91 -189 -151 -370 -269 -194
-125 -288 -255 -302 -413 -12 -141 30 -173 72 -56 12 34 36 81 51 103 68 98
70 115 9 86 -104 -50 -50 30 70 104 78 48 166 80 302 109 218 47 343 96 506
200 111 69 99 77 -78 55 -147 -18 -155 -18 -155 -1 0 13 85 49 285 121 55 20
116 41 135 46 65 18 330 152 330 167 0 11 -9 13 -37 8 -294 -50 -154 27 371
205 256 86 331 120 440 196 123 85 118 99 -37 97 -266 -3 -464 -79 -774 -295
-295 -205 -369 -218 -180 -31 428 425 898 524 1515 321 72 -24 81 -21 64 24
-61 161 -247 377 -468 542 -263 197 -687 313 -999 274z m718 -248 c180 -63
314 -139 393 -223 106 -112 142 -177 92 -165 -34 8 -133 25 -214 37 -94 13
-142 34 -162 71 -41 74 -133 208 -171 248 -66 70 -59 74 62 32z" fill="#B53018"/>
    <path d="M4290 8517 c0 -38 66 -112 105 -118 22 -4 55 -10 73 -14 75 -17 10
62 -95 114 -69 34 -83 37 -83 18z" fill="#B53018"/>
    <path d="M3676 8494 c-132 -32 -384 -195 -298 -194 9 0 26 7 36 15 11 8 26 15
33 15 22 0 14 -29 -12 -46 -24 -16 -34 -44 -16 -44 46 0 215 103 294 178 96
93 89 107 -37 76z" fill="#B53018"/>
    <path d="M3113 8442 c-129 -86 -264 -236 -294 -329 -39 -116 -19 -122 71 -18
62 70 90 91 90 63 0 -7 -7 -22 -15 -32 -8 -11 -15 -26 -15 -33 0 -51 141 76
188 169 29 57 52 141 52 189 0 27 -28 24 -77 -9z" fill="#B53018"/>
    <path d="M2557 8062 c-94 -115 -166 -294 -167 -414 0 -82 50 -13 121 165 13
32 29 57 37 57 18 0 12 -27 -34 -141 -49 -124 -38 -134 47 -41 78 85 104 158
103 287 -2 173 -23 190 -107 87z" fill="#B53018"/>
    <path d="M3144 8065 c-79 -25 -244 -127 -244 -151 0 -19 7 -18 84 11 76 28 86
30 86 13 0 -7 -45 -33 -100 -58 -116 -51 -132 -75 -42 -65 177 20 462 172 462
246 0 23 -176 26 -246 4z" fill="#B53018"/>
    <path d="M4582 8020 c-13 -11 -22 -27 -20 -37 4 -22 131 -90 278 -149 196 -78
331 -160 393 -239 46 -58 73 -42 43 28 -67 159 -312 324 -588 397 -92 24 -78
24 -106 0z" fill="#B53018"/>
    <path d="M4465 7930 c-26 -42 -256 -169 -405 -223 -52 -19 -123 -44 -157 -56
-35 -13 -84 -42 -114 -68 -28 -24 -111 -84 -183 -133 -210 -141 -356 -300
-396 -427 -29 -95 -64 -155 -122 -212 -55 -54 -155 -111 -193 -111 -66 0 -92
-67 -55 -140 36 -71 29 -93 -30 -88 -62 6 -108 40 -152 113 -42 69 -58 71 -58
5 0 -127 -100 8 -117 158 -7 63 -32 69 -45 12 -30 -128 52 -294 205 -417 135
-109 213 -114 248 -15 22 64 49 25 49 -70 0 -89 -45 -138 -130 -138 l-50 0 0
-107 c0 -295 -114 -588 -298 -766 -97 -93 -248 -187 -349 -217 -61 -19 -56
-40 20 -92 67 -45 201 -147 362 -273 408 -320 792 -492 1198 -535 281 -30 433
75 430 298 -2 166 -76 357 -99 255 -28 -129 -129 -283 -185 -283 -25 0 -25 4
15 107 35 89 76 233 76 263 0 12 -30 30 -97 60 -363 157 -586 359 -737 665
-87 174 -124 295 -91 295 8 0 15 -5 15 -10 0 -30 124 -212 202 -294 258 -276
720 -527 943 -514 184 12 248 82 380 418 135 345 161 410 203 494 204 418 264
678 216 936 -8 47 -18 104 -21 128 -7 51 -30 56 -57 12 -25 -44 -59 -63 -95
-55 -37 8 -81 58 -81 91 0 28 -36 35 -46 9 -12 -31 27 -191 81 -324 67 -168
69 -201 21 -257 -49 -58 -151 -104 -227 -104 -21 0 -41 -4 -44 -10 -13 -21
-35 -10 -35 19 0 39 -40 56 -115 46 -54 -6 -55 -6 -55 18 0 69 91 94 210 56
81 -25 125 -19 177 26 l38 33 -34 93 c-18 52 -48 154 -66 226 -19 73 -44 151
-56 173 -22 39 -22 41 -5 95 42 135 261 295 405 295 l64 0 -6 53 c-15 122
-107 238 -248 312 -97 50 -173 99 -230 146 -48 40 -63 46 -74 29z m-445 -500
c116 -26 207 -77 298 -167 62 -60 90 -66 128 -28 30 31 44 32 44 4 0 -12 -28
-50 -67 -91 -64 -65 -70 -69 -103 -65 -145 22 -133 25 -125 -32 7 -54 -7 -69
-35 -36 -19 23 -35 18 -73 -20 -65 -65 -152 -37 -164 53 -8 60 -21 61 -131 8
-154 -73 -233 -58 -114 22 116 79 219 117 346 127 106 9 110 22 20 66 -115 57
-264 45 -421 -34 -100 -50 -100 -17 1 65 138 111 273 155 396 128z m340 -804
c0 -7 -14 -19 -30 -26 -55 -23 -120 -118 -120 -176 0 -24 -23 -34 -35 -14 -24
39 -85 -32 -170 -198 -45 -87 -67 -113 -82 -99 -7 7 47 146 95 242 65 132 179
247 271 276 42 12 71 10 71 -5z m303 -444 c47 -42 10 -187 -85 -336 -53 -82
-74 -148 -81 -248 -6 -93 -19 -128 -61 -167 -29 -27 -34 -51 -11 -51 63 0 -83
-177 -164 -200 -131 -36 -319 94 -366 254 -27 91 -7 106 37 28 88 -157 253
-218 393 -146 61 31 93 75 44 60 -160 -48 -316 10 -399 149 -32 54 -34 63 -35
149 -1 231 145 436 375 529 34 14 334 -4 353 -21z" fill="#B53018"/>
    <path d="M4080 5569 c0 -78 184 -140 268 -89 61 37 44 55 -56 57 -62 1 -106 8
-143 22 -62 24 -69 25 -69 10z" fill="#B53018"/>
    <path d="M2230 7670 c-85 -170 -114 -299 -96 -424 10 -61 24 -58 68 17 111
186 135 293 102 460 -9 46 -32 30 -74 -53z" fill="#B53018"/>
    <path d="M2730 7666 c-101 -37 -240 -125 -240 -152 0 -20 15 -18 95 12 100 37
105 38 105 22 0 -8 -40 -34 -90 -58 -136 -67 -120 -84 42 -44 107 26 328 164
328 204 0 32 -168 42 -240 16z" fill="#B53018"/>
    <path d="M5154 7448 c16 -93 18 -245 2 -318 -24 -110 -16 -117 51 -47 106 109
107 243 2 362 -40 46 -63 47 -55 3z" fill="#B53018"/>
    <path d="M2456 7329 c-109 -16 -256 -126 -256 -191 0 -25 2 -24 120 34 248
122 299 181 136 157z" fill="#B53018"/>
    <path d="M4855 7235 c-129 -68 -142 -90 -57 -91 64 -1 114 -22 138 -59 23 -35
53 -33 61 5 3 17 10 33 14 36 15 9 10 100 -6 114 -31 26 -97 23 -150 -5z" fill="#B53018"/>
    <path d="M2890 6880 c-30 -11 -76 -19 -102 -19 -38 -1 -48 -5 -48 -17 0 -14 9
-16 63 -12 77 7 167 36 167 54 0 17 -11 17 -80 -6z" fill="#B53018"/>
    <path d="M2236 6515 c-74 -112 -206 -214 -420 -321 -222 -112 -313 -188 -379
-320 -58 -115 -97 -274 -67 -274 6 0 37 7 70 17 60 16 60 16 100 100 65 133
125 187 331 297 176 93 257 173 337 331 32 65 72 167 72 187 0 17 -28 7 -44
-17z" fill="#B53018"/>
    <path d="M2380 6345 c0 -24 -100 -172 -174 -258 -88 -102 -150 -149 -276 -211
-168 -83 -230 -132 -230 -180 0 -24 27 -20 157 23 332 109 476 231 535 455 23
88 25 186 3 186 -8 0 -15 -7 -15 -15z" fill="#B53018"/>
    <path d="M2540 6029 c0 -31 -88 -229 -132 -296 -163 -250 -367 -363 -685 -379
-139 -7 -203 -1 -203 20 0 15 21 23 240 96 233 77 450 191 450 237 0 19 -3 18
-124 -42 -117 -57 -280 -109 -456 -145 -322 -65 -534 -138 -685 -235 -67 -42
-165 -133 -165 -152 0 -17 -3 -18 123 27 175 61 356 83 555 67 232 -18 385
-15 492 12 376 94 600 344 617 689 5 100 4 112 -11 112 -9 0 -16 -5 -16 -11z" fill="#B53018"/>
    <path d="M4834 5629 c9 -46 60 -143 122 -231 123 -176 152 -315 104 -503 -25
-97 -25 -105 0 -105 13 0 31 18 52 50 55 83 80 42 27 -44 -26 -43 -25 -66 4
-66 56 0 125 121 146 255 34 219 -57 401 -281 560 -45 32 -98 72 -116 87 -45
39 -66 37 -58 -3z" fill="#B53018"/>
    <path d="M4716 5394 c-11 -29 -6 -91 15 -196 11 -57 23 -141 26 -187 6 -83 6
-83 69 -113 103 -48 119 -28 112 137 -4 106 -22 148 -126 288 -65 87 -84 101
-96 71z" fill="#B53018"/>
    <path d="M1385 5106 c-99 -15 -118 -19 -217 -47 -86 -25 -87 -42 -5 -56 112
-19 213 -79 363 -214 85 -78 182 -149 201 -149 12 0 15 9 11 43 -8 66 -42 127
-107 192 -68 66 -75 85 -33 85 165 0 360 -313 251 -404 -49 -42 -149 -31 -231
26 -77 53 -75 5 5 -75 84 -86 132 -110 223 -110 129 0 181 45 204 178 57 331
-267 589 -665 531z" fill="#B53018"/>
    <path d="M892 4879 c-327 -58 -579 -356 -776 -920 -35 -102 -73 -215 -82 -252
-10 -37 -22 -67 -26 -67 -4 0 -8 -256 -8 -570 0 -398 3 -570 11 -570 6 0 29
13 52 29 138 93 364 127 543 80 210 -55 358 -149 570 -365 83 -85 157 -154
163 -154 18 0 7 43 -40 157 -180 444 -518 783 -889 892 -122 37 -131 56 -28
65 284 25 615 -188 823 -532 77 -127 95 -112 44 39 -59 175 -144 351 -259 534
-31 50 -83 133 -115 185 -32 52 -92 146 -132 208 -78 121 -83 132 -55 132 71
0 389 -363 532 -605 43 -73 116 -219 135 -267 14 -37 45 -67 45 -44 0 8 -50
243 -59 276 -63 239 -79 288 -173 540 -37 102 -113 275 -168 386 -55 110 -100
205 -100 212 0 46 115 -60 195 -178 89 -134 186 -342 250 -540 10 -30 21 -64
26 -75 4 -11 10 -31 13 -45 59 -289 79 -204 56 231 -17 326 -59 528 -158 762
-25 59 -42 110 -39 113 34 35 141 -120 201 -291 110 -314 152 -671 166 -1390
9 -469 15 -546 57 -697 18 -68 24 -69 117 -37 82 29 80 23 52 136 -14 54 -30
137 -35 183 -6 47 -13 109 -17 138 -9 70 16 73 41 5 90 -248 150 -383 170
-383 12 0 145 53 263 105 72 32 76 44 33 107 -58 86 -134 282 -165 429 -28
129 -66 316 -77 374 -6 33 -14 80 -19 105 -5 25 -23 128 -40 230 -37 220 -70
381 -80 395 -4 6 -10 30 -13 55 -6 46 -54 204 -77 251 -9 19 -22 28 -48 33
-47 7 -47 9 -28 -76 29 -134 82 -502 105 -733 13 -126 23 -493 15 -522 -5 -18
-34 -34 -34 -19 0 2 -11 57 -24 122 -23 113 -54 319 -76 502 -25 205 -33 266
-51 397 -11 77 -29 183 -40 235 -10 52 -19 105 -19 118 0 14 -25 47 -73 95
-65 64 -82 88 -143 212 -78 157 -117 204 -202 242 -65 29 -213 40 -310 22z" fill="#B53018"/>
    <path d="M4530 4829 c0 -6 33 -48 74 -93 91 -99 175 -231 211 -329 15 -40 31
-81 35 -92 23 -52 62 -200 78 -294 l17 -104 55 -14 c30 -8 78 -27 107 -43 29
-17 58 -30 64 -30 32 0 -46 265 -130 446 -23 48 -41 91 -41 95 0 21 29 6 61
-33 124 -151 189 -302 212 -492 12 -100 12 -100 67 -138 91 -63 93 -60 88 87
-5 157 7 162 55 23 33 -97 43 -133 64 -217 6 -25 22 -45 56 -69 47 -34 47 -34
89 -18 24 8 69 22 101 31 68 19 67 12 18 155 -192 567 -331 726 -862 984 -128
63 -374 156 -409 156 -6 0 -10 -5 -10 -11z" fill="#B53018"/>
    <path d="M2180 4720 c0 -47 91 -159 281 -345 668 -654 1160 -794 1582 -450 97
79 105 52 17 -59 -214 -270 -576 -324 -942 -141 -276 139 -498 323 -852 708
-100 108 -111 114 -121 58 -6 -36 0 -50 58 -153 128 -227 226 -407 321 -593
36 -71 70 -137 74 -145 5 -8 17 -31 27 -50 48 -95 130 -231 174 -291 61 -83
72 -97 125 -157 44 -49 73 -77 162 -152 48 -40 136 -90 158 -90 24 0 216 189
371 365 39 44 124 141 190 215 66 74 135 155 154 180 58 76 123 140 186 182
90 61 103 76 145 163 110 228 113 407 9 623 -45 93 -75 112 -62 40 18 -100 9
-330 -15 -388 -151 -377 -889 -284 -1616 206 -16 10 -36 24 -45 29 -41 26 -76
50 -81 56 -3 3 -32 24 -65 46 -33 23 -94 66 -135 97 -73 55 -100 67 -100 46z
m655 -1092 c180 -186 414 -309 633 -334 104 -11 65 -57 -65 -75 -211 -30 -438
106 -602 361 -93 143 -78 164 34 48z" fill="#B53018"/>
    <path d="M4410 4663 c0 -5 9 -37 21 -73 70 -225 63 -455 -21 -626 -47 -95 -51
-92 98 -68 53 9 140 19 192 22 95 7 95 7 98 41 2 18 -1 38 -7 44 -6 6 -11 21
-11 33 0 65 -114 341 -184 447 -70 105 -187 218 -186 180z" fill="#B53018"/>
    <path d="M1998 4306 c-87 -27 -85 -25 -53 -97 27 -61 71 -206 101 -329 30
-129 34 -147 59 -280 14 -74 32 -164 40 -200 8 -36 32 -164 55 -285 73 -394
80 -428 122 -592 26 -102 46 -163 54 -163 24 0 325 151 331 165 3 9 -11 34
-33 60 -121 141 -184 254 -255 455 -49 139 -99 315 -99 347 0 44 26 23 54 -44
122 -287 280 -550 422 -701 l53 -57 43 24 c97 54 208 134 208 149 0 10 -31 36
-73 62 -225 140 -466 475 -627 870 -46 114 -61 146 -172 380 -100 211 -128
260 -147 259 -9 -1 -46 -11 -83 -23z" fill="#B53018"/>
    <path d="M4565 3785 c-395 -36 -355 -9 -775 -525 -137 -168 -414 -456 -514
-534 -68 -54 -298 -206 -311 -206 -2 0 -48 -26 -102 -57 -85 -49 -265 -139
-428 -213 -462 -211 -751 -316 -985 -359 -36 -7 -85 -16 -110 -21 -25 -5 -83
-14 -130 -20 -192 -26 -282 -63 -439 -180 -239 -179 -397 -464 -495 -898 -71
-312 -50 -395 117 -450 408 -134 1148 98 1762 553 311 230 823 655 1100 914
39 36 119 110 178 164 109 100 117 114 95 162 -16 35 -5 40 44 22 191 -73 439
28 620 252 41 52 70 97 74 118 7 35 7 35 135 31 111 -3 131 -6 156 -24 52 -39
43 -51 -44 -58 -134 -11 -149 -15 -163 -42 -52 -96 216 -61 331 43 135 122
106 207 -114 339 -113 69 -186 124 -187 142 0 19 14 16 165 -34 147 -49 213
-85 280 -153 48 -51 54 -51 98 -1 145 159 97 257 -171 351 -234 82 -405 191
-275 176 47 -6 76 -13 288 -75 183 -53 268 -109 335 -220 30 -50 44 -52 66
-10 25 49 14 113 -40 223 -68 139 -149 207 -271 229 -219 40 -465 121 -465
154 0 17 67 12 253 -20 117 -20 269 -21 326 -3 22 7 23 6 16 -23 -6 -31 -6
-31 112 -87 65 -32 138 -65 163 -75 25 -10 77 -33 115 -51 186 -89 383 -22
228 77 -32 21 -141 92 -243 159 -389 255 -367 245 -525 243 -71 0 -193 -7
-270 -13z" fill="#B53018"/>
    <path d="M5797 3418 c-38 -10 -38 -10 -31 -67 10 -97 -40 -148 -171 -175 -71
-15 -75 -26 -54 -138 15 -83 27 -86 89 -23 84 86 246 122 369 81 77 -25 78
-21 24 79 -20 37 -53 109 -73 159 -41 101 -57 110 -153 84z" fill="#B53018"/>
    <path d="M5240 3223 c0 -10 10 -34 22 -53 25 -40 41 -260 19 -260 -6 0 -28
-18 -48 -41 -44 -49 -66 -61 -118 -68 -34 -5 -42 -11 -50 -37 -19 -58 -68
-123 -132 -174 -35 -28 -75 -70 -90 -93 -100 -155 -218 -233 -372 -246 l-66
-6 -26 -133 c-87 -428 -274 -777 -598 -1114 -148 -154 -149 -175 -3 -89 87 52
105 66 230 172 174 148 355 391 523 701 104 192 126 182 70 -34 -62 -236 -247
-602 -400 -788 -23 -29 -27 -50 -8 -50 26 0 205 160 298 266 174 199 358 461
432 615 81 170 75 -18 -7 -233 -22 -58 -78 -181 -162 -354 -136 -281 203 128
359 434 198 387 255 663 202 982 -24 146 -30 290 -12 290 9 0 26 -29 45 -77
134 -338 144 -665 32 -970 -32 -85 -226 -464 -242 -471 -14 -6 -8 -32 7 -32 8
0 15 6 15 14 0 8 6 16 13 19 16 6 159 206 208 292 174 300 211 640 110 1000
-5 17 -14 57 -21 90 -7 33 -19 89 -28 125 -9 36 -18 111 -21 168 l-6 103 -80
34 c-92 40 -95 41 -95 18z" fill="#B53018"/>
    <path d="M5761 2983 c-213 -75 -162 -393 62 -393 89 0 150 25 208 87 51 54 51
54 44 156 -9 122 -4 113 -72 143 -64 29 -172 32 -242 7z" fill="#B53018"/>
    <path d="M6216 2764 c-38 -98 105 -260 198 -224 26 9 27 12 24 72 -3 63 -3 63
-63 93 -33 16 -74 40 -92 53 -37 26 -59 28 -67 6z" fill="#B53018"/>
    <path d="M9010 2664 c-62 -58 -135 -164 -194 -281 -52 -105 -54 -113 -26 -113
36 0 21 -27 -25 -44 -64 -25 -137 -126 -213 -296 -38 -86 -49 -115 -61 -167
-21 -84 -51 -67 -51 28 0 62 -1 62 -159 -1 -154 -61 -187 -84 -235 -160 -47
-73 -66 -78 -66 -15 0 51 -3 54 -107 88 -99 32 -303 31 -383 -1 -81 -33 -100
-17 -37 30 117 90 269 110 462 63 124 -31 115 -31 172 4 27 15 82 41 123 56
125 45 130 47 189 85 66 43 108 109 97 153 -10 42 -33 33 -101 -41 -35 -37
-85 -80 -113 -95 -289 -157 -533 -71 -508 181 8 72 2 76 -67 41 -113 -58 -230
-158 -296 -254 -50 -73 -186 -296 -210 -346 -8 -16 -21 -29 -28 -29 -16 0 -12
38 13 129 19 69 20 68 -74 32 -44 -17 -129 -42 -188 -56 -401 -97 -565 -333
-654 -940 -6 -44 -12 -136 -13 -205 l-2 -125 154 -3 c302 -5 477 77 765 357
131 129 336 362 336 383 0 7 -21 27 -45 43 -70 47 -132 145 -92 145 7 0 21 -6
32 -14 24 -16 118 -49 193 -67 161 -39 585 76 797 216 226 150 409 434 610
945 32 80 73 175 91 212 45 89 45 108 -1 108 -29 0 -46 -9 -85 -46z" fill="#B53018"/>
    <path d="M9251 2642 c-40 -20 -96 -121 -157 -287 -109 -297 -230 -540 -341
-687 -68 -90 -56 -100 46 -40 169 98 280 272 431 672 82 217 91 238 122 285
17 25 27 52 24 60 -8 21 -81 19 -125 -3z" fill="#B53018"/>
    <path d="M6089 2574 c-72 -77 -248 -115 -363 -79 -69 22 -72 20 -57 -51 23
-116 11 -368 -24 -506 -17 -69 28 -17 119 135 126 210 276 386 276 324 0 -7
-4 -17 -9 -22 -5 -6 -31 -55 -58 -110 -161 -323 -316 -707 -350 -865 -3 -14
-9 -29 -13 -35 -18 -23 -22 -95 -7 -95 9 0 19 10 22 23 9 28 24 62 102 226
187 395 388 597 643 645 l65 12 -4 115 c-4 135 0 125 -53 131 -86 10 -156 57
-217 146 -27 39 -40 40 -72 6z" fill="#B53018"/>
    <path d="M9460 2537 c-46 -30 -61 -59 -139 -264 -38 -98 -82 -209 -100 -247
-35 -76 -37 -86 -18 -86 16 0 81 99 157 240 115 212 132 242 161 290 52 85 19
122 -61 67z" fill="#B53018"/>
    <path d="M296 2494 c-77 -17 -181 -66 -240 -113 -21 -17 -43 -31 -47 -31 -5 0
-9 -70 -9 -155 0 -150 4 -171 29 -141 18 22 169 120 236 154 189 95 377 111
652 56 88 -17 83 -17 83 1 0 20 -118 106 -210 153 -150 77 -352 108 -494 76z" fill="#B53018"/>
    <path d="M8024 2306 c-73 -23 -103 -48 -131 -105 -51 -109 -12 -206 81 -199
61 4 62 36 2 92 -66 60 -59 83 15 52 41 -17 84 -61 98 -98 22 -60 150 -6 232
97 60 75 60 79 -3 111 -123 62 -208 77 -294 50z" fill="#B53018"/>
    <path d="M4175 2199 c-108 -95 -263 -172 -389 -194 -49 -8 -96 -21 -105 -27
-41 -31 -330 -306 -581 -553 -118 -116 -269 -258 -335 -315 -113 -97 -142
-130 -115 -130 18 0 144 42 155 51 5 5 15 9 23 9 28 0 198 87 301 154 187 121
417 310 559 460 75 78 104 88 71 23 -96 -186 -257 -397 -417 -546 -109 -102
-241 -211 -254 -211 -5 0 -8 -7 -8 -15 0 -8 5 -15 10 -15 22 0 170 62 170 71
0 5 7 9 15 9 49 0 278 158 408 281 210 198 440 509 517 699 12 30 30 73 40 95
25 59 52 168 48 195 -5 42 -30 33 -113 -41z" fill="#B53018"/>
    <path d="M500 2119 c-153 -34 -289 -105 -425 -221 l-74 -63 0 -242 c-1 -236 5
-279 28 -212 53 152 224 378 348 461 182 123 257 142 556 141 272 0 284 11
102 87 -16 7 -38 16 -48 21 -93 48 -333 62 -487 28z" fill="#B53018"/>
    <path d="M6399 2060 c-194 -58 -444 -351 -544 -635 -9 -27 -21 -59 -26 -70
-16 -38 -49 -148 -49 -165 0 -9 -4 -20 -9 -25 -5 -6 -16 -39 -24 -75 -9 -36
-22 -92 -30 -125 -29 -122 -57 -356 -57 -472 0 -104 20 -78 74 95 27 86 54
173 61 192 7 19 34 98 60 175 152 452 249 635 427 801 108 100 242 164 347
164 46 0 39 24 -14 44 -24 10 -67 37 -94 62 -50 45 -70 50 -122 34z" fill="#B53018"/>
    <path d="M642 1819 c-91 -15 -239 -103 -307 -181 -106 -123 -315 -587 -315
-700 0 -10 -4 -18 -10 -18 -6 0 -10 -95 -10 -265 0 -170 4 -265 10 -265 6 0
10 16 10 35 0 19 4 43 9 53 5 9 19 55 31 102 30 118 99 349 115 385 7 17 21
53 30 80 84 251 283 551 465 700 99 81 95 94 -28 74z" fill="#B53018"/>
    <path d="M6555 1782 c-110 -33 -219 -116 -307 -232 -96 -127 -228 -514 -287
-840 -37 -210 -51 -314 -42 -323 4 -4 41 -7 82 -5 85 3 75 -13 103 178 20 131
115 518 154 625 98 269 243 428 477 522 44 18 81 39 83 47 8 37 -170 56 -263
28z" fill="#B53018"/>
    <path d="M5142 763 c-25 -136 -38 -232 -46 -320 l-6 -63 54 0 55 0 -3 133 c-2
72 -4 185 -5 250 -1 90 -4 117 -14 117 -10 0 -20 -37 -35 -117z" fill="#B53018"/>
    <path d="M4590 643 c-44 -15 -61 -19 -185 -43 -230 -45 -544 -60 -1247 -60
-552 0 -628 -2 -628 -15 0 -8 3 -15 8 -15 4 0 70 -11 147 -24 589 -103 1366
-111 1590 -17 11 5 40 15 65 22 25 7 50 15 55 19 6 4 30 12 55 20 66 19 220
101 220 117 0 16 -22 15 -80 -4z" fill="#B53018"/>
    <path d="M4765 519 c-16 -10 -64 -33 -105 -50 -41 -16 -84 -34 -95 -39 -56
-26 -314 -91 -415 -105 -273 -38 -372 -46 -660 -51 -325 -7 -594 6 -1010 46
-257 24 -250 24 -250 8 0 -18 87 -42 324 -89 293 -59 523 -79 916 -80 173 0
322 2 330 5 8 3 66 10 128 16 384 37 633 125 856 304 58 47 43 75 -19 35z" fill="#B53018"/>
    <path d="M7157 461 c-36 -65 -35 -81 3 -81 35 0 50 27 50 91 0 54 -21 50 -53
-10z" fill="#B53018"/>
  </g>
    <g transform="translate(0.000000,1024.000000) scale(0.100000,-0.100000)">
    <path d="M7285 9863 c-765 -16 -1138 -129 -1434 -438 -415 -433 -472 -1190
-128 -1695 88 -128 280 -293 400 -345 79 -33 78 -27 32 -178 -67 -223 -194
-513 -290 -663 -61 -95 -36 -100 74 -17 246 184 465 413 608 636 49 76 52 77
152 47 219 -65 474 -85 1081 -85 511 0 589 4 855 46 741 117 1149 458 1272
1064 28 139 25 470 -5 623 -122 611 -530 918 -1307 982 -316 25 -796 34 -1310
23z m778 -431 c57 -25 95 -75 109 -144 18 -84 12 -89 -79 -86 -78 3 -78 3 -84
42 -17 103 -149 88 -149 -16 0 -50 18 -67 134 -123 161 -79 215 -165 187 -302
-26 -131 -92 -178 -251 -178 -175 0 -260 71 -260 216 0 40 18 49 100 49 58 0
70 -8 70 -47 0 -49 37 -83 90 -83 75 0 117 78 74 138 -9 13 -62 45 -118 72
-190 91 -252 224 -175 373 55 106 220 147 352 89z m1123 3 c79 -33 129 -111
122 -191 -3 -39 -3 -39 -77 -39 -75 0 -75 0 -84 35 -18 71 -104 101 -141 48
-48 -68 -12 -120 129 -191 137 -69 185 -131 185 -240 0 -145 -77 -225 -226
-235 -175 -11 -281 67 -287 213 l-2 50 80 0 c78 0 80 -1 83 -25 11 -91 89
-132 155 -80 72 57 39 126 -88 185 -124 58 -159 85 -191 151 -47 96 -19 240
57 296 67 50 196 60 285 23z m-2491 -65 l0 -75 -85 -5 -85 -5 -3 -328 -2 -328
-78 3 -77 3 -5 325 -5 325 -85 5 -85 5 -3 64 c-5 99 -27 92 260 89 l253 -3 0
-75z m245 -85 l5 -160 85 0 85 0 5 160 5 160 80 0 80 0 0 -405 0 -405 -80 0
-80 0 -5 165 -5 165 -85 0 -85 0 -5 -165 -5 -165 -77 -3 -78 -3 0 404 c0 222
3 407 7 411 4 4 39 5 78 4 l70 -3 5 -160z m635 -245 l0 -405 -80 0 -80 0 -3
395 c-1 217 0 401 3 408 3 9 26 12 82 10 l78 -3 0 -405z m1130 0 l0 -405 -75
0 -75 0 -3 395 c-1 217 0 401 3 408 3 9 25 12 77 10 l73 -3 0 -405z m-2168
-664 c68 -35 131 -159 121 -241 -3 -30 -3 -30 -83 -30 l-80 0 -7 50 c-12 89
-82 122 -138 67 -37 -37 -43 -91 -38 -316 4 -208 12 -229 90 -234 58 -4 75 16
91 104 l13 69 75 0 74 0 -1 -77 c-3 -192 -147 -291 -342 -233 -138 41 -166
107 -170 402 -5 318 23 396 164 449 50 19 188 13 231 -10z m630 -11 c90 -37
127 -113 121 -250 -4 -93 -27 -149 -76 -180 -43 -27 -42 -32 38 -213 90 -205
91 -193 -17 -190 l-86 3 -68 165 c-67 165 -67 165 -101 165 -33 0 -33 0 -36
-168 l-2 -168 -78 3 -77 3 -3 429 -2 429 172 -5 c134 -4 183 -9 215 -23z m632
3 c23 -57 201 -822 193 -830 -5 -5 -44 -8 -88 -6 -89 3 -77 -9 -106 118 l-13
55 -95 0 -95 0 -13 -55 c-29 -127 -17 -115 -110 -118 -102 -4 -99 -26 -28 275
30 125 71 302 91 393 21 91 42 171 47 178 7 8 42 12 109 12 94 0 100 -1 108
-22z m736 -58 l0 -75 -135 -5 -135 -5 0 -90 0 -90 100 -5 100 -5 0 -70 0 -70
-100 -5 -100 -5 -5 -175 -5 -175 -80 0 -80 0 -3 415 c-1 228 0 421 3 428 3 10
53 12 222 10 l218 -3 0 -75z m580 0 l0 -75 -85 -5 -85 -5 -5 -345 -5 -345 -80
0 -80 0 -3 347 -2 347 -88 3 -87 3 -3 64 c-5 99 -27 92 265 89 l258 -3 0 -75z
m294 3 c-1 -43 -6 -175 -12 -293 l-12 -215 -60 0 -60 0 -13 278 c-8 153 -11
285 -8 293 4 10 25 14 86 14 l80 0 -1 -77z m-14 -693 l0 -85 -70 0 -70 0 -3
74 c-4 103 -5 102 75 99 l68 -3 0 -85z" fill="#E1BD85"/>
    <path d="M6945 8135 c-8 -114 -8 -115 60 -115 79 0 110 29 110 102 0 86 -20
108 -99 108 l-64 0 -7 -95z" fill="#E1BD85"/>
    <path d="M7652 8017 c-32 -164 -34 -157 38 -157 70 0 67 -9 40 126 -29 142
-29 144 -43 144 -8 0 -21 -40 -35 -113z" fill="#E1BD85"/>
    <path d="M0 6990 c0 -1578 3 -2870 8 -2870 4 0 20 33 36 73 97 239 226 448
356 577 74 73 88 93 99 135 68 269 287 493 600 610 l86 33 17 89 c62 334 206
507 577 692 112 57 122 64 116 84 -4 12 -9 66 -12 120 -3 53 -9 97 -14 97 -4
0 -36 -20 -71 -44 -128 -89 -380 -216 -428 -216 -10 0 -26 12 -36 28 -9 15
-43 59 -74 97 -74 92 -130 176 -130 196 0 9 37 49 82 90 132 120 209 238 262
408 38 121 46 192 56 526 9 311 21 419 67 625 117 524 463 1081 885 1423 49
39 88 77 88 84 0 11 -236 13 -1285 13 l-1285 0 0 -2870z" fill="#E1BD85"/>
    <path d="M4980 9848 c0 -7 14 -22 30 -33 43 -29 38 -38 -42 -86 -352 -207
-527 -430 -599 -762 -23 -104 -27 -95 64 -153 288 -186 515 -448 652 -750 36
-81 51 -101 124 -170 259 -244 317 -509 173 -789 -44 -85 -153 -198 -234 -245
-74 -41 -72 -36 -53 -124 39 -190 -12 -441 -146 -726 -74 -155 -57 -194 161
-365 198 -156 284 -275 315 -440 31 -162 2 -359 -70 -467 -38 -57 -33 -68 54
-137 257 -202 399 -435 541 -894 47 -147 61 -164 79 -91 64 255 335 429 581
373 111 -25 100 -35 100 86 0 175 46 291 161 406 90 90 240 158 352 159 33 0
33 5 5 67 -17 39 -22 68 -22 152 l-1 104 -95 32 c-488 165 -729 504 -630 889
57 223 255 416 500 486 485 140 1178 -186 1309 -614 103 -337 -78 -675 -422
-790 -131 -44 -334 -56 -498 -30 -46 8 -59 -14 -59 -99 0 -111 57 -185 163
-210 227 -55 354 -191 365 -391 l5 -93 96 -7 c53 -3 110 -9 128 -12 30 -6 33
-3 57 44 38 75 140 206 207 264 68 60 69 64 30 149 -100 222 -46 471 145 664
381 384 1148 190 1300 -330 63 -218 -23 -479 -206 -620 -324 -249 -765 -227
-1071 53 -31 29 -61 52 -67 52 -24 0 -199 -199 -232 -264 l-35 -68 30 -22
c173 -124 264 -284 265 -463 l0 -53 70 -2 c39 -1 78 -2 87 -2 12 -1 20 14 30
58 40 178 176 337 369 432 456 223 967 44 1060 -372 68 -308 -170 -658 -511
-750 -92 -25 -333 -31 -415 -10 -238 60 -440 251 -491 461 -6 28 -15 54 -19
58 -7 8 -145 36 -177 37 -7 0 -26 -30 -44 -66 -20 -43 -57 -93 -104 -143 -60
-63 -74 -84 -80 -120 -4 -24 -14 -59 -21 -77 -22 -52 -18 -61 41 -88 191 -87
299 -351 250 -610 -18 -94 -18 -94 4 -125 12 -17 28 -31 34 -31 17 0 95 125
156 247 162 326 324 450 476 364 45 -26 60 -29 106 -25 68 7 133 -24 168 -78
22 -34 29 -38 65 -38 103 0 145 -99 83 -197 -13 -21 -57 -99 -97 -173 -198
-370 -336 -536 -520 -630 -21 -11 -73 -45 -116 -76 -92 -65 -163 -103 -287
-151 -49 -19 -153 -68 -231 -108 -190 -100 -433 -177 -628 -200 -73 -8 -110
-40 -255 -218 l-108 -132 -11 -125 c-7 -69 -15 -155 -19 -192 l-7 -68 1446 0
1446 0 0 4740 0 4740 -505 0 c-442 0 -505 -2 -505 -15 0 -8 6 -15 13 -15 29 0
259 -123 333 -177 314 -234 477 -618 477 -1128 0 -815 -467 -1318 -1368 -1474
-482 -83 -1456 -78 -1875 10 -172 36 -160 38 -202 -28 -203 -318 -587 -640
-998 -837 -180 -87 -198 -74 -89 61 188 235 358 549 489 904 42 114 41 121
-26 160 -611 349 -803 1300 -397 1971 126 209 376 425 603 521 109 46 95 47
-580 47 -497 0 -630 -3 -630 -12z" fill="#E1BD85"/>
    <path d="M7073 6280 c-390 -70 -612 -456 -453 -785 181 -374 921 -589 1315
-382 205 108 317 352 260 570 -65 251 -346 479 -710 577 -91 25 -323 36 -412
20z m-338 -324 c16 -11 17 -22 12 -85 -9 -93 10 -96 48 -5 26 62 29 65 59 62
31 -3 31 -3 34 -80 4 -98 21 -103 54 -15 20 53 28 62 48 62 21 0 26 -6 28 -32
4 -38 14 -41 42 -13 24 24 88 27 129 5 98 -50 34 -325 -75 -325 -37 0 -91 26
-103 48 -15 29 -13 140 4 187 18 49 18 55 2 55 -7 0 -37 -52 -66 -115 -44 -95
-57 -115 -75 -115 -37 0 -46 20 -46 97 0 94 -18 97 -56 8 -27 -62 -31 -66 -59
-63 -30 3 -30 3 -33 158 -3 189 1 204 53 166z m620 -146 c3 -5 23 -10 44 -10
23 0 48 -8 62 -19 19 -15 34 -18 69 -14 37 4 50 1 74 -18 34 -27 33 -67 -7
-224 -23 -94 -35 -108 -71 -82 -18 13 -17 17 9 130 29 124 28 147 -4 147 -28
0 -32 -9 -66 -139 -31 -120 -42 -135 -78 -109 -17 13 -16 19 9 130 28 121 27
148 -4 148 -30 0 -38 -17 -64 -135 -24 -110 -24 -110 -56 -113 -41 -4 -41 5
-2 178 17 73 30 134 30 136 0 9 49 3 55 -6z m474 -110 c56 -28 62 -57 37 -159
-8 -31 -20 -82 -26 -113 -10 -51 -14 -58 -35 -58 -13 0 -27 5 -30 10 -3 6 -26
10 -51 10 -34 0 -51 6 -69 25 -58 57 -6 165 79 165 46 0 78 18 74 42 -4 29
-34 35 -58 13 -26 -24 -54 -15 -58 16 -7 58 68 85 137 49z m166 -40 c3 -5 27
-10 52 -10 97 0 106 -32 65 -215 -28 -125 -38 -140 -76 -112 -18 13 -17 17 8
131 28 126 28 136 -10 136 -29 0 -37 -16 -59 -125 -24 -117 -23 -115 -55 -115
-42 0 -43 5 -7 169 29 139 34 151 54 151 12 0 25 -4 28 -10z" fill="#E1BD85"/>
    <path d="M7094 5773 c-25 -59 -30 -155 -9 -173 37 -31 75 38 78 145 2 59 1 60
-26 63 -24 3 -30 -2 -43 -35z" fill="#E1BD85"/>
    <path d="M7724 5507 c-32 -28 -27 -57 9 -57 29 0 43 14 52 53 9 35 -22 37 -61
4z" fill="#E1BD85"/>
    <path d="M4303 6095 c-73 -16 -83 -21 -83 -41 0 -12 26 -14 168 -12 167 3 167
3 170 29 3 22 -2 27 -29 33 -50 10 -159 6 -226 -9z" fill="#E1BD85"/>
    <path d="M8935 5334 c-11 -2 -45 -9 -75 -15 -238 -47 -440 -276 -440 -501 0
-354 427 -652 820 -574 564 113 646 751 130 1009 -134 67 -324 103 -435 81z
m93 -220 c17 -5 22 -14 22 -40 0 -39 -11 -48 -50 -39 -33 7 -43 48 -18 73 14
14 15 14 46 6z m182 -123 c0 -41 4 -51 20 -56 31 -10 27 -55 -4 -55 -14 0 -28
-4 -31 -10 -4 -7 -44 -219 -45 -238 0 -1 12 -7 26 -12 20 -8 25 -16 22 -38 -4
-32 -30 -39 -84 -22 -52 17 -56 40 -34 172 24 136 25 164 5 172 -24 9 -18 45
9 55 24 10 36 30 36 62 0 16 7 19 40 19 40 0 40 0 40 -49z m-380 14 c37 -19
50 -43 50 -95 0 -41 0 -41 -37 -38 -35 3 -38 6 -43 38 -8 58 -54 56 -81 -4
-25 -58 -37 -170 -19 -191 20 -24 49 -18 68 15 14 24 24 30 51 30 33 0 34 0
28 -37 -18 -110 -161 -133 -224 -36 -39 59 -8 240 52 300 38 38 102 45 155 18z
m188 -25 c18 0 15 -35 -18 -212 -16 -88 -30 -162 -30 -165 0 -2 -17 -3 -37 -1
-47 4 -47 23 -8 230 32 167 30 162 58 154 12 -3 28 -6 35 -6z m349 -135 c6
-157 24 -173 67 -60 38 100 44 107 84 99 46 -9 44 -18 -66 -246 -110 -226
-123 -244 -179 -235 -69 12 -88 77 -23 77 61 0 66 28 47 224 -24 235 -26 218
26 214 42 -3 42 -3 44 -73z" fill="#E1BD85"/>
    <path d="M7172 4525 c-307 -69 -451 -380 -308 -663 50 -100 53 -101 137 -63
41 19 76 36 78 38 3 2 -6 24 -20 51 -37 73 -35 188 6 261 108 196 393 247 609
111 71 -46 81 -36 51 51 -59 168 -318 268 -553 214z" fill="#E1BD85"/>
    <path d="M7315 4216 c-179 -57 -237 -209 -128 -336 54 -63 79 -57 172 38 77
78 168 139 254 170 61 22 60 40 -5 79 -90 54 -212 75 -293 49z" fill="#E1BD85"/>
    <path d="M7847 4023 c-4 -3 -7 -23 -7 -44 0 -57 -35 -141 -88 -210 -26 -34
-51 -68 -57 -75 -11 -15 49 -73 75 -73 40 1 280 327 280 380 0 25 -181 45
-203 22z" fill="#E1BD85"/>
    <path d="M7637 3986 c-83 -35 -227 -141 -227 -169 0 -11 106 -53 161 -64 48
-9 143 120 156 212 7 54 -2 57 -90 21z" fill="#E1BD85"/>
    <path d="M9320 3995 c-281 -51 -506 -239 -540 -452 -33 -205 142 -456 376
-538 93 -33 281 -35 398 -5 303 77 501 355 445 622 -56 262 -363 432 -679 373z
m420 -305 c4 -37 9 -46 28 -48 18 -3 22 -10 22 -37 0 -27 -4 -34 -22 -37 -22
-3 -23 -6 -23 -128 0 -122 1 -125 23 -128 19 -3 22 -10 22 -44 0 -40 0 -40
-56 -36 -81 7 -84 13 -84 185 0 143 0 143 -25 153 -18 7 -25 17 -25 35 0 18 7
28 25 35 21 8 25 16 25 48 0 48 6 54 50 50 34 -3 35 -5 40 -48z m-523 -73 c42
-42 40 -111 -4 -115 -29 -3 -34 1 -47 33 -19 45 -42 54 -69 26 -26 -25 -37
-174 -18 -224 17 -44 69 -35 85 13 22 71 99 43 78 -28 -39 -129 -217 -120
-253 13 -15 55 -6 202 15 243 39 75 156 97 213 39z m288 19 c51 -22 55 -37 55
-230 0 -176 0 -176 -28 -176 -15 0 -33 5 -40 12 -9 9 -18 9 -37 0 -88 -40
-171 19 -163 115 6 66 27 90 105 119 62 22 73 32 73 58 0 53 -64 65 -81 16
-12 -34 -74 -45 -85 -15 -29 75 103 142 201 101z" fill="#E1BD85"/>
    <path d="M9406 3399 c-39 -31 -34 -83 9 -87 37 -5 55 19 55 70 0 45 -21 51
-64 17z" fill="#E1BD85"/>
    <path d="M8099 3873 c-23 -43 -55 -97 -70 -120 -39 -57 -37 -68 16 -83 128
-36 235 -172 235 -297 0 -87 71 5 91 118 30 171 -5 285 -123 394 -91 84 -96
83 -149 -12z" fill="#E1BD85"/>
    <path d="M6405 3877 c-166 -55 -268 -177 -291 -346 -7 -51 -7 -51 29 -66 53
-22 63 -19 98 30 42 58 119 111 198 136 81 25 124 24 227 -3 l85 -22 41 41
c49 49 47 66 -11 134 -79 91 -255 136 -376 96z" fill="#E1BD85"/>
    <path d="M7083 3718 c-76 -25 -77 -33 -14 -76 61 -42 77 -39 108 21 42 80 19
93 -94 55z" fill="#E1BD85"/>
    <path d="M7291 3656 c-17 -29 -31 -61 -31 -71 0 -44 211 26 218 71 3 18 -6 24
-56 38 -90 25 -96 23 -131 -38z" fill="#E1BD85"/>
    <path d="M6877 3582 c-33 -35 -33 -37 1 -81 15 -19 41 -60 57 -91 30 -55 30
-55 94 -53 77 2 77 2 85 80 7 62 7 62 -61 97 -37 19 -81 44 -98 55 -39 27 -46
26 -78 -7z" fill="#E1BD85"/>
    <path d="M7537 3556 c-75 -53 -143 -78 -232 -85 -80 -6 -80 -6 -83 -54 -2 -32
1 -48 10 -51 27 -8 154 -39 180 -43 24 -5 43 9 142 103 125 118 128 124 91
148 -35 23 -54 20 -108 -18z" fill="#E1BD85"/>
    <path d="M7871 3551 c-35 -29 -35 -29 -9 -87 32 -75 47 -138 56 -239 l7 -80
50 2 c34 2 74 15 125 40 l75 38 -1 95 c-1 135 -34 194 -134 239 -66 30 -127
27 -169 -8z" fill="#E1BD85"/>
    <path d="M6470 3531 c-71 -22 -174 -107 -168 -139 4 -24 171 -182 191 -182 47
0 80 37 99 111 10 40 31 96 48 125 16 30 30 58 30 63 0 25 -138 41 -200 22z" fill="#E1BD85"/>
    <path d="M6736 3408 c-36 -62 -43 -98 -20 -98 22 0 124 26 131 34 15 15 -47
106 -72 106 -8 0 -25 -19 -39 -42z" fill="#E1BD85"/>
    <path d="M7642 3364 c-93 -86 -100 -105 -44 -133 63 -32 185 -72 200 -66 40
15 -13 275 -57 275 -9 0 -53 -34 -99 -76z" fill="#E1BD85"/>
    <path d="M6212 3208 c-26 -75 -27 -90 -6 -151 21 -62 36 -60 112 9 85 76 81
98 -32 182 -42 32 -50 28 -74 -40z" fill="#E1BD85"/>
    <path d="M7024 3252 c-7 -4 -13 -62 -17 -144 -6 -129 -5 -138 12 -138 46 0
181 78 181 105 0 7 -19 52 -41 99 -41 86 -41 86 -83 86 -22 0 -46 -4 -52 -8z" fill="#E1BD85"/>
    <path d="M7240 3239 c0 -23 44 -89 60 -89 16 0 60 50 60 68 0 10 -67 32 -99
32 -11 0 -21 -5 -21 -11z" fill="#E1BD85"/>
    <path d="M6815 3225 c-123 -34 -130 -38 -133 -83 -7 -87 96 -201 171 -190 55
8 80 290 25 287 -7 0 -35 -7 -63 -14z" fill="#E1BD85"/>
    <path d="M7412 3117 c-29 -29 -52 -56 -52 -61 0 -17 76 -99 137 -148 74 -59
69 -59 184 28 112 85 114 113 12 149 -43 15 -104 40 -135 56 -77 39 -85 37
-146 -24z" fill="#E1BD85"/>
    <path d="M8075 3064 c-22 -8 -71 -18 -108 -21 -68 -6 -68 -6 -101 -57 -32 -49
-114 -134 -164 -168 -73 -50 42 -77 159 -38 110 37 208 123 255 223 38 82 33
88 -41 61z" fill="#E1BD85"/>
    <path d="M6371 2973 c-73 -82 -74 -92 -12 -137 95 -70 171 -87 171 -38 -1 85
-55 242 -84 242 -8 0 -42 -30 -75 -67z" fill="#E1BD85"/>
    <path d="M7225 2955 c-51 -40 -147 -83 -216 -97 -62 -12 -69 -17 -106 -63 -66
-84 -150 -136 -242 -151 -26 -4 -45 -13 -48 -23 -3 -9 -18 -44 -35 -79 -36
-75 -34 -81 31 -188 59 -95 107 -147 189 -203 33 -22 76 -59 96 -83 36 -42 36
-42 98 -29 115 24 214 97 263 194 41 84 36 96 -30 72 -220 -79 -421 129 -320
332 97 194 415 168 477 -39 17 -57 28 -48 83 63 l50 100 -45 37 c-25 20 -79
69 -121 109 -85 82 -83 81 -124 48z" fill="#E1BD85"/>
    <path d="M6614 2943 c3 -16 9 -65 12 -110 7 -79 8 -83 31 -83 44 0 143 65 143
95 0 6 -17 17 -37 24 -20 8 -58 33 -83 57 -55 52 -75 56 -66 17z" fill="#E1BD85"/>
    <path d="M8086 2799 c-71 -72 -164 -121 -242 -127 -63 -5 -68 -17 -31 -72 30
-45 75 -148 83 -190 9 -42 23 -46 76 -19 91 47 238 34 367 -31 79 -40 86 -39
100 14 52 209 -96 488 -259 486 -29 -1 -45 -11 -94 -61z" fill="#E1BD85"/>
    <path d="M7554 2653 c-61 -135 -81 -171 -114 -207 -28 -30 -39 -53 -44 -89
-29 -195 -168 -359 -358 -421 -23 -7 -23 -28 2 -68 11 -18 20 -41 20 -50 0
-27 38 -22 106 12 86 43 123 78 203 189 94 131 165 187 355 277 78 37 78 37
73 78 -13 97 -159 316 -211 316 -8 0 -23 -17 -32 -37z" fill="#E1BD85"/>
    <path d="M7065 2666 c-37 -17 -70 -52 -84 -89 -54 -143 132 -242 285 -152 46
27 46 27 40 79 -17 127 -139 210 -241 162z" fill="#E1BD85"/>
  </g>
  </g>
</svg>
