<?xml version="1.0" encoding="UTF-8"?>
<svg xmlns="http://www.w3.org/2000/svg" width="192" height="192" viewBox="0 0 1024 1024">
  <g fill-rule="evenodd">
    <g transform="translate(0.000000,1024.000000) scale(0.100000,-0.100000)">
     <path d="M3413 8315 c-12 -8 -37 -14 -55 -13 -28 3 -34 -1 -36 -19 -2 -16 2
-23 12 -23 11 0 16 -9 16 -26 0 -22 3 -25 23 -20 12 3 25 6 30 6 4 0 7 11 7
24 0 14 10 30 25 40 26 17 34 46 12 46 -7 0 -22 -7 -34 -15z" fill="#4A0E05"/>
     <path d="M2892 8097 c-26 -27 -30 -77 -7 -77 34 0 65 31 65 66 0 41 -25 46
-58 11z" fill="#4A0E05"/>
     <path d="M2985 7926 c-55 -21 -88 -56 -53 -56 25 0 137 55 138 68 0 17 -15 15
-85 -12z" fill="#4A0E05"/>
     <path d="M2511 7813 c-13 -32 -39 -90 -58 -130 -34 -68 -34 -73 -18 -89 22
-23 51 -6 48 27 0 13 14 62 32 109 45 114 51 140 33 140 -8 0 -24 -25 -37 -57z" fill="#4A0E05"/>
    </g>
    <g transform="translate(0.000000,1024.000000) scale(0.100000,-0.100000)">
     <path d="M3430 10186 C 3316 10170 3306 10167 3165 10123 C 3051 10086 3043
10084 2920 10029 C 2356 9777 1866 9197 1652 8529 C 1571 8276 1542 8073 1530 7675
C 1520 7343 1514 7290 1469 7163 C 1411 6999 1360 6920 1225 6789 C 1173 6737 1130
6692 1130 6687 C 1130 6674 1210 6560 1266 6493 C 1295 6459 1327 6417 1337 6400
C 1352 6373 1359 6369 1385 6374 C 1431 6383 1663 6502 1768 6570 C 1819 6603 1865
6630 1869 6630 C 1873 6630 1880 6588 1884 6538 C 1887 6487 1893 6432 1896 6415
C 1901 6385 1899 6384 1773 6321 C 1415 6144 1243 5934 1204 5628 C 1195 5553 1189
5546 1118 5520 C 803 5406 584 5190 505 4913 C 491 4863 477 4843 405 4770 C 262
4625 170 4479 69 4240 C 40 4171 12 4114 8 4112 C -3 4107 -2 3670 9 3670 C 13 3670
25 3698 35 3733 C 98 3962 216 4256 304 4404 C 481 4702 657 4842 909 4887 C 1149
4929 1294 4858 1391 4653 C 1457 4514 1498 4453 1564 4394 C 1620 4345 1620 4345
1645 4205 C 1678 4025 1706 3832 1725 3655 C 1750 3420 1775 3247 1811 3067 C 1821
3013 1830 2967 1830 2964 C 1830 2962 1837 2960 1845 2960 C 1858 2960 1860 2981
1860 3093 C 1859 3393 1822 3743 1743 4170 C 1720 4299 1719 4295 1760 4292 C 1779
4291 1803 4281 1812 4272 C 1855 4230 1930 3943 1990 3595 C 2002 3529 2020 3423
2032 3360 C 2043 3297 2054 3232 2057 3215 C 2083 3049 2137 2808 2178 2675 C 2211
2568 2314 2370 2337 2370 C 2354 2370 2354 2367 2320 2500 C 2279 2653 2250 2782
2239 2855 C 2225 2946 2196 3106 2156 3305 C 2136 3404 2109 3544 2094 3615 C 2037
3906 1988 4093 1945 4189 C 1918 4247 1913 4288 1933 4295 C 2084 4343 2090 4344
2106 4324 C 2134 4288 2326 3887 2400 3710 C 2584 3270 2823 2939 3047 2815 C 3123
2773 3131 2762 3103 2738 C 3077 2715 2941 2626 2892 2599 L 2849 2575 L 2792 2635
C 2731 2700 2611 2855 2589 2898 C 2581 2913 2562 2947 2547 2974 C 2512 3034 2410
3238 2385 3298 C 2362 3353 2335 3356 2345 3302 C 2361 3215 2472 2908 2523 2810
C 2571 2719 2604 2672 2670 2600 C 2738 2525 2736 2521 2628 2467 C 2419 2365 2381
2349 2355 2356 C 2336 2361 2330 2358 2330 2346 C 2330 2335 2306 2318 2263 2299
C 2171 2257 2003 2190 1990 2190 C 1975 2190 1909 2330 1859 2469 C 1809 2606 1785
2629 1795 2528 C 1804 2441 1827 2315 1845 2250 C 1867 2167 1865 2144 1833 2132
C 1782 2112 1710 2090 1696 2090 C 1640 2090 1601 2444 1600 2965 C 1600 3258 1567
3683 1529 3880 C 1461 4232 1348 4510 1273 4510 C 1255 4510 1256 4506 1296 4412
C 1346 4295 1386 4149 1415 3980 C 1469 3662 1465 3013 1411 3283 C 1400 3340 1383
3403 1343 3535 C 1322 3601 1240 3808 1201 3890 C 1107 4089 920 4326 920 4245 C
920 4237 953 4166 994 4088 C 1125 3838 1297 3366 1360 3090 C 1383 2989 1400 2891
1400 2863 C 1400 2824 1375 2817 1364 2853 C 1304 3051 1030 3462 834 3649 C 693
3784 661 3775 760 3629 C 793 3581 820 3539 820 3536 C 820 3530 897 3403 931 3353
C 947 3330 960 3309 960 3305 C 960 3302 977 3273 998 3242 C 1106 3080 1193 2901
1256 2714 C 1321 2520 1289 2508 1185 2688 C 1020 2974 705 3191 450 3194 C 323 3195
315 3176 427 3141 C 779 3032 1134 2682 1290 2290 C 1400 2015 1393 2012 1175 2234
C 1004 2408 919 2474 776 2541 C 531 2655 276 2650 67 2525 C 0 2485 0 2485 0 2423
C 0 2350 4 2348 67 2396 C 257 2541 521 2553 776 2430 C 882 2379 1030 2271 1030
2245 C 1030 2226 1041 2225 913 2256 C 739 2299 506 2295 375 2248 C 276 2212 73
2095 39 2054 C 33 2046 21 2040 14 2040 C 3 2040 0 2019 0 1945 C 0 1843 4 1836 41
1876 C 295 2147 780 2226 1105 2049 C 1221 1985 1199 1975 962 1978 C 667 1982 566
1959 396 1845 C 249 1748 178 1658 58 1420 C 35 1373 12 1334 8 1332 C -4 1327 -2
950 10 950 C 16 950 20 957 20 965 C 20 981 46 1071 82 1175 C 106 1247 204 1452
254 1535 C 354 1702 517 1816 675 1827 C 776 1834 787 1820 718 1775 C 541 1658 353
1389 225 1069 C 151 887 21 446 20 378 C 20 368 16 360 10 360 C 4 360 0 293 0 180
L 0 0 L 5120 0 L 10240 0 L 10240 185 L 10240 370 L 8795 370 L 7350 370 L 7350 402
C 7350 420 7357 509 7366 600 L 7382 765 L 7475 880 C 7645 1088 7669 1108 7783 1125
C 8010 1159 8221 1229 8403 1332 C 8452 1360 8535 1399 8589 1420 C 8720 1471 8812
1518 8885 1572 C 8918 1596 8983 1638 9030 1665 C 9191 1759 9319 1908 9465 2170
C 9497 2228 9553 2327 9589 2390 C 9639 2479 9654 2514 9653 2543 C 9652 2596 9612
2637 9551 2646 C 9513 2652 9362.34 2509.85 9354.5 2563.04 C 9345.08 2626.97 9341.62
2713.3 9187.64 2663.79 C 9155.54 2653.47 9132.99 2641.67 9113.76 2590.13 C 8905.65
2032.41 9040.81 2523.65 8813.97 2359.6 C 8684.61 2266.03 8657.83 2105.6 8638.83
2109.6 C 8595.83 2118.6 8516 2235 8530 2324 C 8556 2493 8530 2668 8461 2780 C 8413
2858 8311 2945 8254 2956 C 8217 2963 8212 2976 8234 3018 C 8241 3033 8253 3070
8260 3100 C 8271 3146 8284 3166 8340 3226 C 8381 3269 8421 3324 8441 3365 C 8481
3446 8479 3446 8587 3428 C 8674 3414 8675 3414 8683 3380 C 8785 2974 9200 2773
9646 2914 C 9908 2997 10110 3264 10110 3528 C 10110 3765 9988 3947 9763 4046 C
9348 4230 8772 3987 8684 3593 L 8668 3519 L 8586 3525 C 8542 3529 8500 3533 8494
3535 C 8487 3537 8481 3575 8478 3632 C 8472 3785 8396 3915 8257 4015 C 8195 4059
8191 4073 8219 4129 C 8259 4207 8429 4400 8458 4400 C 8465 4400 8506 4371 8548
4334 C 8815 4107 9174 4062 9475 4218 C 9943 4461 9935 5059 9460 5332 C 9216 5472
8872 5479 8640 5347 C 8512 5275 8385 5114 8334 4960 C 8297 4845 8323 4625 8385
4536 C 8409 4503 8403 4486 8358 4452 C 8284 4397 8163 4245 8125 4159 C 8106 4118
8106 4118 8040 4125 C 8004 4129 7944 4135 7905 4139 C 7835 4145 7835 4145 7838
4192 C 7853 4397 7702 4573 7466 4625 C 7397 4641 7388 4645 7360 4683 C 7309 4752
7291 4832 7310 4902 L 7321 4939 L 7498 4933 C 7810 4923 7974 4975 8135 5135 C 8324
5322 8368 5598 8249 5846 C 8096 6167 7583 6427 7160 6397 C 6628 6359 6313 5875
6532 5431 C 6625 5241 6853 5076 7142 4988 L 7219 4965 L 7213 4870 C 7209 4795 7211
4765 7225 4730 C 7258 4641 7262 4646 7164 4628 C 6879 4574 6698 4343 6713 4053
C 6718 3950 6718 3951 6654 3973 C 6405 4060 6122 3905 6039 3635 C 6026 3594 6010
3560 6004 3560 C 5998 3560 5974 3622 5950 3697 C 5801 4172 5645 4426 5382 4620
C 5324 4662 5307 4691 5330 4705 C 5377 4734 5432 4928 5432 5070 C 5433 5304 5355
5448 5133 5623 C 5002 5726 4936 5793 4915 5842 C 4894 5895 4896 5909 4935 5989
C 5066 6255 5126 6520 5096 6704 C 5075 6835 5073 6826 5123 6851 C 5247 6914 5357
7038 5412 7175 C 5443 7251 5444 7262 5445 7390 C 5445 7603 5396 7710 5215 7885
C 5130 7968 5119 7984 5067 8092 C 4928 8387 4683 8659 4410 8825 C 4340 8868 4340
8867 4374 9002 C 4451 9306 4613 9516 4913 9700 C 4977 9740 5030 9778 5030 9786
C 5030 9825 4676 10012 4485 10074 C 4147 10183 3732 10227 3430 10186 Z M 3597 9895
C 3598 9719 3616 9580 3635 9580 C 3643 9580 3646 9648 3646 9823 L 3645 10065 L
3749 10068 C 3806 10069 3857 10067 3862 10062 C 3868 10056 3866 10019 3856 9969
C 3836 9854 3820 9691 3820 9593 C 3820 9517 3822 9510 3840 9510 C 3858 9510 3860
9517 3860 9569 C 3860 9698 3924 10048 3949 10058 C 3961 10063 4076 10048 4138 10033
C 4166 10026 4166 10016 4136 9954 C 4083 9841 4034 9632 4009 9410 C 3994 9276 3995
9276 3967 9284 C 3820 9326 3509 9340 3375 9312 C 2691 9165 2123 8516 1996 7737
C 1973 7599 1930 7342 1920 7285 C 1873 7019 1671 6724 1455 6606 C 1428 6590 1401
6574 1396 6569 C 1376 6551 1359 6561 1330 6607 C 1290 6670 1291 6677 1356 6740
C 1413 6797 1512 6937 1537 6999 C 1545 7019 1561 7054 1571 7078 C 1582 7101 1593
7135 1597 7153 C 1600 7170 1606 7190 1610 7195 C 1623 7213 1639 7331 1650 7495
C 1664 7690 1658 7672 1711 7684 C 1778 7701 1778 7730 1711 7730 L 1660 7730 L 1660
7840 C 1660 7970 1657 7967 1784 7976 C 1846 7981 1870 7987 1870 7996 C 1870 8004
1867 8010 1863 8011 C 1660 8028 1666 8024 1680 8113 C 1700 8239 1694 8234 1820
8226 C 1914 8220 1930 8221 1930 8234 C 1930 8248 1903 8258 1776 8292 C 1728 8305
1728 8305 1734 8350 C 1755 8506 1778 8529 1877 8495 C 1954 8468 2053 8441 2078
8440 C 2114 8439 2081 8469 2017 8494 C 1913 8536 1810 8589 1810 8600 C 1810 8611
1842 8694 1871 8757 C 1893 8806 1909 8810 1960 8778 C 2008 8748 2102 8700 2112
8700 C 2133 8700 2116 8730 2083 8754 C 1917 8870 1917 8871 1982 8980 C 2027 9055
2041 9055 2141 8981 C 2281 8877 2296 8909 2160 9021 C 2111 9061 2070 9101 2070
9110 C 2070 9129 2167 9260 2181 9260 C 2186 9260 2233 9224 2285 9180 C 2337 9136
2384 9100 2390 9100 C 2416 9100 2394 9135 2320 9213 C 2266 9270 2240 9305 2240
9321 C 2240 9350 2354 9480 2379 9480 C 2403 9480 2466 9407 2589 9239 C 2604 9218
2630 9213 2630 9231 C 2630 9237 2585 9304 2530 9381 C 2475 9458 2430 9526 2430
9533 C 2430 9557 2561 9670 2588 9670 C 2598 9670 2617 9649 2633 9622 C 2648 9596
2666 9566 2673 9555 C 2679 9545 2702 9507 2723 9473 C 2759 9415 2790 9391 2790
9423 C 2790 9429 2756 9498 2715 9575 C 2674 9652 2640 9718 2640 9722 C 2640 9731
2802 9830 2817 9830 C 2829 9830 2864 9759 2933 9598 C 2955 9544 2980 9500 2987
9500 C 3006 9500 3005 9502 2944 9671 C 2870 9874 2869 9866 2953 9908 C 2990 9926
3027 9940 3034 9937 C 3050 9931 3077 9863 3131 9693 C 3160 9600 3177 9560 3187
9560 C 3198 9560 3201 9567 3197 9583 C 3168 9717 3146 9803 3125 9862 C 3099 9937
3095 9965 3108 9974 C 3127 9985 3313 10031 3324 10027 C 3332 10024 3341 9971 3349
9878 C 3356 9800 3366 9710 3371 9680 C 3376 9650 3383 9610 3386 9593 C 3389 9572
3397 9560 3407 9560 C 3419 9560 3421 9567 3416 9588 C 3403 9650 3389 10033 3399
10043 C 3413 10057 3489 10068 3550 10066 L 3595 10065 L 3597 9895 Z M 4371 9974
C 4428 9955 4483 9936 4493 9933 C 4518 9925 4514 9910 4473 9858 C 4383 9748 4352
9705 4308 9625 C 4268 9552 4220 9439 4220 9417 C 4220 9388 4255 9423 4285 9482
C 4374 9654 4431 9739 4509 9818 C 4583 9893 4591 9894 4705 9839 C 4799 9794 4809
9776 4760 9746 C 4610 9658 4393 9406 4319 9235 C 4291 9170 4293 9171 4199 9214
C 4158 9232 4113 9252 4098 9258 C 4071 9269 4070 9273 4070 9337 C 4070 9407 4083
9528 4100 9615 C 4106 9643 4114 9690 4119 9720 C 4129 9784 4172 9914 4200 9971
C 4226 10020 4237 10020 4371 9974 Z M 3843 9189 C 3974 9165 3975 9163 3974 9070
C 3973 9026 3969 8985 3964 8980 C 3958 8974 3908 8980 3832 8995 C 3331 9097 2886
8902 2521 8420 C 2435 8306 2285 8054 2180 7848 C 2135 7758 2102 7730 2115 7793
C 2131 7871 2190 8061 2214 8113 C 2228 8145 2240 8173 2240 8175 C 2240 8193 2386
8470 2428 8532 C 2482 8612 2599 8743 2710 8847 C 2928 9051 3187 9170 3490 9204
C 3550 9211 3778 9201 3843 9189 Z M 4196 9081 C 4255 9053 4262 9047 4256 9027 C
4252 9015 4247 8981 4243 8952 C 4240 8923 4233 8897 4227 8893 C 4216 8886 4111
8919 4089 8938 C 4075 8949 4050 9062 4050 9112 C 4050 9130 4125 9114 4196 9081
Z M 3831 8900 C 4298 8816 4689 8539 4910 8136 C 4965 8037 4956 8028 4842 8066 C
4800 8080 4743 8096 4715 8102 C 4688 8107 4647 8116 4625 8121 C 4215 8213 3857
8147 3549 7922 C 3437 7840 3270 7681 3270 7655 C 3270 7621 3308 7641 3553 7807
C 3701 7907 3837 7985 3896 8002 C 3906 8006 3942 8018 3975 8030 C 4101 8076 4447
8103 4438 8066 C 4426 8014 4207 7879 4048 7826 C 3491 7640 3298 7556 3468 7575
C 3499 7578 3538 7584 3553 7587 C 3665 7608 3418 7459 3236 7396 C 3142 7363 2923
7285 2883 7268 C 2775 7226 2913 7225 3123 7266 C 3236 7289 3001 7127 2802 7047
C 2742 7022 2698 7011 2480 6960 C 2370 6934 2300 6904 2213 6846 C 2126 6789 2128
6768 2218 6795 C 2247 6805 2248 6780 2219 6754 C 2185 6724 2133 6638 2113 6579
C 2089 6508 2083 6500 2056 6500 C 2038 6500 2031 6507 2026 6531 C 2002 6655 2062
6821 2172 6931 C 2216 6975 2419 7120 2436 7120 C 2459 7120 2920 7492 3048 7614
C 3099 7663 3100 7673 3055 7694 C 2997 7722 3009 7742 3103 7774 C 3225 7816 3540
8039 3540 8084 C 3540 8091 3516 8105 3485 8115 C 3424 8134 3414 8154 3461 8164
C 3573 8186 3775 8336 3858 8457 C 3928 8561 3927 8576 3853 8586 C 3705 8604 3464
8530 3338 8427 C 3270 8371 3256 8368 3264 8413 C 3279 8497 3282 8577 3271 8584
C 3247 8599 3123 8546 3020 8477 C 2946 8427 2826 8299 2786 8227 C 2752 8167 2720
8140 2720 8172 C 2720 8198 2687 8270 2675 8270 C 2668 8270 2613 8218 2551 8155
C 2415 8014 2392 8005 2446 8113 C 2611 8441 2865 8702 3145 8833 C 3320 8915 3595
8942 3831 8900 Z M 3790 8503 C 3790 8451 3585 8296 3442 8239 C 3351 8203 3347 8203
3355 8240 C 3361 8266 3359 8270 3341 8270 C 3289 8270 3332 8320 3447 8394 C 3590
8486 3790 8549 3790 8503 Z M 3187 8406 C 3178 8280 3119 8184 2988 8084 C 2925 8035
2910 8031 2910 8060 C 2910 8091 2884 8084 2853 8045 C 2778 7951 2779 8089 2854
8200 C 2921 8300 3125 8479 3174 8480 C 3191 8480 3192 8474 3187 8406 Z M 2653 8126
C 2690 8030 2679 7880 2628 7772 C 2585 7680 2460 7563 2460 7615 C 2460 7639 2435
7632 2420 7605 C 2399 7565 2380 7574 2380 7623 C 2380 7771 2458 7965 2563 8077
C 2623 8141 2643 8152 2653 8126 Z M 3343 8083 C 3421 8076 3425 8068 3373 8019 C
3234 7888 2986 7784 2867 7807 C 2840 7812 2828 7840 2853 7840 C 2876 7840 2920
7865 2920 7878 C 2920 7884 2911 7890 2899 7890 C 2859 7890 2884 7924 2965 7978
C 3118 8080 3183 8099 3343 8083 Z M 4713 8020 C 5038 7924 5263 7746 5305 7553 C
5315 7503 5292 7512 5237 7580 C 5166 7669 5047 7744 4855 7820 C 4698 7882 4550
7962 4550 7984 C 4550 7996 4597 8050 4607 8050 C 4609 8050 4657 8036 4713 8020
Z M 4549 7902 C 4618 7845 4646 7827 4746 7777 C 4895 7701 4983 7605 5015 7482 C
5042 7381 5041 7380 4959 7380 C 4842 7380 4672 7280 4600 7168 C 4547 7086 4542
7054 4572 6988 C 4586 6959 4607 6890 4619 6835 C 4632 6780 4655 6699 4672 6655
C 4727 6506 4726 6513 4700 6485 C 4687 6471 4657 6451 4633 6439 C 4586 6416 4598
6415 4451 6455 C 4388 6472 4326 6460 4309 6427 C 4290 6392 4305 6380 4369 6380
C 4442 6380 4459 6374 4471 6344 C 4493 6286 4692 6345 4765 6432 C 4803 6477 4796
6556 4746 6663 C 4662 6842 4634 7011 4687 7018 C 4704 7021 4711 7015 4716 6993
C 4738 6902 4843 6885 4882 6967 C 4904 7013 4950 7012 4950 6966 C 4950 6947 4957
6898 4966 6858 C 4977 6812 4983 6735 4984 6650 C 4985 6427 4939 6273 4748 5870
C 4707 5785 4668 5689 4583 5465 C 4425 5049 4347 4961 4138 4960 C 3859 4959 3244
5363 3079 5656 C 3050 5706 3020 5727 3020 5697 C 3020 5690 3035 5648 3053 5604
C 3196 5253 3422 5024 3785 4861 C 3862 4826 3929 4794 3934 4789 C 3946 4778 3911
4637 3865 4516 C 3845 4462 3831 4416 3833 4413 C 3871 4375 4019 4601 4020 4698
C 4020 4739 4056 4725 4079 4675 C 4139 4548 4147 4353 4097 4268 C 4007 4114 3829
4084 3455 4159 C 3308 4189 2975 4330 2835 4422 C 2808 4440 2740 4484 2685 4519
C 2630 4555 2548 4613 2503 4649 C 2378 4749 2255 4843 2150 4918 C 2039 4998 2032
5011 2092 5030 C 2492 5159 2759 5559 2760 6033 C 2760 6120 2760 6120 2803 6120
C 2891 6120 2930 6167 2930 6271 C 2930 6339 2916 6347 2885 6297 C 2842 6229 2774
6235 2662 6320 C 2583 6379 2516 6455 2464 6545 C 2413 6633 2419 6828 2472 6808
C 2482 6804 2489 6780 2494 6735 C 2500 6672 2528 6603 2563 6558 C 2591 6522 2598
6538 2593 6620 C 2588 6690 2589 6700 2604 6700 C 2613 6700 2620 6693 2620 6685
C 2620 6663 2664 6578 2696 6541 C 2727 6504 2760 6485 2813 6476 C 2849 6469 2850
6470 2850 6500 C 2850 6516 2841 6547 2830 6567 C 2791 6641 2808 6678 2896 6706
C 3060 6758 3152 6856 3208 7037 C 3243 7149 3409 7327 3595 7450 C 3656 7490 3737
7548 3775 7580 C 3823 7619 3868 7645 3920 7664 C 4193 7763 4300 7814 4407 7895
C 4479 7949 4491 7949 4549 7902 Z M 2311 7728 C 2317 7703 2321 7638 2318 7574 C
2315 7464 2314 7462 2266 7365 C 2176 7184 2138 7149 2126 7236 C 2107 7375 2131
7482 2218 7656 C 2280 7781 2294 7791 2311 7728 Z M 2945 7682 C 3010 7670 3002 7649
2903 7575 C 2805 7501 2723 7458 2635 7435 C 2512 7403 2438 7427 2535 7467 C 2560
7477 2580 7491 2580 7498 C 2580 7514 2567 7513 2523 7495 C 2399 7443 2510 7569
2648 7637 C 2752 7687 2839 7701 2945 7682 Z M 5187 7476 C 5323 7362 5328 7186 5201
7067 C 5129 6999 5105 7003 5137 7076 C 5162 7135 5168 7359 5146 7432 C 5123 7512
5132 7522 5187 7476 Z M 2570 7325 C 2570 7295 2248 7110 2195 7110 C 2144 7110 2254
7254 2339 7299 C 2411 7338 2570 7356 2570 7325 Z M 5015 7246 C 5050 7221 5012 7050
4969 7042 C 4961 7041 4947 7054 4938 7070 C 4912 7115 4841 7144 4773 7137 C 4705
7130 4703 7147 4767 7191 C 4865 7259 4967 7282 5015 7246 Z M 1960 6956 C 1960 6921
1858 6800 1828 6800 C 1807 6800 1805 6816 1823 6834 C 1830 6842 1858 6875 1885
6909 C 1933 6968 1960 6985 1960 6956 Z M 3080 6945 C 3080 6937 3074 6930 3066 6930
C 3058 6930 3050 6924 3047 6916 C 3030 6873 2834 6817 2738 6827 C 2660 6835 2657
6860 2733 6860 C 2818 6860 3036 6924 3048 6953 C 3054 6966 3080 6960 3080 6945
Z M 2295 6558 C 2237 6294 2103 6126 1842 5989 C 1671 5900 1581 5811 1534 5690 C
1511 5629 1504 5623 1435 5605 C 1335 5579 1332 5585 1376 5735 C 1440 5959 1542
6066 1819 6205 C 2046 6318 2181 6426 2252 6549 C 2281 6600 2305 6605 2295 6558
Z M 2414 6364 C 2425 6335 2420 6245 2405 6185 C 2342 5943 2184 5811 1821 5699 C
1674 5653 1654 5661 1711 5738 C 1744 5783 1800 5820 1960 5900 C 2116 5979 2302
6178 2367 6337 C 2386 6381 2403 6392 2414 6364 Z M 7450 6271 C 7811 6191 8122 5951
8195 5696 C 8258 5479 8146 5220 7944 5113 C 7609 4936 6975 5062 6710 5358 C 6422
5680 6585 6155 7024 6270 C 7123 6296 7333 6297 7450 6271 Z M 2577 5968 C 2556 5449
2167 5164 1555 5216 C 1246 5243 1038 5215 812 5119 C 727 5082 728 5105 813 5187
C 975 5343 1159 5422 1577 5515 C 1874 5582 1983 5616 2117 5687 C 2301 5784 2248
5690 2057 5581 C 1995 5546 1882 5500 1768 5464 C 1489 5377 1474 5360 1669 5360
C 1931 5360 2091 5416 2260 5565 C 2369 5661 2493 5871 2535 6033 C 2547 6077 2558
6100 2568 6100 C 2580 6100 2582 6080 2577 5968 Z M 4898 5637 C 4935 5607 4986 5569
5012 5551 C 5115 5482 5236 5350 5264 5275 C 5334 5093 5306 4883 5194 4750 C 5156
4705 5114 4710 5117 4760 C 5118 4779 5123 4796 5129 4798 C 5146 4804 5142 4830
5125 4830 C 5117 4830 5110 4824 5110 4817 C 5110 4803 5070 4780 5045 4780 C 5027
4780 5027 4780 5046 4860 C 5097 5076 5075 5221 4972 5364 C 4883 5486 4834 5580
4814 5663 C 4805 5703 4822 5698 4898 5637 Z M 4809 5340 C 4942 5161 4972 5067 4941
4918 C 4926 4849 4922 4848 4824 4888 L 4755 4917 L 4748 5013 C 4744 5066 4732 5153
4721 5205 C 4693 5334 4695 5445 4725 5438 C 4732 5436 4770 5392 4809 5340 Z M 9172
5326 C 9667 5231 9888 4723 9571 4410 C 9136 3980 8268 4397 8440 4953 C 8526 5232
8837 5390 9172 5326 Z M 1650 5106 C 1948 5034 2107 4807 2049 4537 C 2005 4328 1731
4337 1570 4554 C 1507 4640 1521 4655 1610 4595 C 1715 4525 1808 4516 1856 4573
C 1924 4654 1815 4859 1664 4930 C 1556 4982 1552 4966 1648 4866 C 1771 4736 1788
4572 1669 4663 C 1652 4675 1602 4717 1557 4755 C 1346 4937 1268 4982 1138 5001
C 1043 5015 1039 5029 1123 5055 C 1319 5114 1531 5135 1650 5106 Z M 4660 4810 C
4873 4739 5085 4636 5275 4512 C 5497 4367 5629 4201 5729 3940 C 5765 3847 5775
3821 5790 3788 C 5818 3720 5861 3567 5853 3559 C 5843 3549 5684 3501 5659 3500
C 5620 3500 5551 3558 5540 3602 C 5473 3865 5440 3915 5440 3750 C 5440 3631 5441
3632 5344 3698 C 5275 3745 5275 3745 5268 3827 C 5254 4001 5191 4156 5071 4318
C 5057 4335 5040 4350 5033 4350 C 5018 4350 5015 4324 5029 4316 C 5058 4298 5180
3937 5180 3869 C 5180 3810 5186 3811 5088 3860 C 5044 3882 4999 3900 4988 3900
C 4945 3900 4933 3917 4926 3987 C 4914 4104 4829 4388 4778 4478 C 4698 4620 4695
4625 4588 4742 C 4509 4828 4487 4860 4506 4860 C 4510 4860 4579 4838 4660 4810
Z M 2290 4674 C 2400 4592 2749 4357 2815 4320 C 3045 4191 3311 4083 3480 4051 C
3516 4044 3564 4034 3587 4029 C 3665 4012 3898 4018 3960 4039 C 4126 4096 4189
4153 4226 4278 C 4242 4335 4241 4591 4224 4663 C 4219 4683 4221 4690 4233 4690
C 4256 4690 4301 4612 4350 4485 C 4405 4346 4385 4145 4298 3966 C 4251 3870 4241
3858 4173 3814 C 4101 3768 4048 3718 3977 3630 C 3736 3333 3281 2850 3242 2850
C 3183 2850 2969 3027 2856 3170 C 2764 3285 2652 3467 2570 3635 C 2524 3730 2299
4157 2260 4224 C 2250 4241 2217 4299 2186 4353 C 2132 4445 2129 4453 2137 4493
C 2150 4559 2168 4552 2268 4438 C 2378 4312 2629 4066 2730 3984 C 2808 3920 2953
3820 2966 3820 C 2970 3820 2981 3814 2989 3806 C 3021 3778 3180 3701 3266 3672
C 3568 3572 3849 3633 4029 3837 C 4105 3923 4091 3952 4005 3886 C 3714 3664 3349
3690 2946 3963 C 2656 4158 2271 4523 2182 4686 C 2135 4774 2159 4771 2290 4674
Z M 4490 4623 C 4624 4479 4702 4335 4778 4090 C 4830 3921 4827 3916 4671 3906 C
4614 3903 4523 3892 4469 3883 C 4414 3874 4367 3870 4363 3873 C 4360 3877 4374
3911 4394 3948 C 4488 4129 4500 4372 4423 4584 C 4371 4729 4384 4736 4490 4623
Z M 7455 4525 C 7616 4483 7740 4364 7740 4251 C 7740 4223 7738 4224 7645 4270 C
7447 4370 7275 4356 7136 4229 C 7039 4140 7003 3989 7058 3896 C 7084 3852 7087
3820 7064 3820 C 7055 3820 7026 3809 6998 3795 C 6928 3760 6919 3762 6881 3824
C 6739 4060 6816 4374 7043 4484 C 7157 4540 7332 4557 7455 4525 Z M 7503 4215 C
7580 4192 7655 4149 7657 4125 C 7659 4109 7641 4096 7557 4056 C 7469 4014 7444
3996 7372 3924 C 7254 3805 7212 3807 7146 3937 C 7060 4107 7282 4280 7503 4215
Z M 7994 4030 C 8026 4025 8055 4019 8057 4016 C 8085 3989 7817 3620 7769 3620 C
7746 3620 7690 3668 7690 3687 C 7690 3696 7708 3723 7731 3747 C 7781 3802 7831
3906 7837 3968 C 7840 3994 7843 4021 7845 4028 C 7850 4043 7912 4044 7994 4030
Z M 7727 3959 C 7720 3903 7691 3848 7633 3781 L 7594 3737 L 7502 3771 C 7452 3790
7410 3810 7410 3816 C 7410 3845 7547 3952 7626 3985 C 7721 4024 7734 4021 7727
3959 Z M 9655 3976 C 9810 3924 9907 3845 9968 3721 C 10004 3648 10005 3644 10005
3530 C 10005 3414 10005 3414 9961 3324 C 9711 2818 8920 2869 8784 3401 C 8689 3771
9220 4122 9655 3976 Z M 8227 3909 C 8287 3860 8350 3779 8364 3733 C 8396 3631 8386
3480 8342 3390 C 8304 3314 8285 3313 8276 3387 C 8267 3469 8232 3537 8171 3592
C 8127 3632 8033 3680 8000 3680 C 7982 3680 7989 3699 8034 3767 C 8058 3804 8092
3863 8109 3898 C 8147 3973 8149 3973 8227 3909 Z M 6592 3889 C 6677 3871 6754 3825
6800 3764 C 6849 3699 6849 3706 6795 3645 C 6750 3596 6750 3596 6703 3613 C 6508
3682 6326 3624 6219 3460 C 6202 3435 6202 3435 6155 3458 C 6107 3481 6107 3481
6114 3542 C 6137 3765 6371 3935 6592 3889 Z M 4985 3796 C 5004 3788 5039 3768 5062
3752 C 5086 3736 5125 3712 5150 3699 C 5174 3686 5235 3647 5285 3613 C 5334 3579
5427 3518 5490 3478 C 5623 3394 5670 3355 5670 3331 C 5670 3259 5498 3252 5358
3319 C 5310 3341 5268 3360 5265 3360 C 5260 3360 5016 3474 4990 3489 C 4982 3493
4974 3507 4972 3519 C 4969 3541 4966 3541 4882 3535 C 4834 3531 4766 3533 4730
3539 C 4423 3587 4420 3587 4420 3567 C 4420 3541 4638 3472 4855 3430 C 4934 3414
5024 3366 5061 3318 C 5160 3194 5208 3022 5164 2955 C 5142 2921 5129 2924 5100
2968 C 4997 3125 4922 3163 4506 3266 C 4333 3309 4526 3185 4749 3110 C 4888 3063
4902 3056 4958 3003 C 5032 2933 5028 2871 4942 2758 C 4895 2696 4874 2696 4807
2758 C 4733 2827 4696 2846 4548 2896 C 4401 2945 4400 2946 4400 2926 C 4400 2911
4513 2833 4621 2772 C 4789 2677 4807 2552 4671 2437 C 4612 2387 4553 2367 4450
2362 C 4337 2357 4313 2369 4341 2418 C 4358 2449 4396 2459 4508 2459 C 4598 2460
4604 2481 4527 2518 C 4483 2539 4470 2540 4385 2534 C 4291 2527 4291 2527 4254
2464 C 4175 2330 4015 2193 3875 2141 C 3800 2114 3658 2105 3577 2124 C 3539 2132
3539 2132 3546 2093 C 3552 2053 3552 2053 3444 1954 C 3240 1767 3194 1725 3085
1630 C 3025 1578 2949 1510 2915 1480 C 2777 1356 2421 1068 2165 873 C 1782 582
1288 360 869 291 C 737 269 436 282 405 311 C 400 316 389 320 380 320 C 353 320
271 378 249 412 C 174 531 332 1119 516 1408 C 641 1603 920 1815 1077 1835 C 1103
1838 1150 1845 1180 1850 C 1210 1855 1280 1867 1335 1875 C 1554 1910 1826 1992
2065 2095 C 2082 2102 2123 2120 2157 2134 C 2215 2158 2249 2173 2383 2234 C 2411
2247 2467 2272 2505 2289 C 2783 2416 3103 2599 3265 2725 C 3413 2840 3684 3131
3922 3431 C 4137 3701 4195 3746 4355 3768 C 4626 3805 4930 3819 4985 3796 Z M 7200
3720 C 7200 3693 7153 3600 7139 3600 C 7119 3600 7020 3670 7020 3684 C 7020 3703
7113 3739 7163 3739 C 7194 3740 7200 3737 7200 3720 Z M 7418 3699 C 7520 3668 7506
3630 7376 3586 C 7270 3550 7243 3566 7281 3643 C 7324 3727 7322 3727 7418 3699
Z M 6953 3596 C 6971 3583 7014 3557 7050 3538 C 7115 3503 7115 3503 7114 3442 C
7113 3359 7102 3348 7026 3352 C 6966 3355 6966 3355 6930 3417 C 6910 3452 6882
3492 6867 3508 C 6833 3543 6833 3547 6872 3587 C 6910 3626 6912 3627 6953 3596
Z M 7647 3578 C 7690 3548 7690 3551 7618 3484 C 7583 3452 7529 3399 7498 3366 L
7441 3307 L 7363 3329 C 7320 3341 7269 3354 7250 3358 C 7212 3367 7204 3382 7214
3435 C 7220 3467 7220 3467 7299 3472 C 7383 3477 7492 3520 7555 3574 C 7592 3605
7605 3606 7647 3578 Z M 8045 3561 C 8139 3518 8172 3461 8178 3332 C 8182 3255 8180
3236 8166 3221 C 8137 3189 8031 3148 7976 3146 C 7925 3145 7925 3145 7917 3215
C 7906 3311 7883 3411 7857 3472 C 7836 3523 7836 3523 7868 3551 C 7907 3586 7981
3590 8045 3561 Z M 6648 3529 C 6677 3518 6676 3504 6641 3439 C 6624 3409 6603 3353
6593 3315 C 6576 3248 6572 3244 6530 3222 L 6485 3199 L 6393 3289 C 6286 3392 6283
3402 6344 3458 C 6431 3538 6548 3566 6648 3529 Z M 6819 3413 C 6870 3352 6863 3338
6773 3318 C 6683 3297 6683 3297 6704 3352 C 6746 3455 6773 3469 6819 3413 Z M 7780
3399 C 7826 3291 7832 3160 7790 3160 C 7739 3160 7550 3242 7550 3264 C 7550 3281
7726 3450 7744 3450 C 7752 3450 7767 3427 7780 3399 Z M 5927 3423 C 5952 3348 6017
3196 6041 3153 C 6086 3071 6081 3067 5969 3096 C 5849 3127 5711 3092 5628 3009
C 5602 2983 5580 2956 5580 2950 C 5580 2921 5550 2944 5545 2978 C 5542 2998 5534
3031 5529 3050 C 5523 3069 5520 3105 5522 3130 C 5525 3175 5525 3175 5580 3181
C 5707 3195 5764 3250 5758 3351 C 5755 3412 5755 3412 5790 3425 C 5845 3445 5919
3444 5927 3423 Z M 6329 3214 C 6405 3144 6405 3142 6323 3064 C 6240 2987 6227 2985
6206 3047 C 6185 3109 6186 3148 6211 3215 C 6237 3286 6252 3286 6329 3214 Z M 7126
3253 C 7130 3243 7151 3197 7173 3151 C 7220 3054 7222 3059 7093 2994 C 7011 2953
6984 2954 6995 2998 C 6999 3013 7003 3077 7005 3140 C 7007 3255 7007 3255 7036
3261 C 7092 3274 7120 3271 7126 3253 Z M 5330 3215 L 5415 3181 L 5421 3088 C 5424
3037 5434 2966 5443 2930 C 5460 2863 5500 2678 5525 2555 C 5560 2378 5569 2223
5549 2128 C 5515 1963 5447 1780 5373 1655 C 5303 1538 5135 1320 5114 1320 C 5089
1320 5100 1346 5164 1449 C 5258 1598 5386 1880 5422 2020 C 5448 2122 5454 2424
5432 2520 C 5424 2550 5412 2604 5403 2640 C 5379 2744 5330 2870 5314 2870 C 5294
2870 5296 2800 5320 2640 C 5342 2495 5346 2302 5329 2218 C 5284 1989 5190 1749
5054 1511 C 4946 1321 4690 1018 4690 1079 C 4690 1083 4734 1180 4788 1293 C 4903
1536 4913 1559 4934 1625 C 4949 1673 4980 1811 4980 1831 C 4980 1852 4951 1838
4941 1813 C 4855 1585 4489 1126 4244 934 C 4117 835 4108 847 4208 983 C 4347 1173
4436 1330 4523 1545 C 4565 1646 4620 1829 4620 1865 C 4620 1885 4591 1884 4583
1864 C 4560 1803 4380 1507 4268 1345 C 4143 1165 3748 841 3653 840 C 3617 840 3624
852 3726 951 C 4063 1282 4284 1675 4367 2095 C 4400 2264 4398 2260 4467 2260 C
4606 2260 4733 2340 4826 2485 C 4845 2515 4890 2563 4926 2592 C 4994 2647 5024
2687 5050 2755 C 5062 2785 5072 2796 5090 2798 C 5256 2818 5340 3014 5252 3173
C 5202 3264 5205 3266 5330 3215 Z M 7330 3241 C 7363 3232 7366 3210 7340 3177 C
7309 3138 7284 3142 7260 3190 C 7249 3211 7240 3234 7240 3240 C 7240 3251 7291
3252 7330 3241 Z M 6900 3225 C 6916 3206 6908 3032 6890 2983 C 6852 2879 6654 3042
6672 3163 C 6674 3180 6692 3190 6760 3212 C 6858 3243 6883 3246 6900 3225 Z M 7546
3148 C 7573 3136 7633 3112 7680 3095 C 7791 3054 7795 3039 7715 2963 C 7636 2889
7575 2854 7547 2867 C 7514 2882 7372 3018 7364 3042 C 7359 3058 7370 3074 7411
3116 C 7471 3177 7478 3179 7546 3148 Z M 8140 3062 C 8140 3027 8085 2934 8033 2882
C 7946 2795 7771 2731 7697 2759 C 7657 2774 7664 2795 7724 2839 C 7785 2884 7843
2949 7870 3001 C 7888 3036 7892 3038 7957 3045 C 7994 3049 8043 3058 8065 3065
C 8122 3084 8140 3083 8140 3062 Z M 6484 3003 C 6531 2896 6546 2760 6509 2760 C
6454 2760 6310 2854 6310 2890 C 6310 2915 6427 3040 6450 3040 C 6460 3040 6474
3025 6484 3003 Z M 6015 2980 C 6075 2947 6077 2943 6083 2832 L 6089 2728 L 6032
2670 C 5870 2504 5620 2580 5620 2795 C 5621 2902 5684 2973 5805 3004 C 5853 3016
5976 3002 6015 2980 Z M 6638 2975 C 6664 2934 6727 2886 6776 2870 C 6817 2856 6819
2842 6783 2808 C 6745 2773 6697 2750 6662 2750 C 6633 2750 6633 2750 6626 2825
C 6622 2866 6613 2921 6605 2947 C 6582 3023 6598 3036 6638 2975 Z M 7317 2940 C
7337 2917 7388 2870 7432 2834 C 7475 2798 7510 2763 7510 2757 C 7510 2737 7416
2560 7405 2560 C 7400 2560 7382 2587 7367 2621 C 7252 2869 6880 2788 6880 2516
C 6880 2376 7043 2263 7190 2300 C 7292 2326 7284 2327 7277 2287 C 7259 2172 7110
2047 6976 2033 C 6925 2028 6922 2029 6901 2059 C 6888 2077 6843 2116 6800 2146
C 6712 2208 6676 2245 6614 2340 C 6540 2455 6534 2473 6557 2507 C 6568 2522 6583
2553 6591 2575 C 6609 2630 6621 2641 6676 2651 C 6762 2667 6840 2719 6908 2805
C 6935 2841 6949 2849 6993 2858 C 7071 2874 7149 2905 7205 2944 C 7269 2988 7273
2988 7317 2940 Z M 8260 2840 C 8399 2768 8488 2531 8439 2358 C 8427 2312 8426 2312
8340 2355 C 8206 2423 8070 2436 7980 2390 C 7915 2357 7908 2361 7881 2445 C 7868
2487 7840 2549 7819 2585 C 7769 2667 7769 2666 7837 2673 C 7920 2682 8022 2736
8095 2810 C 8161 2878 8180 2881 8260 2840 Z M 6296 2759 C 6321 2742 6360 2720 6383
2709 C 6406 2698 6432 2685 6440 2680 C 6448 2675 6468 2669 6483 2665 C 6523 2657
6519 2607 6478 2602 C 6456 2599 6450 2593 6450 2575 C 6450 2561 6442 2546 6431
2540 C 6329 2486 6162 2656 6212 2765 C 6227 2798 6242 2797 6296 2759 Z M 8868.87
2250.54 C 8964.87 2378.54 8861.95 2165.03 8831.95 2111.03 C 8817.95 2087.03 8955
2246 8950 2235 C 8945 2224 8929 2186 8914 2150 C 8884 2074 8809 1927 8765 1855
C 8531 1475 8304 1322 7833 1230 C 7734 1210 7580 1221 7490 1254 C 7379 1295 7380
1295 7380 1273 C 7380 1252 7460 1171 7503 1150 C 7539 1132 7538 1125 7488 1071
C 7464 1045 7412 985 7371 936 C 7234 775 6993 556 6881 492 C 6712 395 6613 371
6377 370 C 6223 370 6233 356 6249 549 C 6309 1262 6493 1565 6929 1664 C 6992 1678
7081 1706 7127 1726 C 7225 1768 7230 1767 7201 1701 C 7190 1674 7180 1642 7180
1630 C 7180 1581 7217 1623 7311 1779 C 7444 1998 7522 2082 7675 2169 C 7794 2238
7791 2239 7784 2129 C 7778 2035 7778 2035 7811 1985 C 7896 1860 8044 1849 8258
1952 C 8315 1980 8450 2106 8450 2132 C 8450 2154 8489 2137 8500 2110 C 8537 2022
8437 1929 8220 1850 C 8173 1833 8114 1805 8087 1789 C 8031 1754 8027 1754 7939
1780 C 7789 1825 7629 1821 7526 1770 C 7442 1727 7449 1701 7538 1724 C 7644 1752
7764 1742 7925 1693 C 7985 1674 7985 1674 7988 1632 C 7992 1581 8009 1578 8033
1623 C 8076 1703 8126 1737 8309 1810 C 8434 1859 8440 1860 8440 1816 C 8440 1705
8435.33 1706.56 8493 1792 C 8587.7 1932.29 8798.87 2156.54 8868.87 2250.54 Z M
7642 2653 C 7713 2588 7782 2465 7804 2364 C 7811 2333 7810 2333 7713 2286 C 7548
2206 7462 2143 7400 2055 C 7290 1900 7187 1814 7102 1804 C 7065 1799 7065 1800
7036 1861 C 7005 1928 7005 1929 7073 1954 C 7233 2013 7346 2148 7386 2330 C 7399
2388 7412 2415 7441 2450 C 7462 2475 7499 2539 7524 2593 C 7575 2703 7581 2707
7642 2653 Z M 7210 2660 C 7290 2619 7341 2481 7292 2437 C 7178 2334 6961 2400 6972
2535 C 6982 2654 7100 2716 7210 2660 Z M 9222.45 2566.98 C 9286.45 2595.98 9287.18
2514.37 9282 2420 C 9279.24 2369.75 9208 2225 9167 2115 C 9082 1891 8928 1692 8774
1604 C 8672 1546 8664 1563 8745 1668 C 8775 1708 8800 1742 8800 1746 C 8800 1749
8813 1770 8829 1794 C 8885 1876 9073 2292 9114 2427 C 9143 2521 9181.45 2547.98
9222.45 2566.98 Z M 6166 2573 C 6236 2477 6287 2444 6384 2431 L 6433 2425 L 6436
2293 L 6438 2160 L 6400 2160 C 6347 2160 6227 2118 6166 2077 C 5985 1957 5855 1789
5736 1520 C 5720 1484 5693 1424 5675 1385 C 5658 1347 5633 1289 5619 1258 C 5590
1188 5565 1179 5575 1242 C 5595 1372 5689 1657 5775 1845 C 5787 1873 5800 1905
5804 1918 C 5815 1951 5968 2281 5986 2307 C 6028 2372 5983 2362 5921 2293 C 5880
2247 5711 1980 5661 1883 C 5654 1870 5643 1860 5635 1860 C 5617 1860 5616 1852
5640 1946 C 5677 2096 5686 2232 5667 2382 C 5658 2455 5653 2516 5655 2519 C 5658
2521 5692 2513 5732 2501 C 5772 2490 5819 2480 5836 2480 C 5911 2480 6057 2543
6099 2594 C 6120 2619 6137 2613 6166 2573 Z M 9554 2548 C 9562 2534 9561 2524 9551
2508 C 9513 2448 9427 2294 9379 2200 C 9332 2109 9260 1991 9205 1913 C 9169 1861
9146 1895 9178 1952 C 9188 1970 9209 2014 9224 2050 C 9240 2086 9258 2129 9265
2145 C 9273 2162 9297 2227 9320 2290 C 9343 2353 9372 2428 9385 2457 C 9426 2545
9523 2597 9554 2548 Z M 8217 2309 C 8305 2273 8371 2238 8376 2225 C 8379 2217 8366
2190 8343 2163 C 8322 2137 8298 2107 8290 2097 C 8267 2069 8157 2010 8127 2010
C 8106 2010 8096 2019 8081 2049 C 8057 2094 8007 2140 7979 2140 C 7951 2140 7955
2127 7996 2086 C 8047 2035 8042 1996 7985 1992 C 7825 1981 7821 2215 7981 2297
C 8031 2322 8166 2329 8217 2309 Z M 4290 2265 C 4318 2232 4229 1952 4158 1848 C
4148 1834 4140 1819 4140 1816 C 4140 1772 3837 1387 3704 1261 C 3511 1078 3390
1000 3125 890 C 3103 882 3027 860 3016 860 C 2993 860 3018 890 3063 914 C 3251
1019 3560 1344 3694 1576 C 3770 1709 3758 1713 3634 1594 C 3314 1286 3040 1099
2771 1009 C 2678 977 2627 972 2632 994 C 2634 1001 2689 1053 2755 1110 C 2821 1167
2983 1319 3116 1449 C 3458 1785 3673 1987 3696 1993 C 3706 1996 3742 2004 3775
2010 C 3924 2038 4054 2102 4170 2205 C 4260 2284 4270 2289 4290 2265 Z M 6719 2082
C 6767 2059 6776 2024 6731 2033 C 6692 2041 6630 2081 6630 2099 C 6630 2115 6662
2108 6719 2082 Z M 6515 2040 C 6536 2019 6582 1988 6617 1973 C 6698 1938 6696 1926
6608 1911 C 6466 1887 6389 1847 6274 1738 C 6086 1559 6000 1378 5774 683 C 5721
520 5680 410 5673 410 C 5643 410 5663 752 5704 946 C 5822 1504 6049 1893 6343 2041
C 6444 2091 6465 2091 6515 2040 Z M 6788 1784 C 6851 1766 6861 1736 6808 1725 C
6641 1689 6423 1517 6336 1351 C 6249 1184 6142 786 6100 471 C 6087 373 6084 370
5989 370 C 5895 370 5898 362 5930 570 C 6044 1302 6253 1710 6555 1789 C 6639 1811
6693 1810 6788 1784 Z M 5202 735 C 5203 617 5205 487 5205 448 L 5205 375 L 5147
372 C 5105 370 5088 373 5084 383 C 5078 400 5104 604 5130 742 C 5166 927 5172 950
5186 950 C 5197 950 5200 909 5202 735 Z M 4730 676 C 4730 656 4557 559 4444 516
C 4304 462 4193 436 3997 410 C 3898 397 3349 397 3227 410 C 3176 415 3086 424 3025
430 C 2909 442 2892 444 2656 485 C 2495 513 2490 514 2490 535 C 2490 546 2622 549
3253 553 C 4018 557 4128 562 4361 599 C 4430 610 4640 662 4680 679 C 4716 693 4730
692 4730 676 Z M 4850 546 C 4850 524 4642 360 4615 360 C 4611 360 4596 352 4582
342 C 4282 134 3202 85 2480 247 C 2417 261 2347 276 2325 281 C 2303 285 2265 296
2241 304 C 2217 313 2189 320 2179 320 C 2168 320 2160 327 2160 336 C 2160 354 2244
352 2450 330 C 2497 325 2596 316 2670 310 C 2744 304 2859 295 2925 289 C 3100 273
3644 277 3830 295 C 4154 326 4352 363 4525 427 C 4564 441 4604 454 4615 457 C 4626
460 4676 484 4725 510 C 4821 560 4850 569 4850 546 Z M 7215 458 C 7207 369 7208
370 7159 370 C 7108 370 7107 395 7156 473 C 7207 555 7225 550 7215 458 Z" fill="#0F0B06"/>
     <path d="M4110 8654 c0 -9 19 -38 43 -65 23 -26 58 -74 76 -106 86 -147 91
-150 251 -172 47 -7 106 -17 132 -24 87 -20 74 15 -52 143 -92 94 -159 134
-337 204 -105 41 -113 42 -113 20z m257 -146 c116 -54 198 -148 116 -133 -133
24 -132 24 -169 81 -58 91 -49 100 53 52z" fill="#0F0B06"/>
     <path d="M3860 7420 c-102 -21 -294 -149 -266 -177 3 -4 23 1 43 11 162 77
377 72 476 -12 35 -30 21 -42 -51 -42 -105 0 -246 -42 -333 -98 -15 -9 -41
-26 -58 -37 -41 -26 -40 -45 3 -45 21 0 68 17 121 46 110 57 127 56 137 -10
14 -97 84 -124 148 -57 39 40 63 51 75 31 19 -32 35 -8 29 42 -7 51 -7 51 17
44 121 -37 149 -34 203 22 56 57 59 75 12 67 -31 -6 -39 -1 -111 63 -143 129
-299 183 -445 152z" fill="#0F0B06"/>
     <path d="M4279 6620 c-103 -31 -278 -255 -314 -402 -13 -53 19 -30 57 41 51
94 109 171 131 171 9 0 17 -4 17 -10 0 -5 7 -10 15 -10 8 0 15 9 15 20 0 38
50 120 90 148 58 40 53 62 -11 42z" fill="#0F0B06"/>
     <path d="M4345 6202 c-252 -30 -484 -426 -381 -648 83 -178 296 -243 448 -137
54 37 65 62 78 184 14 117 33 175 84 252 87 131 126 274 87 321 -18 21 -223
39 -316 28z m223 -119 c7 -50 -49 -60 -260 -46 -199 13 -76 74 142 70 109 -2
115 -3 118 -24z m-479 -487 c31 -27 117 -49 209 -54 105 -5 120 -21 60 -64
-76 -53 -209 -22 -275 66 -44 57 -40 92 6 52z" fill="#0F0B06"/>
     <path d="M3890 5468 c0 -30 61 -137 102 -179 131 -135 266 -144 376 -25 71 77
55 95 -42 46 -135 -69 -315 -7 -392 135 -18 34 -44 47 -44 23z" fill="#0F0B06"/>
     <path d="M6685 5898 c-3 -35 -5 -108 -3 -163 3 -100 3 -100 33 -103 28 -2 31
1 58 68 39 95 57 94 57 -4 0 -77 13 -106 46 -106 16 0 144 253 144 284 0 13
-7 17 -27 14 -23 -3 -31 -12 -52 -65 -32 -82 -51 -83 -51 -4 0 133 -43 152
-93 41 -44 -97 -60 -93 -56 13 4 82 4 82 -23 85 -25 3 -26 1 -33 -60z" fill="#0F0B06"/>
     <path d="M7061 5843 c-34 -34 -49 -81 -58 -175 -6 -65 -5 -68 25 -97 39 -40
107 -44 146 -8 58 53 80 227 35 273 -42 42 -110 45 -148 7z m99 -38 c30 -36
-12 -206 -53 -213 -47 -9 -57 35 -32 133 23 85 55 116 85 80z" fill="#0F0B06"/>
     <path d="M7306 5812 c-11 -19 -67 -285 -62 -298 5 -12 56 -21 56 -9 0 25 45
205 56 223 17 26 52 29 61 5 4 -9 -3 -64 -15 -122 -29 -138 -28 -141 6 -141
27 0 28 2 57 123 30 122 30 122 60 122 40 0 42 -21 16 -134 -29 -123 -28 -141
7 -141 27 0 28 1 56 134 27 126 28 136 13 160 -18 27 -63 41 -106 31 -22 -5
-35 -1 -50 14 -15 15 -34 21 -65 21 -25 0 -48 5 -51 10 -7 12 -32 13 -39 2z" fill="#0F0B06"/>
     <path d="M7712 5694 c-30 -21 -30 -64 0 -64 12 0 30 8 40 17 23 21 51 8 56
-25 4 -25 -17 -37 -80 -46 -62 -9 -88 -40 -88 -107 0 -56 28 -79 95 -79 19 0
44 -6 55 -12 13 -8 23 -9 29 -3 14 16 63 253 56 276 -16 49 -116 76 -163 43z
m78 -178 c0 -51 -45 -91 -75 -66 -22 18 -18 47 7 64 28 20 68 21 68 2z" fill="#0F0B06"/>
     <path d="M7946 5648 c-12 -36 -56 -256 -56 -275 0 -19 6 -23 28 -23 28 0 29 1
51 108 28 130 56 169 91 127 10 -12 8 -37 -14 -132 -27 -121 -25 -137 15 -131
20 3 25 15 51 128 30 135 30 162 -5 184 -32 20 -156 31 -161 14z" fill="#0F0B06"/>
     <path d="M8974 5086 c-8 -34 2 -46 36 -46 30 0 51 35 35 59 -13 22 -64 13 -71
-13z" fill="#0F0B06"/>
     <path d="M9135 5028 c-2 -7 -5 -24 -7 -38 -2 -16 -11 -26 -28 -30 -32 -8 -38
-39 -11 -59 21 -16 21 -16 1 -131 -32 -184 -24 -210 62 -210 35 0 38 2 38 29
0 20 -6 30 -20 34 -24 6 -24 12 -2 141 17 98 22 107 65 120 24 8 21 39 -5 51
-19 8 -23 18 -23 55 0 43 -1 45 -33 48 -20 2 -34 -2 -37 -10z" fill="#0F0B06"/>
     <path d="M8702 5008 c-69 -35 -116 -222 -78 -313 39 -92 184 -86 216 10 14 42
7 55 -28 55 -21 0 -30 -7 -39 -30 -12 -32 -48 -41 -71 -18 -30 30 -2 197 38
233 27 24 54 10 58 -29 7 -59 82 -60 82 -1 0 75 -104 130 -178 93z" fill="#0F0B06"/>
     <path d="M8955 4968 c-13 -41 -56 -304 -53 -331 3 -32 39 -51 58 -30 12 12 72
343 66 359 -7 17 -65 18 -71 2z" fill="#0F0B06"/>
     <path d="M9284 4907 c-2 -7 2 -75 11 -151 25 -227 18 -271 -43 -278 -45 -5
-44 -53 2 -68 73 -24 81 -13 209 259 100 213 100 211 49 211 -37 0 -37 0 -76
-100 -51 -131 -66 -132 -66 -2 0 72 -4 103 -16 120 -17 24 -62 30 -70 9z" fill="#0F0B06"/>
     <path d="M2780 3636 c0 -28 86 -143 169 -226 164 -163 360 -228 516 -169 77
29 72 45 -17 52 -185 16 -435 145 -593 306 -49 51 -75 63 -75 37z" fill="#0F0B06"/>
     <path d="M9657 3734 c-4 -4 -7 -27 -7 -51 0 -37 -4 -45 -25 -53 -14 -5 -25
-14 -25 -19 0 -23 14 -41 31 -41 18 0 19 -9 19 -143 0 -177 6 -189 83 -185 60
3 82 43 35 63 -36 16 -41 262 -6 267 34 5 37 45 4 58 -21 8 -25 16 -28 57 -3
47 -4 48 -38 51 -20 2 -39 0 -43 -4z" fill="#0F0B06"/>
     <path d="M9074 3640 c-105 -42 -128 -322 -31 -384 87 -56 197 -4 197 94 0 48
-52 44 -77 -7 -23 -47 -55 -55 -78 -19 -26 39 -18 222 10 242 32 23 59 13 71
-26 14 -43 76 -54 82 -14 12 82 -89 148 -174 114z" fill="#0F0B06"/>
     <path d="M9375 3637 c-71 -33 -96 -109 -38 -115 27 -3 34 2 48 27 18 36 53 41
78 13 31 -34 13 -58 -63 -88 -62 -23 -97 -59 -105 -104 -15 -89 53 -153 139
-131 23 6 59 9 81 8 l40 -2 3 156 c3 166 -3 199 -41 223 -34 23 -106 29 -142
13z m105 -236 c0 -74 -50 -122 -90 -86 -28 25 -25 42 14 81 44 44 76 46 76 5z" fill="#0F0B06"/>
     <path d="M7060 9989 c-614 -38 -985 -174 -1281 -469 -240 -239 -360 -512 -399
-908 -52 -516 194 -1044 598 -1282 84 -50 82 -42 38 -162 -125 -345 -305 -678
-496 -918 -110 -139 -97 -141 139 -24 408 203 691 450 983 857 12 17 16 17 90
-2 425 -109 1461 -117 2014 -15 822 151 1281 642 1302 1391 25 911 -415 1388
-1383 1504 -300 35 -1226 52 -1605 28z m1460 -139 c839 -63 1246 -350 1382
-972 32 -147 37 -465 10 -624 -102 -596 -513 -957 -1230 -1079 -553 -94 -1549
-80 -1957 26 -139 37 -124 41 -182 -48 -132 -203 -373 -457 -578 -611 -139
-103 -179 -110 -116 -19 115 169 311 637 328 787 5 45 5 45 -74 83 -665 319
-818 1394 -284 2006 266 306 637 434 1351 465 165 7 1214 -3 1350 -14z" fill="#0F0B06"/>
     <path d="M9015 9454 c-121 -30 -173 -84 -190 -198 -19 -123 39 -206 191 -277
110 -51 144 -83 144 -134 0 -112 -171 -119 -189 -7 -6 37 -6 37 -84 40 -77 3
-77 3 -77 -36 0 -140 90 -216 255 -217 150 0 221 51 246 178 28 138 -27 222
-196 303 -104 49 -129 75 -129 132 0 98 137 106 162 8 15 -56 154 -67 160 -12
10 82 -55 180 -133 203 -49 15 -133 23 -160 17z" fill="#0F0B06"/>
     <path d="M7802 9429 c-76 -38 -112 -107 -112 -213 1 -116 45 -171 190 -239
111 -51 140 -78 140 -132 0 -57 -30 -85 -91 -85 -57 0 -76 14 -92 70 -13 45
-13 45 -87 45 l-75 0 3 -55 c7 -123 103 -200 248 -200 166 0 254 81 254 235 0
127 -42 179 -206 256 -97 45 -128 79 -120 128 15 93 156 101 156 9 0 -40 21
-49 97 -46 l68 3 -3 50 c-4 73 -35 130 -90 162 -65 38 -214 44 -280 12z" fill="#0F0B06"/>
     <path d="M6184 9426 c-3 -7 -4 -38 -2 -67 l3 -54 85 -5 85 -5 5 -330 5 -330
75 0 75 0 5 330 5 330 85 5 85 5 0 65 0 65 -253 3 c-208 2 -253 0 -258 -12z" fill="#0F0B06"/>
     <path d="M6785 9428 c-3 -7 -4 -189 -3 -403 l3 -390 75 0 75 0 5 170 5 170 55
3 c123 7 119 13 122 -176 l3 -167 75 0 75 0 0 400 0 400 -75 0 -75 0 -5 -155
-5 -155 -85 0 -85 0 -5 155 -5 155 -73 3 c-52 2 -74 -1 -77 -10z" fill="#0F0B06"/>
     <path d="M7425 9428 c-3 -7 -4 -189 -3 -403 l3 -390 70 0 70 0 0 400 0 400
-68 3 c-48 2 -69 -1 -72 -10z" fill="#0F0B06"/>
     <path d="M8555 9428 c-3 -7 -4 -189 -3 -403 l3 -390 75 0 75 0 0 400 0 400
-73 3 c-52 2 -74 -1 -77 -10z" fill="#0F0B06"/>
     <path d="M6331 8390 c-147 -31 -191 -130 -191 -425 0 -345 56 -435 269 -435
145 1 202 43 236 178 30 114 23 127 -65 127 l-75 0 -8 -61 c-14 -104 -91 -144
-155 -81 -27 27 -27 27 -30 224 -5 289 7 333 96 333 49 0 66 -19 84 -90 13
-55 13 -55 82 -58 88 -4 91 0 76 86 -27 161 -148 237 -319 202z" fill="#0F0B06"/>
     <path d="M6785 8368 c-3 -7 -4 -195 -3 -418 l3 -405 75 0 75 0 5 160 c5 160 5
160 40 160 35 0 35 0 100 -160 l66 -160 87 -3 c49 -2 87 1 87 7 0 5 -35 86
-77 181 l-77 172 43 35 c65 55 76 82 76 198 0 123 -23 175 -95 215 -43 24 -55
25 -223 28 -140 3 -178 1 -182 -10z m306 -157 c40 -41 42 -114 3 -161 -25 -29
-30 -31 -88 -28 l-61 3 -3 94 c-4 122 -4 121 63 121 49 0 60 -4 86 -29z" fill="#0F0B06"/>
     <path d="M7583 8368 c-5 -7 -15 -40 -22 -73 -7 -33 -49 -213 -93 -399 -46
-200 -75 -343 -70 -348 5 -5 42 -8 83 -6 l74 3 15 70 c21 98 18 95 119 95 101
0 106 -3 116 -75 14 -95 14 -95 105 -95 68 0 80 3 80 17 0 19 -188 802 -196
814 -9 15 -200 11 -211 -3z m121 -244 c17 -67 46 -219 46 -240 0 -23 -3 -24
-60 -24 -72 0 -71 -5 -38 173 21 116 38 146 52 91z" fill="#0F0B06"/>
     <path d="M8095 8368 c-3 -7 -4 -195 -3 -418 l3 -405 80 0 80 0 5 170 5 170
100 5 100 5 0 70 0 70 -100 5 -100 5 0 95 0 95 130 5 130 5 0 65 0 65 -213 3
c-165 2 -214 0 -217 -10z" fill="#0F0B06"/>
     <path d="M8604 8366 c-3 -7 -4 -38 -2 -67 l3 -54 85 -5 85 -5 5 -345 5 -345
75 0 75 0 5 345 5 345 83 3 82 3 0 69 0 70 -250 0 c-203 0 -252 -3 -256 -14z" fill="#0F0B06"/>
     <path d="M9247 8373 c-9 -15 20 -554 30 -564 6 -6 30 -9 54 -7 43 3 44 4 51
43 10 57 29 515 23 526 -7 11 -152 12 -158 2z" fill="#0F0B06"/>
     <path d="M9254 7687 c-3 -8 -4 -43 -2 -78 l3 -64 70 0 70 0 0 75 0 75 -68 3
c-50 2 -69 -1 -73 -11z" fill="#0F0B06"/>
    </g>
    <g transform="translate(0.000000,1024.000000) scale(0.100000,-0.100000)">
     <path d="M0 10050 l0 -190 1298 -2 1297 -3 85 53 c477 301 987 372 1615 228
190 -44 513 -176 626 -257 25 -17 60 -18 705 -19 l679 0 120 35 c287 86 544
109 1225 109 584 1 933 -16 1135 -55 163 -30 265 -53 328 -72 71 -22 82 -22
600 -19 l527 2 0 190 0 190 -5120 0 -5120 0 0 -190z" fill="#B53018"/>
     <path d="M3653 10054 c-3 -8 -4 -132 -1 -275 4 -211 2 -259 -9 -259 -7 0 -13
1 -13 3 0 1 -9 48 -20 105 -15 77 -20 144 -20 269 l0 166 -81 -6 c-45 -4 -88
-12 -95 -18 -21 -17 -14 -294 12 -491 8 -64 -18 -68 -34 -5 -27 107 -52 296
-52 400 0 75 -1 77 -24 77 -28 0 -197 -48 -209 -59 -4 -4 11 -63 32 -132 22
-68 52 -178 67 -244 15 -65 29 -127 32 -137 2 -11 -1 -18 -9 -18 -18 0 -34 40
-109 271 -68 213 -72 219 -107 219 -32 0 -123 -47 -123 -64 0 -7 15 -55 34
-107 19 -52 49 -134 66 -184 18 -49 41 -107 51 -127 23 -45 24 -58 4 -58 -15
0 -100 166 -176 343 -48 113 -46 112 -144 50 -88 -56 -85 -47 -36 -137 21 -39
60 -111 86 -161 26 -49 56 -102 66 -117 23 -31 24 -48 5 -48 -19 0 -111 124
-186 253 -35 59 -68 107 -74 107 -18 -1 -146 -121 -146 -137 0 -16 232 -347
251 -358 14 -9 11 -35 -5 -35 -16 0 -124 121 -221 248 -38 50 -75 92 -82 92
-15 0 -143 -141 -143 -158 0 -8 49 -66 110 -130 60 -65 110 -123 110 -129 0
-29 -35 -8 -147 87 -65 55 -123 100 -130 100 -16 0 -103 -116 -103 -138 0 -15
217 -205 278 -243 23 -14 30 -39 11 -39 -19 0 -131 70 -225 141 -51 38 -98 69
-106 69 -15 0 -98 -136 -98 -160 0 -9 54 -54 120 -100 109 -78 141 -110 107
-110 -17 0 -142 60 -196 94 -65 42 -78 35 -118 -67 -19 -48 -33 -93 -30 -100
2 -7 73 -42 156 -77 134 -58 183 -90 136 -90 -34 0 -164 31 -229 55 -100 36
-99 37 -125 -54 -35 -122 -38 -118 112 -160 159 -45 172 -66 35 -56 -51 3
-118 7 -148 8 l-55 2 -14 -87 c-8 -48 -12 -90 -8 -94 3 -3 41 -11 84 -16 138
-17 143 -18 143 -33 0 -11 -13 -15 -47 -16 -91 -1 -186 -23 -194 -44 -11 -30
-11 -183 1 -190 5 -3 41 -9 80 -12 92 -8 90 -24 -7 -48 l-78 -20 -6 -140 c-17
-363 -113 -610 -313 -805 -55 -53 -54 -48 -14 -105 39 -54 34 -54 116 -6 179
106 310 263 408 489 37 85 60 187 99 435 58 366 98 519 187 715 358 793 1088
1222 1786 1052 54 -13 60 -9 66 43 20 166 29 224 46 312 21 108 55 221 91 304
14 34 18 56 12 62 -16 16 -181 35 -194 22 -25 -25 -76 -317 -86 -496 -5 -91
-8 -107 -22 -105 -34 7 -25 352 15 579 6 36 6 36 -71 42 -111 10 -125 9 -132
-9z" fill="#B53018"/>
     <path d="M4222 9988 c-63 -80 -130 -369 -146 -630 -5 -81 -1 -89 44 -103 14
-4 53 -21 87 -36 81 -38 77 -40 118 43 83 164 281 395 407 473 66 42 62 54
-37 103 -107 53 -99 54 -176 -21 -73 -71 -128 -151 -219 -319 -85 -159 -120
-155 -59 6 38 102 173 312 240 372 39 35 23 46 -136 100 -80 27 -108 29 -123
12z" fill="#B53018"/>
     <path d="M3368 9180 c-401 -84 -788 -377 -998 -757 -81 -145 -185 -389 -214
-499 -31 -118 -30 -114 -11 -114 8 0 15 4 15 9 0 12 143 272 224 409 255 427
601 705 971 779 124 25 362 22 493 -7 57 -12 105 -20 108 -17 16 15 26 149 13
161 -55 51 -425 73 -601 36z" fill="#B53018"/>
     <path d="M4060 9088 c1 -18 6 -60 13 -93 13 -60 13 -60 62 -73 100 -27 93 -29
100 19 17 112 19 107 -70 144 -100 43 -105 43 -105 3z" fill="#B53018"/>
     <path d="M3455 8909 c-268 -34 -492 -153 -701 -371 -132 -139 -294 -370 -294
-420 0 -10 -4 -18 -10 -18 -5 0 -10 -7 -10 -15 0 -8 7 -15 15 -15 8 0 15 4 15
9 0 5 30 38 67 73 37 35 82 78 99 97 40 41 52 38 73 -19 21 -57 42 -61 64 -15
73 152 329 356 481 381 39 7 39 7 32 -62 -4 -38 -9 -86 -13 -106 -7 -48 11
-51 52 -8 111 116 401 204 554 168 63 -14 63 -16 1 -109 -83 -128 -230 -250
-361 -301 -70 -27 -74 -41 -16 -60 65 -22 59 -37 -50 -129 -130 -110 -263
-194 -345 -221 -77 -25 -88 -47 -38 -73 17 -9 30 -22 30 -29 0 -16 -72 -83
-202 -188 -51 -42 -138 -115 -193 -162 -105 -91 -189 -151 -370 -269 -194
-125 -288 -255 -302 -413 -12 -141 30 -173 72 -56 12 34 36 81 51 103 68 98
70 115 9 86 -104 -50 -50 30 70 104 78 48 166 80 302 109 218 47 343 96 506
200 111 69 99 77 -78 55 -147 -18 -155 -18 -155 -1 0 13 85 49 285 121 55 20
116 41 135 46 65 18 330 152 330 167 0 11 -9 13 -37 8 -294 -50 -154 27 371
205 256 86 331 120 440 196 123 85 118 99 -37 97 -266 -3 -464 -79 -774 -295
-295 -205 -369 -218 -180 -31 428 425 898 524 1515 321 72 -24 81 -21 64 24
-61 161 -247 377 -468 542 -263 197 -687 313 -999 274z m718 -248 c180 -63
314 -139 393 -223 106 -112 142 -177 92 -165 -34 8 -133 25 -214 37 -94 13
-142 34 -162 71 -41 74 -133 208 -171 248 -66 70 -59 74 62 32z" fill="#B53018"/>
     <path d="M4290 8517 c0 -38 66 -112 105 -118 22 -4 55 -10 73 -14 75 -17 10
62 -95 114 -69 34 -83 37 -83 18z" fill="#B53018"/>
     <path d="M3676 8494 c-132 -32 -384 -195 -298 -194 9 0 26 7 36 15 11 8 26 15
33 15 22 0 14 -29 -12 -46 -24 -16 -34 -44 -16 -44 46 0 215 103 294 178 96
93 89 107 -37 76z" fill="#B53018"/>
     <path d="M3113 8442 c-129 -86 -264 -236 -294 -329 -39 -116 -19 -122 71 -18
62 70 90 91 90 63 0 -7 -7 -22 -15 -32 -8 -11 -15 -26 -15 -33 0 -51 141 76
188 169 29 57 52 141 52 189 0 27 -28 24 -77 -9z" fill="#B53018"/>
     <path d="M2557 8062 c-94 -115 -166 -294 -167 -414 0 -82 50 -13 121 165 13
32 29 57 37 57 18 0 12 -27 -34 -141 -49 -124 -38 -134 47 -41 78 85 104 158
103 287 -2 173 -23 190 -107 87z" fill="#B53018"/>
     <path d="M3144 8065 c-79 -25 -244 -127 -244 -151 0 -19 7 -18 84 11 76 28 86
30 86 13 0 -7 -45 -33 -100 -58 -116 -51 -132 -75 -42 -65 177 20 462 172 462
246 0 23 -176 26 -246 4z" fill="#B53018"/>
     <path d="M4582 8020 c-13 -11 -22 -27 -20 -37 4 -22 131 -90 278 -149 196 -78
331 -160 393 -239 46 -58 73 -42 43 28 -67 159 -312 324 -588 397 -92 24 -78
24 -106 0z" fill="#B53018"/>
     <path d="M4465 7930 c-26 -42 -256 -169 -405 -223 -52 -19 -123 -44 -157 -56
-35 -13 -84 -42 -114 -68 -28 -24 -111 -84 -183 -133 -210 -141 -356 -300
-396 -427 -29 -95 -64 -155 -122 -212 -55 -54 -155 -111 -193 -111 -66 0 -92
-67 -55 -140 36 -71 29 -93 -30 -88 -62 6 -108 40 -152 113 -42 69 -58 71 -58
5 0 -127 -100 8 -117 158 -7 63 -32 69 -45 12 -30 -128 52 -294 205 -417 135
-109 213 -114 248 -15 22 64 49 25 49 -70 0 -89 -45 -138 -130 -138 l-50 0 0
-107 c0 -295 -114 -588 -298 -766 -97 -93 -248 -187 -349 -217 -61 -19 -56
-40 20 -92 67 -45 201 -147 362 -273 408 -320 792 -492 1198 -535 281 -30 433
75 430 298 -2 166 -76 357 -99 255 -28 -129 -129 -283 -185 -283 -25 0 -25 4
15 107 35 89 76 233 76 263 0 12 -30 30 -97 60 -363 157 -586 359 -737 665
-87 174 -124 295 -91 295 8 0 15 -5 15 -10 0 -30 124 -212 202 -294 258 -276
720 -527 943 -514 184 12 248 82 380 418 135 345 161 410 203 494 204 418 264
678 216 936 -8 47 -18 104 -21 128 -7 51 -30 56 -57 12 -25 -44 -59 -63 -95
-55 -37 8 -81 58 -81 91 0 28 -36 35 -46 9 -12 -31 27 -191 81 -324 67 -168
69 -201 21 -257 -49 -58 -151 -104 -227 -104 -21 0 -41 -4 -44 -10 -13 -21
-35 -10 -35 19 0 39 -40 56 -115 46 -54 -6 -55 -6 -55 18 0 69 91 94 210 56
81 -25 125 -19 177 26 l38 33 -34 93 c-18 52 -48 154 -66 226 -19 73 -44 151
-56 173 -22 39 -22 41 -5 95 42 135 261 295 405 295 l64 0 -6 53 c-15 122
-107 238 -248 312 -97 50 -173 99 -230 146 -48 40 -63 46 -74 29z m-445 -500
c116 -26 207 -77 298 -167 62 -60 90 -66 128 -28 30 31 44 32 44 4 0 -12 -28
-50 -67 -91 -64 -65 -70 -69 -103 -65 -145 22 -133 25 -125 -32 7 -54 -7 -69
-35 -36 -19 23 -35 18 -73 -20 -65 -65 -152 -37 -164 53 -8 60 -21 61 -131 8
-154 -73 -233 -58 -114 22 116 79 219 117 346 127 106 9 110 22 20 66 -115 57
-264 45 -421 -34 -100 -50 -100 -17 1 65 138 111 273 155 396 128z m340 -804
c0 -7 -14 -19 -30 -26 -55 -23 -120 -118 -120 -176 0 -24 -23 -34 -35 -14 -24
39 -85 -32 -170 -198 -45 -87 -67 -113 -82 -99 -7 7 47 146 95 242 65 132 179
247 271 276 42 12 71 10 71 -5z m303 -444 c47 -42 10 -187 -85 -336 -53 -82
-74 -148 -81 -248 -6 -93 -19 -128 -61 -167 -29 -27 -34 -51 -11 -51 63 0 -83
-177 -164 -200 -131 -36 -319 94 -366 254 -27 91 -7 106 37 28 88 -157 253
-218 393 -146 61 31 93 75 44 60 -160 -48 -316 10 -399 149 -32 54 -34 63 -35
149 -1 231 145 436 375 529 34 14 334 -4 353 -21z" fill="#B53018"/>
     <path d="M4080 5569 c0 -78 184 -140 268 -89 61 37 44 55 -56 57 -62 1 -106 8
-143 22 -62 24 -69 25 -69 10z" fill="#B53018"/>
     <path d="M2230 7670 c-85 -170 -114 -299 -96 -424 10 -61 24 -58 68 17 111
186 135 293 102 460 -9 46 -32 30 -74 -53z" fill="#B53018"/>
     <path d="M2730 7666 c-101 -37 -240 -125 -240 -152 0 -20 15 -18 95 12 100 37
105 38 105 22 0 -8 -40 -34 -90 -58 -136 -67 -120 -84 42 -44 107 26 328 164
328 204 0 32 -168 42 -240 16z" fill="#B53018"/>
     <path d="M5154 7448 c16 -93 18 -245 2 -318 -24 -110 -16 -117 51 -47 106 109
107 243 2 362 -40 46 -63 47 -55 3z" fill="#B53018"/>
     <path d="M2456 7329 c-109 -16 -256 -126 -256 -191 0 -25 2 -24 120 34 248
122 299 181 136 157z" fill="#B53018"/>
     <path d="M4855 7235 c-129 -68 -142 -90 -57 -91 64 -1 114 -22 138 -59 23 -35
53 -33 61 5 3 17 10 33 14 36 15 9 10 100 -6 114 -31 26 -97 23 -150 -5z" fill="#B53018"/>
     <path d="M2890 6880 c-30 -11 -76 -19 -102 -19 -38 -1 -48 -5 -48 -17 0 -14 9
-16 63 -12 77 7 167 36 167 54 0 17 -11 17 -80 -6z" fill="#B53018"/>
     <path d="M2236 6515 c-74 -112 -206 -214 -420 -321 -222 -112 -313 -188 -379
-320 -58 -115 -97 -274 -67 -274 6 0 37 7 70 17 60 16 60 16 100 100 65 133
125 187 331 297 176 93 257 173 337 331 32 65 72 167 72 187 0 17 -28 7 -44
-17z" fill="#B53018"/>
     <path d="M2380 6345 c0 -24 -100 -172 -174 -258 -88 -102 -150 -149 -276 -211
-168 -83 -230 -132 -230 -180 0 -24 27 -20 157 23 332 109 476 231 535 455 23
88 25 186 3 186 -8 0 -15 -7 -15 -15z" fill="#B53018"/>
     <path d="M2540 6029 c0 -31 -88 -229 -132 -296 -163 -250 -367 -363 -685 -379
-139 -7 -203 -1 -203 20 0 15 21 23 240 96 233 77 450 191 450 237 0 19 -3 18
-124 -42 -117 -57 -280 -109 -456 -145 -322 -65 -534 -138 -685 -235 -67 -42
-165 -133 -165 -152 0 -17 -3 -18 123 27 175 61 356 83 555 67 232 -18 385
-15 492 12 376 94 600 344 617 689 5 100 4 112 -11 112 -9 0 -16 -5 -16 -11z" fill="#B53018"/>
     <path d="M4834 5629 c9 -46 60 -143 122 -231 123 -176 152 -315 104 -503 -25
-97 -25 -105 0 -105 13 0 31 18 52 50 55 83 80 42 27 -44 -26 -43 -25 -66 4
-66 56 0 125 121 146 255 34 219 -57 401 -281 560 -45 32 -98 72 -116 87 -45
39 -66 37 -58 -3z" fill="#B53018"/>
     <path d="M4716 5394 c-11 -29 -6 -91 15 -196 11 -57 23 -141 26 -187 6 -83 6
-83 69 -113 103 -48 119 -28 112 137 -4 106 -22 148 -126 288 -65 87 -84 101
-96 71z" fill="#B53018"/>
     <path d="M1385 5106 c-99 -15 -118 -19 -217 -47 -86 -25 -87 -42 -5 -56 112
-19 213 -79 363 -214 85 -78 182 -149 201 -149 12 0 15 9 11 43 -8 66 -42 127
-107 192 -68 66 -75 85 -33 85 165 0 360 -313 251 -404 -49 -42 -149 -31 -231
26 -77 53 -75 5 5 -75 84 -86 132 -110 223 -110 129 0 181 45 204 178 57 331
-267 589 -665 531z" fill="#B53018"/>
     <path d="M892 4879 c-327 -58 -579 -356 -776 -920 -35 -102 -73 -215 -82 -252
-10 -37 -22 -67 -26 -67 -4 0 -8 -256 -8 -570 0 -398 3 -570 11 -570 6 0 29
13 52 29 138 93 364 127 543 80 210 -55 358 -149 570 -365 83 -85 157 -154
163 -154 18 0 7 43 -40 157 -180 444 -518 783 -889 892 -122 37 -131 56 -28
65 284 25 615 -188 823 -532 77 -127 95 -112 44 39 -59 175 -144 351 -259 534
-31 50 -83 133 -115 185 -32 52 -92 146 -132 208 -78 121 -83 132 -55 132 71
0 389 -363 532 -605 43 -73 116 -219 135 -267 14 -37 45 -67 45 -44 0 8 -50
243 -59 276 -63 239 -79 288 -173 540 -37 102 -113 275 -168 386 -55 110 -100
205 -100 212 0 46 115 -60 195 -178 89 -134 186 -342 250 -540 10 -30 21 -64
26 -75 4 -11 10 -31 13 -45 59 -289 79 -204 56 231 -17 326 -59 528 -158 762
-25 59 -42 110 -39 113 34 35 141 -120 201 -291 110 -314 152 -671 166 -1390
9 -469 15 -546 57 -697 18 -68 24 -69 117 -37 82 29 80 23 52 136 -14 54 -30
137 -35 183 -6 47 -13 109 -17 138 -9 70 16 73 41 5 90 -248 150 -383 170
-383 12 0 145 53 263 105 72 32 76 44 33 107 -58 86 -134 282 -165 429 -28
129 -66 316 -77 374 -6 33 -14 80 -19 105 -5 25 -23 128 -40 230 -37 220 -70
381 -80 395 -4 6 -10 30 -13 55 -6 46 -54 204 -77 251 -9 19 -22 28 -48 33
-47 7 -47 9 -28 -76 29 -134 82 -502 105 -733 13 -126 23 -493 15 -522 -5 -18
-34 -34 -34 -19 0 2 -11 57 -24 122 -23 113 -54 319 -76 502 -25 205 -33 266
-51 397 -11 77 -29 183 -40 235 -10 52 -19 105 -19 118 0 14 -25 47 -73 95
-65 64 -82 88 -143 212 -78 157 -117 204 -202 242 -65 29 -213 40 -310 22z" fill="#B53018"/>
     <path d="M4530 4829 c0 -6 33 -48 74 -93 91 -99 175 -231 211 -329 15 -40 31
-81 35 -92 23 -52 62 -200 78 -294 l17 -104 55 -14 c30 -8 78 -27 107 -43 29
-17 58 -30 64 -30 32 0 -46 265 -130 446 -23 48 -41 91 -41 95 0 21 29 6 61
-33 124 -151 189 -302 212 -492 12 -100 12 -100 67 -138 91 -63 93 -60 88 87
-5 157 7 162 55 23 33 -97 43 -133 64 -217 6 -25 22 -45 56 -69 47 -34 47 -34
89 -18 24 8 69 22 101 31 68 19 67 12 18 155 -192 567 -331 726 -862 984 -128
63 -374 156 -409 156 -6 0 -10 -5 -10 -11z" fill="#B53018"/>
     <path d="M2180 4720 c0 -47 91 -159 281 -345 668 -654 1160 -794 1582 -450 97
79 105 52 17 -59 -214 -270 -576 -324 -942 -141 -276 139 -498 323 -852 708
-100 108 -111 114 -121 58 -6 -36 0 -50 58 -153 128 -227 226 -407 321 -593
36 -71 70 -137 74 -145 5 -8 17 -31 27 -50 48 -95 130 -231 174 -291 61 -83
72 -97 125 -157 44 -49 73 -77 162 -152 48 -40 136 -90 158 -90 24 0 216 189
371 365 39 44 124 141 190 215 66 74 135 155 154 180 58 76 123 140 186 182
90 61 103 76 145 163 110 228 113 407 9 623 -45 93 -75 112 -62 40 18 -100 9
-330 -15 -388 -151 -377 -889 -284 -1616 206 -16 10 -36 24 -45 29 -41 26 -76
50 -81 56 -3 3 -32 24 -65 46 -33 23 -94 66 -135 97 -73 55 -100 67 -100 46z
m655 -1092 c180 -186 414 -309 633 -334 104 -11 65 -57 -65 -75 -211 -30 -438
106 -602 361 -93 143 -78 164 34 48z" fill="#B53018"/>
     <path d="M4410 4663 c0 -5 9 -37 21 -73 70 -225 63 -455 -21 -626 -47 -95 -51
-92 98 -68 53 9 140 19 192 22 95 7 95 7 98 41 2 18 -1 38 -7 44 -6 6 -11 21
-11 33 0 65 -114 341 -184 447 -70 105 -187 218 -186 180z" fill="#B53018"/>
     <path d="M1998 4306 c-87 -27 -85 -25 -53 -97 27 -61 71 -206 101 -329 30
-129 34 -147 59 -280 14 -74 32 -164 40 -200 8 -36 32 -164 55 -285 73 -394
80 -428 122 -592 26 -102 46 -163 54 -163 24 0 325 151 331 165 3 9 -11 34
-33 60 -121 141 -184 254 -255 455 -49 139 -99 315 -99 347 0 44 26 23 54 -44
122 -287 280 -550 422 -701 l53 -57 43 24 c97 54 208 134 208 149 0 10 -31 36
-73 62 -225 140 -466 475 -627 870 -46 114 -61 146 -172 380 -100 211 -128
260 -147 259 -9 -1 -46 -11 -83 -23z" fill="#B53018"/>
     <path d="M4565 3785 c-395 -36 -355 -9 -775 -525 -137 -168 -414 -456 -514
-534 -68 -54 -298 -206 -311 -206 -2 0 -48 -26 -102 -57 -85 -49 -265 -139
-428 -213 -462 -211 -751 -316 -985 -359 -36 -7 -85 -16 -110 -21 -25 -5 -83
-14 -130 -20 -192 -26 -282 -63 -439 -180 -239 -179 -397 -464 -495 -898 -71
-312 -50 -395 117 -450 408 -134 1148 98 1762 553 311 230 823 655 1100 914
39 36 119 110 178 164 109 100 117 114 95 162 -16 35 -5 40 44 22 191 -73 439
28 620 252 41 52 70 97 74 118 7 35 7 35 135 31 111 -3 131 -6 156 -24 52 -39
43 -51 -44 -58 -134 -11 -149 -15 -163 -42 -52 -96 216 -61 331 43 135 122
106 207 -114 339 -113 69 -186 124 -187 142 0 19 14 16 165 -34 147 -49 213
-85 280 -153 48 -51 54 -51 98 -1 145 159 97 257 -171 351 -234 82 -405 191
-275 176 47 -6 76 -13 288 -75 183 -53 268 -109 335 -220 30 -50 44 -52 66
-10 25 49 14 113 -40 223 -68 139 -149 207 -271 229 -219 40 -465 121 -465
154 0 17 67 12 253 -20 117 -20 269 -21 326 -3 22 7 23 6 16 -23 -6 -31 -6
-31 112 -87 65 -32 138 -65 163 -75 25 -10 77 -33 115 -51 186 -89 383 -22
228 77 -32 21 -141 92 -243 159 -389 255 -367 245 -525 243 -71 0 -193 -7
-270 -13z" fill="#B53018"/>
     <path d="M5797 3418 c-38 -10 -38 -10 -31 -67 10 -97 -40 -148 -171 -175 -71
-15 -75 -26 -54 -138 15 -83 27 -86 89 -23 84 86 246 122 369 81 77 -25 78
-21 24 79 -20 37 -53 109 -73 159 -41 101 -57 110 -153 84z" fill="#B53018"/>
     <path d="M5240 3223 c0 -10 10 -34 22 -53 25 -40 41 -260 19 -260 -6 0 -28
-18 -48 -41 -44 -49 -66 -61 -118 -68 -34 -5 -42 -11 -50 -37 -19 -58 -68
-123 -132 -174 -35 -28 -75 -70 -90 -93 -100 -155 -218 -233 -372 -246 l-66
-6 -26 -133 c-87 -428 -274 -777 -598 -1114 -148 -154 -149 -175 -3 -89 87 52
105 66 230 172 174 148 355 391 523 701 104 192 126 182 70 -34 -62 -236 -247
-602 -400 -788 -23 -29 -27 -50 -8 -50 26 0 205 160 298 266 174 199 358 461
432 615 81 170 75 -18 -7 -233 -22 -58 -78 -181 -162 -354 -136 -281 203 128
359 434 198 387 255 663 202 982 -24 146 -30 290 -12 290 9 0 26 -29 45 -77
134 -338 144 -665 32 -970 -32 -85 -226 -464 -242 -471 -14 -6 -8 -32 7 -32 8
0 15 6 15 14 0 8 6 16 13 19 16 6 159 206 208 292 174 300 211 640 110 1000
-5 17 -14 57 -21 90 -7 33 -19 89 -28 125 -9 36 -18 111 -21 168 l-6 103 -80
34 c-92 40 -95 41 -95 18z" fill="#B53018"/>
     <path d="M5761 2983 c-213 -75 -162 -393 62 -393 89 0 150 25 208 87 51 54 51
54 44 156 -9 122 -4 113 -72 143 -64 29 -172 32 -242 7z" fill="#B53018"/>
     <path d="M6216 2764 c-38 -98 105 -260 198 -224 26 9 27 12 24 72 -3 63 -3 63
-63 93 -33 16 -74 40 -92 53 -37 26 -59 28 -67 6z" fill="#B53018"/>
     <path d="M 8943.74 2217.34 C 8975.74 2297.34 8863.86 2349.62 8804.86 2232.62
C 8752.86 2127.62 8689.27 2061.01 8590.99 1918.86 C 8537.52 1841.52 8503 1815
8491 1763 C 8470 1679 8440 1696 8440 1791 C 8440 1853 8439 1853 8281 1790
C 8127 1729 8094 1706 8046 1630 C 7999 1557 7980 1552 7980 1615 C 7980 1666
7977 1669 7873 1703 C 7774 1735 7570 1734 7490 1702 C 7409 1669 7390 1685 7453
1732 C 7570 1822 7722 1842 7915 1795 C 8039 1764 8030 1764 8087 1799 C 8114 1814
8169 1840 8210 1855 C 8335 1900 8340 1902 8399 1940 C 8465 1983 8507 2049 8496
2093 C 8486 2135 8463 2126 8395 2052 C 8360 2015 8310 1972 8282 1957 C 7993 1800
7749 1886 7774 2138 C 7782 2210 7776 2214 7707 2179 C 7594 2121 7477 2021 7411
1925 C 7361 1852 7225 1629 7201 1579 C 7193 1563 7180 1550 7173 1550 C 7157 1550
7161 1588 7186 1679 C 7205 1748 7206 1747 7112 1711 C 7068 1694 6983 1669 6924
1655 C 6523 1558 6359 1322 6270 715 C 6264 671 6258 579 6257 510 L 6255 385
L 6409 382 C 6711 377 6886 459 7174 739 C 7305 868 7510 1101 7510 1122 C 7510
1129 7489 1149 7465 1165 C 7395 1212 7333 1310 7373 1310 C 7380 1310 7394 1304
7405 1296 C 7429 1280 7523 1247 7598 1229 C 7759 1190 8183 1305 8395 1445 C 8621
1595 8742.74 1706.34 8943.74 2217.34 Z" fill="#B53018"/>
     <path d="M 9179.39 2531.25 C 9138.9 2512.27 9091.35 2385.74 9030.35 2219.74
C 8921.35 1922.74 8864 1815 8753 1668 C 8685 1578 8697 1568 8799 1628 C 8968
1726 9043.2 1796.57 9194.2 2196.57 C 9276.2 2413.57 9247.96 2387.46 9278.96
2434.46 C 9295.96 2459.46 9295.46 2553.3 9258.09 2555.57 C 9235.65 2556.93
9280.68 2578.71 9179.39 2531.25 Z" fill="#B53018"/>
     <path d="M6089 2574 c-72 -77 -248 -115 -363 -79 -69 22 -72 20 -57 -51 23
-116 11 -368 -24 -506 -17 -69 28 -17 119 135 126 210 276 386 276 324 0 -7
-4 -17 -9 -22 -5 -6 -31 -55 -58 -110 -161 -323 -316 -707 -350 -865 -3 -14
-9 -29 -13 -35 -18 -23 -22 -95 -7 -95 9 0 19 10 22 23 9 28 24 62 102 226
187 395 388 597 643 645 l65 12 -4 115 c-4 135 0 125 -53 131 -86 10 -156 57
-217 146 -27 39 -40 40 -72 6z" fill="#B53018"/>
     <path d="M9460 2537 c-46 -30 -61 -59 -139 -264 -38 -98 -82 -209 -100 -247
-35 -76 -37 -86 -18 -86 16 0 81 99 157 240 115 212 132 242 161 290 52 85 19
122 -61 67z" fill="#B53018"/>
     <path d="M296 2494 c-77 -17 -181 -66 -240 -113 -21 -17 -43 -31 -47 -31 -5 0
-9 -70 -9 -155 0 -150 4 -171 29 -141 18 22 169 120 236 154 189 95 377 111
652 56 88 -17 83 -17 83 1 0 20 -118 106 -210 153 -150 77 -352 108 -494 76z" fill="#B53018"/>
     <path d="M8024 2306 c-73 -23 -103 -48 -131 -105 -51 -109 -12 -206 81 -199
61 4 62 36 2 92 -66 60 -59 83 15 52 41 -17 84 -61 98 -98 22 -60 150 -6 232
97 60 75 60 79 -3 111 -123 62 -208 77 -294 50z" fill="#B53018"/>
     <path d="M4175 2199 c-108 -95 -263 -172 -389 -194 -49 -8 -96 -21 -105 -27
-41 -31 -330 -306 -581 -553 -118 -116 -269 -258 -335 -315 -113 -97 -142
-130 -115 -130 18 0 144 42 155 51 5 5 15 9 23 9 28 0 198 87 301 154 187 121
417 310 559 460 75 78 104 88 71 23 -96 -186 -257 -397 -417 -546 -109 -102
-241 -211 -254 -211 -5 0 -8 -7 -8 -15 0 -8 5 -15 10 -15 22 0 170 62 170 71
0 5 7 9 15 9 49 0 278 158 408 281 210 198 440 509 517 699 12 30 30 73 40 95
25 59 52 168 48 195 -5 42 -30 33 -113 -41z" fill="#B53018"/>
     <path d="M500 2119 c-153 -34 -289 -105 -425 -221 l-74 -63 0 -242 c-1 -236 5
-279 28 -212 53 152 224 378 348 461 182 123 257 142 556 141 272 0 284 11
102 87 -16 7 -38 16 -48 21 -93 48 -333 62 -487 28z" fill="#B53018"/>
     <path d="M6399 2060 c-194 -58 -444 -351 -544 -635 -9 -27 -21 -59 -26 -70
-16 -38 -49 -148 -49 -165 0 -9 -4 -20 -9 -25 -5 -6 -16 -39 -24 -75 -9 -36
-22 -92 -30 -125 -29 -122 -57 -356 -57 -472 0 -104 20 -78 74 95 27 86 54
173 61 192 7 19 34 98 60 175 152 452 249 635 427 801 108 100 242 164 347
164 46 0 39 24 -14 44 -24 10 -67 37 -94 62 -50 45 -70 50 -122 34z" fill="#B53018"/>
     <path d="M642 1819 c-91 -15 -239 -103 -307 -181 -106 -123 -315 -587 -315
-700 0 -10 -4 -18 -10 -18 -6 0 -10 -95 -10 -265 0 -170 4 -265 10 -265 6 0
10 16 10 35 0 19 4 43 9 53 5 9 19 55 31 102 30 118 99 349 115 385 7 17 21
53 30 80 84 251 283 551 465 700 99 81 95 94 -28 74z" fill="#B53018"/>
     <path d="M6555 1782 c-110 -33 -219 -116 -307 -232 -96 -127 -228 -514 -287
-840 -37 -210 -51 -314 -42 -323 4 -4 41 -7 82 -5 85 3 75 -13 103 178 20 131
115 518 154 625 98 269 243 428 477 522 44 18 81 39 83 47 8 37 -170 56 -263
28z" fill="#B53018"/>
     <path d="M5142 763 c-25 -136 -38 -232 -46 -320 l-6 -63 54 0 55 0 -3 133 c-2
72 -4 185 -5 250 -1 90 -4 117 -14 117 -10 0 -20 -37 -35 -117z" fill="#B53018"/>
     <path d="M4590 643 c-44 -15 -61 -19 -185 -43 -230 -45 -544 -60 -1247 -60
-552 0 -628 -2 -628 -15 0 -8 3 -15 8 -15 4 0 70 -11 147 -24 589 -103 1366
-111 1590 -17 11 5 40 15 65 22 25 7 50 15 55 19 6 4 30 12 55 20 66 19 220
101 220 117 0 16 -22 15 -80 -4z" fill="#B53018"/>
     <path d="M4765 519 c-16 -10 -64 -33 -105 -50 -41 -16 -84 -34 -95 -39 -56
-26 -314 -91 -415 -105 -273 -38 -372 -46 -660 -51 -325 -7 -594 6 -1010 46
-257 24 -250 24 -250 8 0 -18 87 -42 324 -89 293 -59 523 -79 916 -80 173 0
322 2 330 5 8 3 66 10 128 16 384 37 633 125 856 304 58 47 43 75 -19 35z" fill="#B53018"/>
     <path d="M7157 461 c-36 -65 -35 -81 3 -81 35 0 50 27 50 91 0 54 -21 50 -53
-10z" fill="#B53018"/>
    </g>
    <g transform="translate(0.000000,1024.000000) scale(0.100000,-0.100000)">
     <path d="M7285 9863 c-765 -16 -1138 -129 -1434 -438 -415 -433 -472 -1190
-128 -1695 88 -128 280 -293 400 -345 79 -33 78 -27 32 -178 -67 -223 -194
-513 -290 -663 -61 -95 -36 -100 74 -17 246 184 465 413 608 636 49 76 52 77
152 47 219 -65 474 -85 1081 -85 511 0 589 4 855 46 741 117 1149 458 1272
1064 28 139 25 470 -5 623 -122 611 -530 918 -1307 982 -316 25 -796 34 -1310
23z m778 -431 c57 -25 95 -75 109 -144 18 -84 12 -89 -79 -86 -78 3 -78 3 -84
42 -17 103 -149 88 -149 -16 0 -50 18 -67 134 -123 161 -79 215 -165 187 -302
-26 -131 -92 -178 -251 -178 -175 0 -260 71 -260 216 0 40 18 49 100 49 58 0
70 -8 70 -47 0 -49 37 -83 90 -83 75 0 117 78 74 138 -9 13 -62 45 -118 72
-190 91 -252 224 -175 373 55 106 220 147 352 89z m1123 3 c79 -33 129 -111
122 -191 -3 -39 -3 -39 -77 -39 -75 0 -75 0 -84 35 -18 71 -104 101 -141 48
-48 -68 -12 -120 129 -191 137 -69 185 -131 185 -240 0 -145 -77 -225 -226
-235 -175 -11 -281 67 -287 213 l-2 50 80 0 c78 0 80 -1 83 -25 11 -91 89
-132 155 -80 72 57 39 126 -88 185 -124 58 -159 85 -191 151 -47 96 -19 240
57 296 67 50 196 60 285 23z m-2491 -65 l0 -75 -85 -5 -85 -5 -3 -328 -2 -328
-78 3 -77 3 -5 325 -5 325 -85 5 -85 5 -3 64 c-5 99 -27 92 260 89 l253 -3 0
-75z m245 -85 l5 -160 85 0 85 0 5 160 5 160 80 0 80 0 0 -405 0 -405 -80 0
-80 0 -5 165 -5 165 -85 0 -85 0 -5 -165 -5 -165 -77 -3 -78 -3 0 404 c0 222
3 407 7 411 4 4 39 5 78 4 l70 -3 5 -160z m635 -245 l0 -405 -80 0 -80 0 -3
395 c-1 217 0 401 3 408 3 9 26 12 82 10 l78 -3 0 -405z m1130 0 l0 -405 -75
0 -75 0 -3 395 c-1 217 0 401 3 408 3 9 25 12 77 10 l73 -3 0 -405z m-2168
-664 c68 -35 131 -159 121 -241 -3 -30 -3 -30 -83 -30 l-80 0 -7 50 c-12 89
-82 122 -138 67 -37 -37 -43 -91 -38 -316 4 -208 12 -229 90 -234 58 -4 75 16
91 104 l13 69 75 0 74 0 -1 -77 c-3 -192 -147 -291 -342 -233 -138 41 -166
107 -170 402 -5 318 23 396 164 449 50 19 188 13 231 -10z m630 -11 c90 -37
127 -113 121 -250 -4 -93 -27 -149 -76 -180 -43 -27 -42 -32 38 -213 90 -205
91 -193 -17 -190 l-86 3 -68 165 c-67 165 -67 165 -101 165 -33 0 -33 0 -36
-168 l-2 -168 -78 3 -77 3 -3 429 -2 429 172 -5 c134 -4 183 -9 215 -23z m632
3 c23 -57 201 -822 193 -830 -5 -5 -44 -8 -88 -6 -89 3 -77 -9 -106 118 l-13
55 -95 0 -95 0 -13 -55 c-29 -127 -17 -115 -110 -118 -102 -4 -99 -26 -28 275
30 125 71 302 91 393 21 91 42 171 47 178 7 8 42 12 109 12 94 0 100 -1 108
-22z m736 -58 l0 -75 -135 -5 -135 -5 0 -90 0 -90 100 -5 100 -5 0 -70 0 -70
-100 -5 -100 -5 -5 -175 -5 -175 -80 0 -80 0 -3 415 c-1 228 0 421 3 428 3 10
53 12 222 10 l218 -3 0 -75z m580 0 l0 -75 -85 -5 -85 -5 -5 -345 -5 -345 -80
0 -80 0 -3 347 -2 347 -88 3 -87 3 -3 64 c-5 99 -27 92 265 89 l258 -3 0 -75z
m294 3 c-1 -43 -6 -175 -12 -293 l-12 -215 -60 0 -60 0 -13 278 c-8 153 -11
285 -8 293 4 10 25 14 86 14 l80 0 -1 -77z m-14 -693 l0 -85 -70 0 -70 0 -3
74 c-4 103 -5 102 75 99 l68 -3 0 -85z" fill="#E1BD85"/>
     <path d="M6945 8135 c-8 -114 -8 -115 60 -115 79 0 110 29 110 102 0 86 -20
108 -99 108 l-64 0 -7 -95z" fill="#E1BD85"/>
     <path d="M7652 8017 c-32 -164 -34 -157 38 -157 70 0 67 -9 40 126 -29 142
-29 144 -43 144 -8 0 -21 -40 -35 -113z" fill="#E1BD85"/>
     <path d="M0 6990 c0 -1578 3 -2870 8 -2870 4 0 20 33 36 73 97 239 226 448
356 577 74 73 88 93 99 135 68 269 287 493 600 610 l86 33 17 89 c62 334 206
507 577 692 112 57 122 64 116 84 -4 12 -9 66 -12 120 -3 53 -9 97 -14 97 -4
0 -36 -20 -71 -44 -128 -89 -380 -216 -428 -216 -10 0 -26 12 -36 28 -9 15
-43 59 -74 97 -74 92 -130 176 -130 196 0 9 37 49 82 90 132 120 209 238 262
408 38 121 46 192 56 526 9 311 21 419 67 625 117 524 463 1081 885 1423 49
39 88 77 88 84 0 11 -236 13 -1285 13 l-1285 0 0 -2870z" fill="#E1BD85"/>
     <path d="M 4980 9848 C 4980 9841 4994 9826 5010 9815 C 5053 9786 5048 9777
4968 9729 C 4616 9522 4441 9299 4369 8967 C 4346 8863 4342 8872 4433 8814
C 4721 8628 4948 8366 5085 8064 C 5121 7983 5136 7963 5209 7894 C 5468 7650
5526 7385 5382 7105 C 5338 7020 5229 6907 5148 6860 C 5074 6819 5076 6824
5095 6736 C 5134 6546 5083 6295 4949 6010 C 4875 5855 4892 5816 5110 5645
C 5308 5489 5394 5370 5425 5205 C 5456 5043 5427 4846 5355 4738 C 5317 4681
5322 4670 5409 4601 C 5666 4399 5808 4166 5950 3707 C 5997 3560 6011 3543
6029 3616 C 6093 3871 6364 4045 6610 3989 C 6721 3964 6710 3954 6710 4075
C 6710 4250 6756 4366 6871 4481 C 6961 4571 7111 4639 7223 4640 C 7256 4640
7256 4645 7228 4707 C 7211 4746 7206 4775 7206 4859 L 7205 4963 L 7110 4995
C 6622 5160 6381 5499 6480 5884 C 6537 6107 6735 6300 6980 6370 C 7465 6510
8158 6184 8289 5756 C 8392 5419 8211 5081 7867 4966 C 7736 4922 7533 4910
7369 4936 C 7323 4944 7310 4922 7310 4837 C 7310 4726 7367 4652 7473 4627
C 7700 4572 7827 4436 7838 4236 L 7843 4143 L 7939 4136 C 7992 4133 8049 4127
 8067 4124 C 8097 4118 8100 4121 8124 4168 C 8162 4243 8264 4374 8331 4432
 C 8399 4492 8400 4496 8361 4581 C 8261 4803 8315 5052 8506 5245 C 8887 5629
 9654 5435 9806 4915 C 9869 4697 9783 4436 9600 4295 C 9276 4046 8835 4068
 8529 4348 C 8498 4377 8468 4400 8462 4400 C 8438 4400 8263 4201 8230 4136
 L 8195 4068 L 8225 4046 C 8398 3922 8489 3762 8490 3583 L 8490 3530 L 8560
 3528 C 8599 3527 8638 3526 8647 3526 C 8659 3525 8667 3540 8677 3584 C 8717
 3762 8853 3921 9046 4016 C 9502 4239 10013 4060 10106 3644 C 10174 3336 9936
 2986 9595 2894 C 9503 2869 9262 2863 9180 2884 C 8942 2944 8740 3135 8689
 3345 C 8683 3373 8674 3399 8670 3403 C 8663 3411 8525 3439 8493 3440 C 8486
 3440 8467 3410 8449 3374 C 8429 3331 8392 3281 8345 3231 C 8285 3168 8271
 3147 8265 3111 C 8261 3087 8251 3052 8244 3034 C 8222 2982 8226 2973 8285
 2946 C 8476 2859 8584 2595 8535 2336 C 8517 2242 8517 2242 8539 2211 C
 8551 2194 8645.84 2113.1 8649.38 2117.94 C 8925.77 2495.08 8873.81 2402.34
 8873.81 2402.34 C 8999.85 2350.61 9005.3 2260.12 9123.85 2584.93 C 9168.99
 2708.62 9388.57 2609.72 9337.26 2527.31 C 9337.26 2527.31 9474.58 2664.32
 9544 2650 C 9644.88 2629.19 9689 2551 9627 2453 C 9614 2432 9570 2354 9530
 2280 C 9332 1910 9194 1744 9010 1650 C 8989 1639 8937 1605 8894 1574 C 8802
 1509 8731 1471 8607 1423 C 8558 1404 8454 1355 8376 1315 C 8186 1215 7943
 1138 7748 1115 C 7675 1107 7638 1075 7493 897 L 7385 765 L 7374 640 C 7367
 571 7359 485 7355 448 L 7348 380 L 8794 380 L 10240 380 L 10240 5120 L 10240
 9860 L 9735 9860 C 9293 9860 9230 9858 9230 9845 C 9230 9837 9236 9830 9243
 9830 C 9272 9830 9502 9707 9576 9653 C 9890 9419 10053 9035 10053 8525 C 10053
 7710 9586 7207 8685 7051 C 8203 6968 7229 6973 6810 7061 C 6638 7097 6650 7099
 6608 7033 C 6405 6715 6021 6393 5610 6196 C 5430 6109 5412 6122 5521 6257
 C 5709 6492 5879 6806 6010 7161 C 6052 7275 6051 7282 5984 7321 C 5373 7670
 5181 8621 5587 9292 C 5713 9501 5963 9717 6190 9813 C 6299 9859 6285 9860 5610
 9860 C 5113 9860 4980 9857 4980 9848 Z" fill="#E1BD85"/>
     <path d="M7073 6280 c-390 -70 -612 -456 -453 -785 181 -374 921 -589 1315
-382 205 108 317 352 260 570 -65 251 -346 479 -710 577 -91 25 -323 36 -412
20z m-338 -324 c16 -11 17 -22 12 -85 -9 -93 10 -96 48 -5 26 62 29 65 59 62
31 -3 31 -3 34 -80 4 -98 21 -103 54 -15 20 53 28 62 48 62 21 0 26 -6 28 -32
4 -38 14 -41 42 -13 24 24 88 27 129 5 98 -50 34 -325 -75 -325 -37 0 -91 26
-103 48 -15 29 -13 140 4 187 18 49 18 55 2 55 -7 0 -37 -52 -66 -115 -44 -95
-57 -115 -75 -115 -37 0 -46 20 -46 97 0 94 -18 97 -56 8 -27 -62 -31 -66 -59
-63 -30 3 -30 3 -33 158 -3 189 1 204 53 166z m620 -146 c3 -5 23 -10 44 -10
23 0 48 -8 62 -19 19 -15 34 -18 69 -14 37 4 50 1 74 -18 34 -27 33 -67 -7
-224 -23 -94 -35 -108 -71 -82 -18 13 -17 17 9 130 29 124 28 147 -4 147 -28
0 -32 -9 -66 -139 -31 -120 -42 -135 -78 -109 -17 13 -16 19 9 130 28 121 27
148 -4 148 -30 0 -38 -17 -64 -135 -24 -110 -24 -110 -56 -113 -41 -4 -41 5
-2 178 17 73 30 134 30 136 0 9 49 3 55 -6z m474 -110 c56 -28 62 -57 37 -159
-8 -31 -20 -82 -26 -113 -10 -51 -14 -58 -35 -58 -13 0 -27 5 -30 10 -3 6 -26
10 -51 10 -34 0 -51 6 -69 25 -58 57 -6 165 79 165 46 0 78 18 74 42 -4 29
-34 35 -58 13 -26 -24 -54 -15 -58 16 -7 58 68 85 137 49z m166 -40 c3 -5 27
-10 52 -10 97 0 106 -32 65 -215 -28 -125 -38 -140 -76 -112 -18 13 -17 17 8
131 28 126 28 136 -10 136 -29 0 -37 -16 -59 -125 -24 -117 -23 -115 -55 -115
-42 0 -43 5 -7 169 29 139 34 151 54 151 12 0 25 -4 28 -10z" fill="#E1BD85"/>
     <path d="M7094 5773 c-25 -59 -30 -155 -9 -173 37 -31 75 38 78 145 2 59 1 60
-26 63 -24 3 -30 -2 -43 -35z" fill="#E1BD85"/>
     <path d="M7724 5507 c-32 -28 -27 -57 9 -57 29 0 43 14 52 53 9 35 -22 37 -61
4z" fill="#E1BD85"/>
     <path d="M4303 6095 c-73 -16 -83 -21 -83 -41 0 -12 26 -14 168 -12 167 3 167
3 170 29 3 22 -2 27 -29 33 -50 10 -159 6 -226 -9z" fill="#E1BD85"/>
     <path d="M8935 5334 c-11 -2 -45 -9 -75 -15 -238 -47 -440 -276 -440 -501 0
-354 427 -652 820 -574 564 113 646 751 130 1009 -134 67 -324 103 -435 81z
m93 -220 c17 -5 22 -14 22 -40 0 -39 -11 -48 -50 -39 -33 7 -43 48 -18 73 14
14 15 14 46 6z m182 -123 c0 -41 4 -51 20 -56 31 -10 27 -55 -4 -55 -14 0 -28
-4 -31 -10 -4 -7 -44 -219 -45 -238 0 -1 12 -7 26 -12 20 -8 25 -16 22 -38 -4
-32 -30 -39 -84 -22 -52 17 -56 40 -34 172 24 136 25 164 5 172 -24 9 -18 45
9 55 24 10 36 30 36 62 0 16 7 19 40 19 40 0 40 0 40 -49z m-380 14 c37 -19
50 -43 50 -95 0 -41 0 -41 -37 -38 -35 3 -38 6 -43 38 -8 58 -54 56 -81 -4
-25 -58 -37 -170 -19 -191 20 -24 49 -18 68 15 14 24 24 30 51 30 33 0 34 0
28 -37 -18 -110 -161 -133 -224 -36 -39 59 -8 240 52 300 38 38 102 45 155 18z
m188 -25 c18 0 15 -35 -18 -212 -16 -88 -30 -162 -30 -165 0 -2 -17 -3 -37 -1
-47 4 -47 23 -8 230 32 167 30 162 58 154 12 -3 28 -6 35 -6z m349 -135 c6
-157 24 -173 67 -60 38 100 44 107 84 99 46 -9 44 -18 -66 -246 -110 -226
-123 -244 -179 -235 -69 12 -88 77 -23 77 61 0 66 28 47 224 -24 235 -26 218
26 214 42 -3 42 -3 44 -73z" fill="#E1BD85"/>
     <path d="M7172 4525 c-307 -69 -451 -380 -308 -663 50 -100 53 -101 137 -63
41 19 76 36 78 38 3 2 -6 24 -20 51 -37 73 -35 188 6 261 108 196 393 247 609
111 71 -46 81 -36 51 51 -59 168 -318 268 -553 214z" fill="#E1BD85"/>
     <path d="M7315 4216 c-179 -57 -237 -209 -128 -336 54 -63 79 -57 172 38 77
78 168 139 254 170 61 22 60 40 -5 79 -90 54 -212 75 -293 49z" fill="#E1BD85"/>
     <path d="M7847 4023 c-4 -3 -7 -23 -7 -44 0 -57 -35 -141 -88 -210 -26 -34
-51 -68 -57 -75 -11 -15 49 -73 75 -73 40 1 280 327 280 380 0 25 -181 45
-203 22z" fill="#E1BD85"/>
     <path d="M7637 3986 c-83 -35 -227 -141 -227 -169 0 -11 106 -53 161 -64 48
-9 143 120 156 212 7 54 -2 57 -90 21z" fill="#E1BD85"/>
     <path d="M9320 3995 c-281 -51 -506 -239 -540 -452 -33 -205 142 -456 376
-538 93 -33 281 -35 398 -5 303 77 501 355 445 622 -56 262 -363 432 -679 373z
m420 -305 c4 -37 9 -46 28 -48 18 -3 22 -10 22 -37 0 -27 -4 -34 -22 -37 -22
-3 -23 -6 -23 -128 0 -122 1 -125 23 -128 19 -3 22 -10 22 -44 0 -40 0 -40
-56 -36 -81 7 -84 13 -84 185 0 143 0 143 -25 153 -18 7 -25 17 -25 35 0 18 7
28 25 35 21 8 25 16 25 48 0 48 6 54 50 50 34 -3 35 -5 40 -48z m-523 -73 c42
-42 40 -111 -4 -115 -29 -3 -34 1 -47 33 -19 45 -42 54 -69 26 -26 -25 -37
-174 -18 -224 17 -44 69 -35 85 13 22 71 99 43 78 -28 -39 -129 -217 -120
-253 13 -15 55 -6 202 15 243 39 75 156 97 213 39z m288 19 c51 -22 55 -37 55
-230 0 -176 0 -176 -28 -176 -15 0 -33 5 -40 12 -9 9 -18 9 -37 0 -88 -40
-171 19 -163 115 6 66 27 90 105 119 62 22 73 32 73 58 0 53 -64 65 -81 16
-12 -34 -74 -45 -85 -15 -29 75 103 142 201 101z" fill="#E1BD85"/>
     <path d="M9406 3399 c-39 -31 -34 -83 9 -87 37 -5 55 19 55 70 0 45 -21 51
-64 17z" fill="#E1BD85"/>
     <path d="M8099 3873 c-23 -43 -55 -97 -70 -120 -39 -57 -37 -68 16 -83 128
-36 235 -172 235 -297 0 -87 71 5 91 118 30 171 -5 285 -123 394 -91 84 -96
83 -149 -12z" fill="#E1BD85"/>
     <path d="M6405 3877 c-166 -55 -268 -177 -291 -346 -7 -51 -7 -51 29 -66 53
-22 63 -19 98 30 42 58 119 111 198 136 81 25 124 24 227 -3 l85 -22 41 41
c49 49 47 66 -11 134 -79 91 -255 136 -376 96z" fill="#E1BD85"/>
     <path d="M7083 3718 c-76 -25 -77 -33 -14 -76 61 -42 77 -39 108 21 42 80 19
93 -94 55z" fill="#E1BD85"/>
     <path d="M7291 3656 c-17 -29 -31 -61 -31 -71 0 -44 211 26 218 71 3 18 -6 24
-56 38 -90 25 -96 23 -131 -38z" fill="#E1BD85"/>
     <path d="M6877 3582 c-33 -35 -33 -37 1 -81 15 -19 41 -60 57 -91 30 -55 30
-55 94 -53 77 2 77 2 85 80 7 62 7 62 -61 97 -37 19 -81 44 -98 55 -39 27 -46
26 -78 -7z" fill="#E1BD85"/>
     <path d="M7537 3556 c-75 -53 -143 -78 -232 -85 -80 -6 -80 -6 -83 -54 -2 -32
1 -48 10 -51 27 -8 154 -39 180 -43 24 -5 43 9 142 103 125 118 128 124 91
148 -35 23 -54 20 -108 -18z" fill="#E1BD85"/>
     <path d="M7871 3551 c-35 -29 -35 -29 -9 -87 32 -75 47 -138 56 -239 l7 -80
50 2 c34 2 74 15 125 40 l75 38 -1 95 c-1 135 -34 194 -134 239 -66 30 -127
27 -169 -8z" fill="#E1BD85"/>
     <path d="M6470 3531 c-71 -22 -174 -107 -168 -139 4 -24 171 -182 191 -182 47
0 80 37 99 111 10 40 31 96 48 125 16 30 30 58 30 63 0 25 -138 41 -200 22z" fill="#E1BD85"/>
     <path d="M6736 3408 c-36 -62 -43 -98 -20 -98 22 0 124 26 131 34 15 15 -47
106 -72 106 -8 0 -25 -19 -39 -42z" fill="#E1BD85"/>
     <path d="M7642 3364 c-93 -86 -100 -105 -44 -133 63 -32 185 -72 200 -66 40
15 -13 275 -57 275 -9 0 -53 -34 -99 -76z" fill="#E1BD85"/>
     <path d="M6212 3208 c-26 -75 -27 -90 -6 -151 21 -62 36 -60 112 9 85 76 81
98 -32 182 -42 32 -50 28 -74 -40z" fill="#E1BD85"/>
     <path d="M7024 3252 c-7 -4 -13 -62 -17 -144 -6 -129 -5 -138 12 -138 46 0
181 78 181 105 0 7 -19 52 -41 99 -41 86 -41 86 -83 86 -22 0 -46 -4 -52 -8z" fill="#E1BD85"/>
     <path d="M7240 3239 c0 -23 44 -89 60 -89 16 0 60 50 60 68 0 10 -67 32 -99
32 -11 0 -21 -5 -21 -11z" fill="#E1BD85"/>
     <path d="M6815 3225 c-123 -34 -130 -38 -133 -83 -7 -87 96 -201 171 -190 55
8 80 290 25 287 -7 0 -35 -7 -63 -14z" fill="#E1BD85"/>
     <path d="M7412 3117 c-29 -29 -52 -56 -52 -61 0 -17 76 -99 137 -148 74 -59
69 -59 184 28 112 85 114 113 12 149 -43 15 -104 40 -135 56 -77 39 -85 37
-146 -24z" fill="#E1BD85"/>
     <path d="M8075 3064 c-22 -8 -71 -18 -108 -21 -68 -6 -68 -6 -101 -57 -32 -49
-114 -134 -164 -168 -73 -50 42 -77 159 -38 110 37 208 123 255 223 38 82 33
88 -41 61z" fill="#E1BD85"/>
     <path d="M6371 2973 c-73 -82 -74 -92 -12 -137 95 -70 171 -87 171 -38 -1 85
-55 242 -84 242 -8 0 -42 -30 -75 -67z" fill="#E1BD85"/>
     <path d="M7225 2955 c-51 -40 -147 -83 -216 -97 -62 -12 -69 -17 -106 -63 -66
-84 -150 -136 -242 -151 -26 -4 -45 -13 -48 -23 -3 -9 -18 -44 -35 -79 -36
-75 -34 -81 31 -188 59 -95 107 -147 189 -203 33 -22 76 -59 96 -83 36 -42 36
-42 98 -29 115 24 214 97 263 194 41 84 36 96 -30 72 -220 -79 -421 129 -320
332 97 194 415 168 477 -39 17 -57 28 -48 83 63 l50 100 -45 37 c-25 20 -79
69 -121 109 -85 82 -83 81 -124 48z" fill="#E1BD85"/>
     <path d="M6614 2943 c3 -16 9 -65 12 -110 7 -79 8 -83 31 -83 44 0 143 65 143
95 0 6 -17 17 -37 24 -20 8 -58 33 -83 57 -55 52 -75 56 -66 17z" fill="#E1BD85"/>
     <path d="M8086 2799 c-71 -72 -164 -121 -242 -127 -63 -5 -68 -17 -31 -72 30
-45 75 -148 83 -190 9 -42 23 -46 76 -19 91 47 238 34 367 -31 79 -40 86 -39
100 14 52 209 -96 488 -259 486 -29 -1 -45 -11 -94 -61z" fill="#E1BD85"/>
     <path d="M7554 2653 c-61 -135 -81 -171 -114 -207 -28 -30 -39 -53 -44 -89
-29 -195 -168 -359 -358 -421 -23 -7 -23 -28 2 -68 11 -18 20 -41 20 -50 0
-27 38 -22 106 12 86 43 123 78 203 189 94 131 165 187 355 277 78 37 78 37
73 78 -13 97 -159 316 -211 316 -8 0 -23 -17 -32 -37z" fill="#E1BD85"/>
     <path d="M7065 2666 c-37 -17 -70 -52 -84 -89 -54 -143 132 -242 285 -152 46
27 46 27 40 79 -17 127 -139 210 -241 162z" fill="#E1BD85"/>
    </g>
  </g>
</svg>