<?xml version="1.0" encoding="UTF-8"?>
<svg xmlns="http://www.w3.org/2000/svg" width="192" height="192" viewBox="0 0 697 697">
  <g fill-rule="evenodd">
    <g transform="translate(0.000000,697.000000) scale(0.100000,-0.100000)">
    <path d="M2564 6925 c-343 -50 -633 -194 -869 -430 -375 -374 -534 -909 -451
-1522 56 -418 -61 -786 -345 -1091 -33 -34 -59 -69 -59 -76 0 -25 255 -226
286 -226 21 0 228 224 294 318 77 109 151 243 182 330 24 66 37 74 76 46 32
-22 28 -38 -39 -159 -115 -206 -131 -245 -137 -345 -5 -88 -5 -88 -106 -161
-205 -149 -366 -340 -366 -436 0 -26 -7 -29 -160 -89 -362 -140 -574 -307
-773 -609 -36 -55 -73 -108 -81 -117 -17 -19 -25 -388 -8 -388 4 0 22 39 41
88 128 330 283 552 447 639 126 67 201 65 349 -9 172 -86 233 -187 305 -513
56 -256 97 -965 55 -965 -16 0 -18 5 -40 135 -51 288 -230 845 -272 845 -11 0
-14 -6 -9 -22 64 -221 137 -573 176 -846 30 -212 22 -224 -50 -85 -117 227
-276 483 -299 483 -19 0 -13 -20 58 -195 171 -418 251 -633 251 -669 0 -19
-39 1 -103 53 -160 132 -323 185 -546 179 -159 -4 -190 -13 -318 -91 -50 -29
-75 -68 -35 -52 128 49 432 49 602 0 101 -30 300 -165 300 -204 0 -32 -143
-66 -228 -55 -260 34 -448 -9 -629 -144 -63 -47 -63 -47 -63 -134 0 -49 3 -88
6 -88 4 0 43 35 88 78 93 88 168 131 276 161 121 34 145 21 68 -34 -68 -48
-173 -151 -214 -210 -37 -55 -37 -55 -131 -55 l-93 0 0 -130 0 -130 3485 0
3485 0 0 130 0 130 -807 2 c-937 3 -856 -12 -759 147 88 146 84 203 -23 376
-13 20 -20 55 -23 110 -4 80 -4 80 71 117 177 85 291 258 291 439 0 46 0 46
88 51 100 6 107 3 116 -54 17 -106 88 -195 196 -247 50 -23 66 -26 170 -26
357 2 495 103 495 365 0 137 -20 186 -113 271 -80 73 -90 75 -222 61 -58 -7
-140 -12 -181 -12 -155 0 -252 -62 -322 -207 -32 -68 -32 -68 -102 -76 -39 -5
-81 -14 -94 -20 -20 -10 -25 -9 -29 2 -44 133 -183 271 -287 287 -47 7 -61 28
-25 39 11 3 34 26 52 51 37 52 31 50 99 20 156 -68 378 -84 479 -34 236 117
305 388 144 567 -56 63 -123 95 -262 126 -292 65 -399 49 -521 -79 -120 -128
-127 -361 -14 -471 18 -17 33 -39 33 -48 0 -15 -76 -87 -92 -87 -4 0 -8 -7 -8
-15 0 -26 -18 -17 -66 35 -37 39 -115 104 -152 125 -1 1 -7 37 -12 81 -15 117
-72 225 -175 334 -98 102 -115 126 -115 162 0 40 9 41 125 13 199 -47 344 -25
470 71 91 69 125 293 62 412 -67 128 -127 163 -387 227 -375 93 -519 98 -663
22 -177 -93 -230 -333 -109 -492 68 -89 193 -153 365 -186 67 -13 67 -13 67
-88 0 -75 0 -75 94 -165 98 -96 127 -140 151 -233 24 -90 21 -105 -16 -101
-34 3 -44 15 -54 61 -10 47 -101 131 -170 157 -53 20 -72 22 -165 16 -105 -6
-105 -6 -170 75 -135 169 -339 318 -662 482 -124 63 -126 65 -104 119 34 81
29 179 -16 335 -10 36 -9 51 5 97 10 29 26 123 37 207 22 168 30 204 84 354
27 76 36 116 36 167 0 67 0 67 40 89 40 23 162 164 209 242 13 20 31 42 42 47
10 6 19 18 19 26 0 26 -59 128 -111 194 -47 58 -52 68 -90 223 -108 429 -276
691 -566 882 -52 34 -54 49 -13 140 31 70 37 100 20 110 -47 29 141 258 338
410 78 60 78 68 -8 135 -244 191 -693 283 -1096 225z m283 -107 c16 -8 26 -8
36 1 17 13 184 -2 200 -18 6 -6 2 -33 -11 -73 -93 -294 -122 -388 -130 -418
-8 -31 -12 -35 -38 -33 -404 34 -776 -116 -1000 -402 -33 -41 -65 -75 -71 -75
-7 0 -13 -7 -13 -15 0 -8 -21 -60 -47 -116 -44 -92 -50 -100 -73 -95 -38 7
-314 106 -323 115 -5 5 2 44 15 87 24 79 24 79 61 77 44 -3 47 10 10 42 -28
23 -28 23 4 89 19 37 39 66 48 66 8 0 61 -45 119 -100 57 -55 108 -100 115
-100 27 0 4 33 -99 135 -60 60 -110 116 -110 125 1 36 66 125 93 128 22 3 27
9 27 30 0 33 73 122 101 122 10 0 19 -4 19 -10 0 -5 7 -10 15 -10 12 0 14 8 9
38 -6 37 -4 40 59 95 90 80 92 79 156 -63 31 -69 59 -120 67 -120 20 0 19 5
-36 130 -64 146 -63 154 20 199 84 44 88 42 130 -68 19 -50 41 -91 48 -91 17
0 16 9 -18 112 -39 118 -41 113 36 134 67 18 67 18 85 -4 24 -31 37 -27 41 10
3 30 7 33 58 46 60 15 80 4 80 -45 0 -13 6 -23 14 -23 11 0 14 12 13 48 -2 47
-2 47 52 50 59 3 71 -5 71 -50 0 -18 5 -28 15 -28 11 0 15 11 15 43 0 24 3 46
6 50 9 8 105 -3 131 -15z m439 -50 c51 -9 64 -15 64 -30 0 -15 6 -17 43 -12
35 4 50 0 96 -28 75 -46 84 -63 47 -91 -130 -95 -262 -241 -309 -339 -36 -78
-29 -76 -127 -39 -96 35 -96 33 -29 271 28 102 55 203 61 224 15 64 28 68 154
44z m-402 -591 c14 -11 16 -20 9 -62 -8 -50 -8 -50 -153 -56 -265 -11 -467
-73 -659 -203 -100 -68 -99 -34 3 61 124 116 253 193 385 229 133 37 382 55
415 31z m231 -46 c70 -29 70 -29 73 -85 3 -64 5 -64 -81 -36 -34 11 -75 22
-90 25 -34 7 -48 39 -40 89 7 46 37 47 138 7z m-120 -197 c241 -58 546 -311
649 -537 40 -88 92 -245 102 -307 8 -49 -4 -52 -74 -16 -26 13 -66 29 -90 36
-55 17 -52 13 -105 167 -26 73 -51 141 -57 152 -14 28 -13 52 6 72 39 43 30
91 -24 139 -85 76 -210 160 -237 160 -19 0 -175 -244 -175 -273 0 -7 38 -50
86 -98 85 -85 85 -85 142 -235 57 -147 58 -149 90 -152 45 -5 50 17 22 102
-68 201 -97 258 -165 322 -36 34 -65 70 -65 80 1 33 83 159 107 162 35 5 148
-97 148 -134 0 -35 -32 -44 -67 -20 -63 45 -62 1 2 -83 61 -81 120 -198 161
-323 33 -98 33 -98 78 -98 95 0 308 -157 390 -285 68 -107 26 -101 -96 14
-217 206 -465 259 -798 171 -190 -50 -458 -163 -591 -248 -234 -150 -387 -202
-602 -202 -68 0 -66 7 22 90 128 122 111 114 276 121 198 8 229 21 362 146 56
52 130 116 165 141 42 32 63 54 63 68 0 17 10 23 58 33 65 14 322 138 322 156
0 7 -37 29 -82 51 -79 37 -87 39 -185 39 -116 0 -112 -4 -81 82 26 77 25 78
-57 64 -100 -18 -165 -51 -235 -121 -71 -71 -90 -73 -90 -5 0 57 -1 57 -110
-16 -88 -58 -134 -107 -168 -176 -20 -42 -42 -43 -42 -3 0 56 -72 16 -155 -86
-56 -69 -62 -83 -76 -177 -12 -77 -62 -187 -86 -187 -13 0 -12 213 2 392 19
234 247 547 515 704 202 118 528 170 745 118z m-1480 -339 c65 -25 136 -50
157 -55 46 -13 46 -11 5 -130 l-32 -94 -154 -1 c-176 0 -168 -5 -155 93 9 67
9 67 62 64 42 -3 52 0 52 12 0 11 -9 16 -29 16 -67 0 -84 15 -76 68 13 86 13
86 170 27z m1155 -205 c0 -27 -114 -146 -184 -192 -125 -81 -125 -31 0 118 66
79 184 126 184 74z m-350 -117 c0 -51 -18 -121 -44 -171 -26 -50 -146 -146
-162 -129 -10 10 45 178 71 217 36 56 105 130 121 130 10 0 14 -13 14 -47z
m613 2 c47 -20 -32 -79 -157 -117 -45 -13 -196 0 -196 18 0 17 98 92 137 104
31 10 187 6 216 -5z m-1410 -2 c104 -6 107 -7 107 -30 0 -32 -30 -58 -89 -80
-72 -25 -67 -43 11 -36 61 6 61 6 55 -38 -3 -24 -13 -48 -21 -55 -20 -14 -20
-30 -1 -38 10 -4 15 -20 15 -54 0 -48 -1 -49 -65 -97 -88 -67 -89 -97 -3 -55
79 38 84 19 35 -130 -14 -41 -42 -136 -62 -210 -59 -219 -150 -387 -315 -583
-97 -116 -99 -117 -150 -83 -50 33 -50 45 4 114 221 289 353 711 307 988 -6
38 -13 105 -16 149 -2 44 -7 110 -11 147 -11 105 -11 104 199 91z m1051 -179
c118 -17 -15 -94 -160 -94 -118 0 -123 14 -23 64 73 37 100 41 183 30z m-584
-136 c0 -124 -2 -130 -78 -230 -41 -55 -68 -64 -57 -21 3 15 13 78 21 140 14
117 20 135 62 191 44 58 52 45 52 -80z m368 -28 c114 0 117 -10 25 -81 -77
-59 -111 -69 -235 -69 -88 0 -98 2 -98 18 0 41 152 148 195 137 11 -2 62 -5
113 -5z m1195 -88 c92 -42 124 -67 158 -120 35 -55 36 -70 7 -81 -240 -94
-282 -105 -290 -79 -3 7 -12 9 -23 5 -17 -7 -18 -20 -10 -275 14 -434 17 -396
-33 -400 -24 -2 -75 4 -112 12 -38 9 -86 16 -107 16 -46 0 -63 14 -63 52 0 33
-24 38 -40 9 -31 -59 9 -120 86 -132 27 -4 74 -16 104 -27 102 -37 128 -37
190 0 55 33 55 33 55 258 0 225 0 225 45 230 25 3 60 15 77 28 61 43 83 19 83
-93 0 -86 -19 -163 -100 -407 -156 -467 -221 -616 -275 -630 -98 -27 -357 -7
-490 37 -166 56 -370 210 -498 378 -58 75 -84 87 -73 35 27 -135 195 -349 370
-472 104 -74 285 -164 345 -172 51 -7 51 -7 51 -73 0 -36 -7 -113 -15 -171
-18 -132 -18 -150 -2 -150 23 0 96 58 125 100 37 54 42 52 122 -47 78 -97 80
-107 32 -140 -194 -130 -775 -53 -1218 163 -121 59 -133 69 -156 131 -23 60
-81 143 -159 227 -38 41 -69 79 -69 84 0 20 186 152 214 152 14 0 26 2 26 5 0
2 29 121 64 262 36 142 67 273 71 291 6 31 8 32 61 32 51 0 56 2 74 33 34 55
28 67 -28 60 -57 -6 -96 10 -136 58 -34 41 -76 122 -76 149 0 33 67 27 116
-10 21 -16 47 -30 57 -30 18 0 24 25 7 35 -31 19 -10 61 46 88 76 37 147 106
210 204 65 101 127 151 277 226 151 75 424 158 592 181 102 14 240 0 308 -32z
m167 -313 c0 -59 -13 -69 -90 -69 -90 0 -92 16 -7 64 79 45 97 46 97 5z
m-1731 -121 c-1 -24 -118 -110 -140 -103 -32 10 -19 36 40 77 54 38 102 50
100 26z m-181 -240 c7 -7 12 -22 12 -35 0 -32 -93 -216 -141 -280 -102 -136
-89 9 16 192 36 63 65 118 65 124 0 15 33 14 48 -1z m82 -243 c0 -117 -38
-181 -199 -337 -134 -129 -161 -168 -161 -231 0 -47 -11 -54 -141 -88 -125
-33 -127 -32 -108 12 30 74 122 170 317 332 90 75 196 201 239 284 30 56 53
69 53 28z m2995 -589 c55 -14 149 -37 209 -51 233 -54 305 -121 314 -291 5
-100 -7 -143 -56 -185 -113 -100 -218 -107 -555 -36 -365 76 -430 114 -472
272 -66 252 188 384 560 291z m-3288 -369 c173 -177 203 -224 203 -321 0 -131
-159 -257 -293 -231 -58 11 -190 85 -307 171 -195 143 -328 211 -452 229 -27
4 -48 13 -48 19 0 14 251 136 279 136 55 0 265 -184 350 -307 26 -38 53 -42
138 -19 152 41 203 147 107 221 -67 51 -93 44 -59 -15 25 -44 19 -68 -25 -90
-53 -27 -46 -29 -131 53 -94 90 -174 158 -217 183 -54 31 -38 45 98 91 191 64
169 72 357 -120z m1740 3 c17 -10 37 -29 44 -42 7 -13 31 -52 54 -88 79 -124
146 -295 186 -475 32 -146 42 -169 72 -173 39 -5 43 31 18 161 -28 146 -51
221 -112 369 -27 67 -49 125 -49 130 0 30 92 -15 141 -68 50 -55 161 -290 213
-451 18 -53 41 -69 53 -36 10 25 -46 234 -96 361 -36 92 -29 93 101 14 188
-115 467 -382 399 -382 -5 0 -32 -21 -60 -46 -51 -46 -51 -46 -124 -40 -156
15 -413 -101 -491 -221 -25 -40 -43 -41 -93 -7 -121 83 -295 144 -409 144 -74
0 -423 -109 -462 -144 -13 -12 -70 -79 -125 -151 -56 -71 -143 -181 -194 -243
-51 -62 -133 -166 -182 -231 -90 -119 -90 -119 -388 -266 -301 -149 -466 -225
-489 -225 -10 0 -12 83 -11 392 1 486 -28 808 -99 1073 -14 53 -23 100 -19
103 7 7 131 -56 144 -73 4 -5 24 -68 44 -140 88 -316 121 -438 153 -560 18
-71 53 -207 77 -302 49 -186 51 -193 73 -193 36 0 37 116 3 232 -5 18 -45 161
-89 318 -43 157 -97 344 -120 415 -63 199 -66 186 32 159 10 -3 58 -85 117
-199 199 -387 408 -705 463 -705 36 0 29 30 -30 117 -135 201 -452 750 -452
784 0 12 9 21 28 25 15 3 39 10 54 16 34 13 35 12 119 -89 203 -243 470 -483
537 -483 46 0 22 37 -89 140 -160 149 -450 474 -449 504 1 6 12 25 25 41 29
35 10 46 189 -107 199 -169 424 -314 505 -325 93 -13 43 37 -191 189 -152 99
-224 151 -361 263 -106 86 -99 72 -81 165 7 39 -1 41 165 -39 307 -149 619
-217 984 -215 131 0 243 31 269 73 12 19 36 12 36 -11 0 -11 -16 -49 -35 -84
-41 -72 -46 -119 -14 -129 52 -17 123 121 122 236 -1 124 -47 293 -119 436
-57 114 -55 125 13 83z m2568 -435 c204 -54 285 -134 285 -281 0 -96 -79 -212
-176 -260 -109 -53 -406 -3 -527 90 -172 131 -117 411 93 475 56 17 213 6 325
-24z m-1192 -276 c31 -16 97 -81 97 -95 0 -15 -23 -24 -63 -24 -18 0 -52 -9
-76 -20 -56 -26 -68 -25 -75 5 -8 33 -71 95 -96 95 -25 0 -26 18 -2 36 21 17
184 19 215 3z m-263 -60 c0 -12 23 -47 50 -79 56 -65 57 -67 33 -86 -25 -18
-40 -17 -45 4 -3 10 -32 35 -66 57 -70 46 -75 63 -29 99 39 31 57 33 57 5z
m-316 -95 c56 -8 56 -11 6 -77 -21 -29 -51 -78 -65 -110 -15 -31 -29 -57 -31
-57 -3 0 -28 7 -55 16 -39 13 -73 16 -150 11 -122 -6 -128 5 -43 83 59 53 122
90 209 121 57 21 64 21 129 13z m200 -81 c86 -61 101 -80 85 -109 -10 -20 -18
-24 -37 -19 -30 7 -191 -41 -199 -60 -7 -19 -52 -20 -59 -1 -13 35 106 226
142 226 9 0 39 -17 68 -37z m536 23 c0 -8 -6 -16 -14 -19 -8 -3 -15 -26 -18
-57 -7 -67 -17 -77 -66 -62 -28 9 -42 21 -55 47 -9 19 -23 35 -32 35 -18 0
-20 29 -2 34 6 2 32 10 57 19 59 20 130 22 130 3z m101 -16 c10 -6 19 -20 19
-31 0 -31 -58 -139 -75 -139 -18 0 -18 0 0 75 8 33 12 70 9 82 -7 26 13 31 47
13z m-1588 -54 c109 -56 366 -235 367 -257 0 -25 -36 -52 -62 -46 -33 7 -151
58 -285 122 -64 30 -133 58 -154 61 -59 10 -299 -16 -299 -32 0 -18 24 -24
161 -39 187 -20 281 -76 402 -240 111 -149 130 -215 65 -223 -25 -3 -178 116
-178 138 0 59 -184 147 -357 170 -38 4 -83 12 -100 15 -29 7 -33 5 -33 -13 0
-29 36 -48 168 -91 190 -62 212 -79 232 -185 20 -108 -14 -206 -72 -206 -13 0
-18 8 -18 28 0 30 -46 117 -77 144 -18 17 -246 114 -290 125 -40 9 -26 -23 30
-70 60 -51 79 -62 155 -88 117 -40 157 -118 112 -216 -30 -67 -139 -115 -224
-99 -36 7 -37 8 -34 49 3 45 3 45 76 31 28 -5 32 -4 32 15 0 25 -28 45 -105
71 -83 28 -82 29 -89 -47 -11 -111 -31 -166 -80 -220 -73 -80 -194 -133 -309
-133 -79 0 -118 -32 -71 -58 29 -16 11 -40 -171 -232 l-180 -189 -787 -1
c-916 0 -838 -13 -705 123 105 106 143 128 292 167 181 47 527 166 644 221 57
27 106 49 110 49 8 0 423 209 538 271 96 52 145 97 236 220 26 35 97 129 157
209 61 80 150 201 199 270 96 136 110 146 223 175 35 9 90 25 123 35 140 44
236 37 358 -24z m1260 -32 c-6 -43 -4 -47 33 -85 21 -21 46 -39 56 -39 27 0
21 -23 -9 -37 -40 -19 -63 -16 -63 7 0 11 -6 20 -12 20 -7 0 -23 18 -36 40
-14 25 -30 40 -42 40 -30 0 -24 20 17 62 51 52 64 50 56 -8z m517 -40 c22 -20
40 -42 40 -48 0 -17 -98 -56 -138 -56 -40 0 -41 12 -5 85 33 66 48 69 103 19z
m-635 -101 c33 -37 31 -65 -6 -108 -36 -41 -48 -43 -94 -12 -43 28 -44 26 8
91 49 63 59 66 92 29z m2056 -32 c181 -114 180 -379 -2 -471 -48 -25 -264 -54
-333 -45 -155 21 -242 112 -240 255 2 171 86 256 261 265 54 3 121 9 148 14
90 16 118 13 166 -18z m-2572 -2 c49 -17 27 -109 -26 -109 -16 0 -113 94 -113
110 0 13 98 13 139 -1z m1434 -12 c86 -37 203 -197 143 -197 -8 0 -45 -16 -83
-35 -121 -62 -127 -56 -129 118 -1 142 -1 143 69 114z m-159 -34 c16 -101 3
-114 -56 -56 -46 45 -47 55 -5 76 47 23 54 21 61 -20z m-1079 -39 c29 -19 32
-62 11 -149 -11 -50 -11 -50 -61 -46 -42 3 -54 8 -82 40 -43 48 -42 57 19 118
56 56 74 62 113 37z m-345 -49 c28 -29 32 -39 24 -53 -28 -44 -101 2 -89 56 9
41 23 40 65 -3z m918 13 c-2 -19 -10 -24 -40 -26 -37 -3 -53 -25 -26 -34 16
-6 2 -38 -17 -38 -8 0 -15 5 -15 10 0 6 -9 10 -20 10 -38 0 -21 78 20 93 8 3
34 6 58 6 39 1 43 -1 40 -21z m387 -29 c116 -91 131 -129 50 -129 -54 0 -55 1
-55 29 0 22 -13 40 -55 79 -96 88 -47 105 60 21z m-804 -19 c24 -13 25 -39 2
-56 -31 -24 -43 -17 -43 26 0 41 8 47 41 30z m519 -60 c0 -56 -10 -65 -79 -76
-54 -9 -53 3 6 72 59 68 73 69 73 4z m-1139 -21 c52 -37 76 -69 50 -69 -17 0
-19 -124 -3 -200 15 -76 15 -76 -23 -125 -21 -28 -49 -76 -63 -107 -29 -69
-28 -69 -97 -18 -62 45 -104 111 -112 172 -6 40 -5 41 18 34 77 -25 147 -10
201 41 38 36 30 109 -23 218 -55 115 -47 123 52 54z m1266 19 c34 -31 29 -48
-12 -48 -33 0 -35 2 -35 35 0 41 14 44 47 13z m-985 -83 c26 -32 48 -65 48
-72 0 -26 -27 -12 -58 30 -18 23 -41 48 -52 55 -11 7 -20 21 -20 33 0 35 31
18 82 -46z m1608 23 c-1 -99 -42 -204 -112 -283 -49 -57 -67 -36 -68 80 0 22
-5 57 -11 78 -12 44 -3 61 37 71 38 10 124 66 124 82 0 8 7 14 15 14 11 0 15
-11 15 -42z m-1129 22 c12 -7 19 -21 19 -39 0 -27 -4 -30 -65 -45 -112 -28
-120 -20 -47 48 50 48 61 52 93 36z m706 -135 c4 -28 -40 -109 -61 -113 -9 -2
-33 11 -53 29 -49 43 -109 69 -160 69 -30 0 -43 4 -43 14 0 23 16 25 170 23
137 -2 145 -3 147 -22z m121 13 c24 -31 58 -288 39 -300 -23 -15 -37 -8 -37
17 0 37 -38 106 -62 113 -16 4 -18 10 -13 31 4 14 12 54 18 89 11 63 30 80 55
50z m-498 -15 c0 -29 -74 -193 -87 -193 -10 0 -13 6 -10 18 49 152 63 182 82
182 8 0 15 -3 15 -7z m-505 -53 c21 -24 60 -26 69 -5 7 18 36 20 36 2 0 -25
-80 -77 -119 -77 -10 0 -21 -5 -23 -11 -5 -16 -48 -1 -48 17 0 8 6 14 14 14 8
0 16 16 20 40 7 45 23 51 51 20z m336 8 c39 -33 43 -47 23 -84 -15 -27 -24
-34 -43 -32 -33 4 -49 32 -33 58 6 11 12 31 12 45 0 27 17 32 41 13z m333 -88
c59 -38 57 -55 -11 -96 -47 -28 -130 -50 -142 -38 -10 10 73 164 89 164 9 0
38 -14 64 -30z m-882 -47 c52 -34 74 -63 48 -63 -5 0 -10 -16 -10 -35 0 -31
-3 -35 -25 -35 -13 0 -40 -7 -59 -16 -45 -22 -60 -15 -91 45 -33 67 -32 83 12
114 49 35 55 34 125 -10z m348 -3 c0 -27 -27 -80 -41 -80 -51 0 -60 39 -18 74
37 31 59 33 59 6z m770 -4 c0 -8 12 -37 27 -66 22 -43 24 -53 12 -61 -20 -13
-49 -11 -53 4 -17 62 -27 118 -21 127 9 15 35 12 35 -4z m-1821 -78 c33 -109
147 -228 219 -228 17 0 20 -9 24 -82 12 -221 175 -296 405 -188 98 45 94 63
46 -185 -31 -161 -25 -155 -134 -155 -105 0 -106 1 -79 88 37 126 14 128 -50
4 -45 -87 -45 -87 -155 -87 -126 0 -117 -15 -100 173 11 129 -11 129 -44 0
-43 -170 -50 -179 -123 -176 -62 3 -62 3 -59 241 2 208 1 237 -13 237 -18 0
-18 0 -48 -270 -23 -205 -23 -205 -86 -205 -64 0 -64 0 -90 75 -122 343 -172
382 -112 88 17 -82 28 -153 25 -158 -3 -6 -50 -10 -104 -10 -112 0 -108 -2
-162 97 -48 88 -62 84 -53 -17 l7 -80 -232 0 c-221 0 -231 1 -231 19 0 25 284
300 361 349 32 20 84 53 115 72 31 19 87 65 125 103 64 62 71 67 112 67 112 0
332 143 379 246 18 38 43 30 57 -18z m1181 11 c0 -24 -42 -79 -61 -79 -23 0
-24 21 -4 60 16 30 65 44 65 19z m528 -62 c3 -34 1 -37 -23 -37 -14 0 -34 -4
-44 -9 -9 -5 -45 -13 -79 -17 -92 -10 -84 15 18 56 44 18 83 37 86 42 14 22
39 2 42 -35z m-802 2 c37 -23 39 -27 23 -82 -14 -51 -37 -46 -67 16 -37 77
-18 105 44 66z m-428 -29 c29 -52 28 -55 -17 -68 -78 -24 -83 -18 -50 59 26
59 37 61 67 9z m290 -75 c25 -54 7 -71 -35 -36 -26 22 -28 32 -11 49 19 19 34
14 46 -13z m1092 -30 c0 -31 -3 -35 -25 -35 -35 0 -32 -24 10 -72 63 -74 118
-194 112 -245 -6 -56 -50 -105 -129 -143 -31 -15 -71 -39 -90 -55 -49 -42 -96
-58 -145 -51 -36 5 -44 2 -60 -19 -26 -35 -240 -50 -274 -19 -79 70 -146 189
-174 304 -29 121 -30 125 -53 128 -40 6 -26 32 17 32 36 0 40 -3 43 -27 3 -29
17 -33 64 -18 19 6 24 1 34 -32 43 -130 148 -272 216 -289 29 -8 42 2 29 20
-116 161 -189 306 -170 336 21 35 131 -3 169 -59 87 -125 150 -171 238 -171
51 0 58 2 58 20 0 11 -4 20 -10 20 -18 0 -147 88 -164 111 -25 36 -20 46 30
63 89 30 194 116 194 159 0 3 7 21 15 41 22 52 65 53 65 1z m-810 7 c0 -5 11
-15 25 -22 34 -18 31 -33 -10 -53 -78 -37 -116 -11 -71 48 25 32 56 47 56 27z
m620 -26 c0 -64 -189 -127 -210 -70 -17 44 -13 54 23 54 17 1 61 7 97 14 87
18 90 18 90 2z m-320 -15 c20 -39 13 -54 -22 -47 -41 8 -43 11 -30 41 14 30
37 32 52 6z m-701 -36 c32 -25 66 -45 75 -45 32 0 14 -26 -46 -67 -171 -115
-322 -99 -323 33 0 59 0 59 84 77 46 9 96 24 110 31 37 20 35 20 100 -29z
m282 -107 c57 -11 57 -11 63 -84 11 -117 52 -231 115 -314 56 -75 55 -80 -28
-80 -68 0 -70 1 -99 36 -38 46 -81 176 -88 263 -10 135 -14 151 -35 151 -18 0
-26 20 -12 33 9 9 18 9 84 -5z" fill="#0F0B06"/>
    <path d="M2840 6721 c0 -16 -3 -43 -6 -60 -5 -24 -3 -31 8 -31 11 0 17 15 22
46 9 66 8 74 -9 74 -10 0 -15 -10 -15 -29z" fill="#0F0B06"/>
    <path d="M2646 4626 c-70 -30 -81 -39 -72 -62 7 -17 7 -17 121 6 78 16 235
-20 235 -54 0 -11 -32 -15 -154 -17 -138 -4 -157 -6 -183 -25 -59 -45 -5 -88
78 -63 39 12 56 6 128 -46 41 -30 87 -32 121 -5 37 29 80 27 80 -4 0 -35 -55
-74 -113 -82 -64 -9 -65 -34 -2 -34 69 0 182 57 244 124 33 35 48 33 68 -9 29
-61 55 -42 32 24 -11 30 -9 34 35 81 49 52 68 130 31 130 -8 0 -15 -8 -15 -18
0 -65 -56 -61 -264 17 -178 67 -275 77 -370 37z" fill="#0F0B06"/>
    <path d="M3281 3721 c-8 -5 -44 -7 -80 -4 -77 6 -169 -14 -248 -55 -73 -37
-71 -57 5 -46 86 12 372 13 409 1 39 -13 48 -7 39 27 -16 64 -82 104 -125 77z" fill="#0F0B06"/>
    <path d="M3190 3530 c-107 -4 -125 -7 -128 -22 -7 -36 211 -48 261 -14 30 21
36 47 10 44 -10 -1 -74 -5 -143 -8z" fill="#0F0B06"/>
    <path d="M2590 2719 c0 -21 183 -204 205 -204 40 0 30 40 -22 83 -147 123
-183 147 -183 121z" fill="#0F0B06"/>
    <path d="M4501 3173 c-25 -126 -26 -153 -8 -153 9 0 19 24 28 68 12 56 17 67
34 67 22 0 25 -26 11 -102 -7 -39 -6 -43 12 -43 16 0 21 12 32 75 14 84 7 105
-36 105 -22 0 -24 4 -24 45 0 87 -25 54 -49 -62z" fill="#0F0B06"/>
    <path d="M4667 3158 c-2 -7 -10 -46 -18 -87 -15 -86 -6 -101 66 -101 41 0 41
0 58 78 21 95 21 104 1 100 -11 -2 -22 -24 -33 -68 -13 -53 -20 -65 -36 -65
-22 0 -23 10 -10 103 7 43 5 52 -8 52 -8 0 -17 -6 -20 -12z" fill="#0F0B06"/>
    <path d="M4821 3068 c-7 -40 -15 -83 -18 -95 -4 -18 -1 -23 14 -23 17 0 22 12
33 70 11 58 17 70 32 70 18 0 19 -5 13 -75 -6 -63 -5 -75 7 -75 11 0 20 21 30
67 10 51 19 69 32 71 19 4 19 -45 0 -130 -5 -21 -3 -28 9 -28 18 0 21 9 38 97
14 75 9 93 -29 93 -15 0 -37 7 -48 15 -10 8 -37 15 -60 15 -41 0 -41 0 -53
-72z" fill="#0F0B06"/>
    <path d="M5077 3083 c-20 -20 -6 -34 29 -27 33 6 36 5 32 -17 -2 -18 -11 -25
-38 -29 -63 -11 -90 -61 -54 -101 26 -29 92 -27 99 4 30 132 31 147 10 147 -8
0 -15 7 -15 15 0 15 -50 22 -63 8z" fill="#0F0B06"/>
    <path d="M5196 2979 c-20 -88 -20 -109 -1 -109 13 0 20 19 39 103 7 30 31 46
47 30 7 -7 5 -33 -5 -77 -20 -82 -20 -76 4 -76 11 0 20 2 20 4 0 2 7 38 16 81
19 94 8 115 -61 115 -43 0 -43 0 -59 -71z" fill="#0F0B06"/>
    <path d="M5550 2370 c-23 -45 -28 -141 -7 -158 41 -34 107 -16 107 30 0 19
-25 25 -35 8 -3 -5 -15 -10 -26 -10 -22 0 -27 58 -9 104 12 32 49 36 57 6 8
-31 33 -25 33 8 0 67 -87 76 -120 12z" fill="#0F0B06"/>
    <path d="M5808 2365 c-10 -13 -18 -41 -18 -62 0 -21 -5 -58 -11 -82 -10 -46 6
-81 38 -81 16 0 17 22 2 37 -17 17 10 125 33 131 19 5 24 27 8 37 -5 3 -10 15
-10 26 0 26 -21 23 -42 -6z" fill="#0F0B06"/>
    <path d="M5707 2285 c-21 -92 -21 -105 -3 -105 13 0 46 115 46 161 0 50 -28
14 -43 -56z" fill="#0F0B06"/>
    <path d="M5935 2210 c7 -108 7 -111 -14 -117 -24 -6 -29 -43 -7 -43 39 0 135
165 136 233 0 31 -33 15 -44 -21 -13 -46 -34 -41 -38 10 -2 32 -8 44 -21 46
-18 4 -18 -3 -12 -108z" fill="#0F0B06"/>
    <path d="M6456 1638 c-20 -39 -20 -54 -1 -62 10 -4 15 -20 15 -53 0 -63 18
-97 53 -101 32 -4 37 17 7 36 -22 13 -31 132 -10 132 16 0 12 27 -5 34 -8 3
-15 15 -15 26 0 31 -27 24 -44 -12z" fill="#0F0B06"/>
    <path d="M6312 1608 c-15 -15 -16 -48 -1 -48 7 0 17 7 24 17 15 20 45 11 45
-14 0 -21 -29 -50 -57 -55 -31 -6 -31 -85 0 -99 18 -8 30 -8 45 0 11 6 30 11
41 11 20 0 20 4 15 78 -8 95 -23 122 -67 122 -18 0 -38 -5 -45 -12z" fill="#0F0B06"/>
    <path d="M6149 1584 c-23 -28 -23 -124 0 -161 32 -50 111 -41 111 12 0 27 -24
34 -34 10 -7 -20 -42 -19 -50 1 -24 64 7 154 39 111 16 -22 35 -22 35 1 0 41
-73 60 -101 26z" fill="#0F0B06"/>
    <path d="M5861 1079 c-101 -18 -201 -81 -237 -151 -19 -36 -22 -36 -99 13 -69
44 -115 48 -115 11 0 -30 21 -49 95 -88 70 -36 70 -36 70 -122 0 -200 123
-328 358 -373 384 -73 557 -53 677 78 150 164 106 433 -88 532 -102 52 -548
120 -661 100z m403 -118 c226 -40 277 -66 328 -166 98 -190 -49 -393 -282
-388 -139 3 -408 46 -474 76 -176 81 -232 247 -135 399 82 127 197 143 563 79z" fill="#0F0B06"/>
    <path d="M5977 803 c-32 -175 -32 -173 -9 -173 17 0 22 10 32 70 10 60 15 70
32 70 20 0 20 -4 14 -81 -7 -74 -6 -80 10 -77 14 2 21 21 32 82 16 90 11 108
-34 116 -26 5 -29 9 -27 43 2 30 -1 37 -16 37 -15 0 -21 -15 -34 -87z" fill="#0F0B06"/>
    <path d="M5836 831 c-38 -42 -48 -139 -16 -171 36 -36 100 -21 100 22 0 23
-19 23 -35 1 -8 -10 -19 -14 -30 -9 -17 6 -17 99 1 127 9 15 44 10 44 -6 0 -8
9 -15 20 -15 26 0 27 31 2 53 -25 22 -65 21 -86 -2z" fill="#0F0B06"/>
    <path d="M6157 783 c-20 -19 -5 -34 31 -31 60 5 51 -29 -13 -50 -90 -30 -70
-122 26 -122 42 0 44 3 55 114 6 60 5 71 -11 83 -20 14 -77 18 -88 6z" fill="#0F0B06"/>
    <path d="M6307 728 c-17 -68 -20 -158 -4 -158 17 0 23 19 32 113 6 56 5 67 -8
67 -8 0 -17 -10 -20 -22z" fill="#0F0B06"/>
    <path d="M6392 668 c-15 -107 -15 -108 7 -108 16 0 20 10 26 63 9 77 19 97 50
97 16 0 25 6 25 15 0 11 -12 15 -48 15 -49 0 -49 0 -60 -82z" fill="#0F0B06"/>
  </g>
    <g transform="translate(0.000000,697.000000) scale(0.100000,-0.100000)">
    <path d="M0 6850 l0 -120 988 -2 c987 -3 987 -3 1097 49 474 222 1089 219
1476 -7 67 -40 67 -40 1738 -40 l1671 0 0 120 0 120 -3485 0 -3485 0 0 -120z" fill="#B53018"/>
    <path d="M2716 6833 c-3 -4 -6 -26 -6 -50 0 -32 -4 -43 -15 -43 -10 0 -15 10
-15 28 0 45 -12 53 -71 50 -47 -3 -54 -6 -57 -25 -4 -27 -20 -30 -36 -7 -10
14 -18 14 -66 2 -51 -13 -55 -16 -58 -46 -4 -37 -17 -41 -41 -10 -18 22 -18
22 -85 4 -77 -21 -75 -16 -36 -134 34 -103 35 -112 18 -112 -7 0 -29 41 -48
91 -42 110 -46 112 -130 68 -83 -45 -84 -53 -20 -199 55 -125 56 -130 36 -130
-8 0 -36 51 -67 120 -64 142 -66 143 -156 63 -63 -55 -65 -58 -59 -95 5 -30 3
-38 -9 -38 -8 0 -15 5 -15 10 0 6 -9 10 -19 10 -28 0 -101 -89 -101 -122 0
-21 -5 -27 -27 -30 -27 -3 -92 -92 -93 -128 0 -9 50 -65 110 -125 103 -102
126 -135 99 -135 -7 0 -58 45 -115 100 -58 55 -111 100 -119 100 -9 0 -29 -29
-48 -66 -32 -66 -32 -66 -4 -89 37 -32 34 -45 -10 -42 -37 2 -37 2 -61 -77
-13 -43 -20 -82 -15 -87 9 -9 285 -108 323 -115 23 -5 29 3 72 94 30 63 45
107 41 121 -4 17 -1 21 18 22 17 0 38 18 74 66 215 280 597 433 999 400 26 -2
30 2 38 33 8 30 37 124 130 418 13 40 17 67 11 73 -16 16 -183 31 -200 18 -10
-9 -20 -9 -36 -1 -26 12 -122 23 -131 15z" fill="#B53018"/>
    <path d="M3146 6772 c-3 -5 -9 -26 -14 -48 -6 -21 -33 -122 -61 -224 -67 -238
-67 -236 29 -271 98 -37 91 -39 127 39 47 98 179 244 309 339 37 28 28 45 -47
91 -46 28 -61 32 -96 28 -37 -5 -43 -3 -43 12 0 28 -189 58 -204 34z" fill="#B53018"/>
    <path d="M2620 6175 c-223 -31 -366 -100 -536 -258 -102 -95 -103 -129 -3 -61
192 130 394 192 659 203 145 6 145 6 153 56 7 42 5 51 -9 62 -22 16 -136 15
-264 -2z" fill="#B53018"/>
    <path d="M2977 6124 c-8 -50 6 -82 40 -89 15 -3 56 -14 90 -25 86 -28 84 -28
81 36 -3 56 -3 56 -73 85 -101 40 -131 39 -138 -7z" fill="#B53018"/>
    <path d="M2680 5949 c-355 -46 -608 -199 -792 -476 -140 -211 -152 -253 -163
-585 -4 -139 -3 -168 8 -168 24 0 74 110 86 187 14 94 20 108 76 177 83 102
155 142 155 86 0 -40 22 -39 42 3 34 69 80 118 168 176 109 73 110 73 110 16
0 -68 19 -66 90 5 70 70 135 103 235 121 82 14 83 13 57 -64 -31 -86 -35 -82
81 -82 98 0 106 -2 185 -39 45 -22 82 -44 82 -50 0 -21 -229 -133 -317 -156
-30 -7 -43 -16 -43 -28 0 -10 -14 -26 -31 -36 -43 -26 -141 -107 -235 -196
-110 -105 -151 -121 -344 -129 -165 -7 -148 1 -276 -121 -88 -83 -90 -90 -22
-90 215 0 368 52 602 202 133 85 401 198 591 248 333 88 581 35 798 -171 122
-115 164 -121 96 -14 -82 128 -295 285 -390 285 -45 0 -45 0 -78 98 -41 125
-100 242 -161 323 -64 84 -65 128 -2 83 35 -24 67 -15 67 20 0 37 -113 139
-148 134 -24 -3 -106 -129 -107 -162 0 -10 29 -46 65 -80 68 -64 97 -121 165
-322 28 -85 23 -107 -22 -102 -32 3 -33 5 -90 152 -57 150 -57 150 -142 235
-48 48 -86 91 -86 98 0 29 156 273 175 273 27 0 152 -84 237 -160 54 -48 63
-96 24 -139 -19 -20 -20 -44 -6 -72 6 -11 31 -79 57 -152 53 -154 50 -150 105
-167 24 -7 64 -23 90 -36 92 -46 96 -30 38 151 -70 218 -145 334 -300 470
-242 210 -467 289 -730 254z" fill="#B53018"/>
    <path d="M1362 5628 c-5 -7 -13 -35 -17 -61 -7 -44 -5 -49 14 -54 26 -7 28
-29 2 -36 -15 -4 -21 -18 -26 -71 -11 -96 -19 -91 156 -91 l154 1 32 94 c41
119 41 117 -5 130 -21 5 -92 30 -157 55 -130 49 -138 51 -153 33z" fill="#B53018"/>
    <path d="M2572 5389 c-55 -28 -182 -178 -182 -216 0 -44 125 32 218 131 91 98
74 139 -36 85z" fill="#B53018"/>
    <path d="M2250 5273 c-24 -27 -53 -64 -65 -83 -26 -39 -81 -207 -71 -217 16
-17 136 79 162 129 41 80 60 218 30 218 -8 0 -33 -21 -56 -47z" fill="#B53018"/>
    <path d="M2717 5280 c-39 -12 -137 -87 -137 -104 0 -18 151 -31 196 -18 125
38 204 97 157 117 -29 11 -185 15 -216 5z" fill="#B53018"/>
    <path d="M1330 5265 c-9 -11 -11 -34 -6 -83 4 -37 9 -103 11 -147 3 -44 10
-111 16 -149 46 -277 -86 -699 -307 -988 -54 -69 -54 -81 -4 -114 51 -34 53
-33 150 83 165 196 256 364 315 583 20 74 48 169 62 210 49 149 44 168 -35
130 -86 -42 -85 -12 3 55 64 48 65 49 65 97 0 41 -3 48 -20 48 -26 0 -26 24 1
41 13 9 22 29 26 58 6 44 6 44 -55 38 -78 -7 -83 11 -11 36 59 22 89 48 89 80
0 23 -3 24 -107 30 -154 10 -179 9 -193 -8z" fill="#B53018"/>
    <path d="M2391 5064 c-100 -50 -95 -64 23 -64 145 0 278 77 160 94 -83 11
-110 7 -183 -30z" fill="#B53018"/>
    <path d="M1938 5038 c-42 -56 -48 -74 -62 -191 -8 -62 -18 -125 -21 -140 -11
-43 16 -34 57 21 76 100 78 106 78 230 0 125 -8 138 -52 80z" fill="#B53018"/>
    <path d="M2200 4927 c-84 -45 -150 -101 -150 -129 0 -16 10 -18 98 -18 124 0
158 10 235 69 92 71 89 81 -25 81 -51 0 -102 3 -113 5 -11 3 -31 -1 -45 -8z" fill="#B53018"/>
    <path d="M3245 4874 c-168 -23 -441 -106 -592 -181 -150 -75 -212 -125 -277
-226 -63 -98 -134 -167 -210 -204 -56 -27 -77 -69 -46 -88 17 -10 11 -35 -7
-35 -10 0 -36 14 -57 30 -49 37 -116 43 -116 10 0 -27 42 -108 76 -149 40 -48
79 -64 136 -58 56 7 62 -5 28 -60 -18 -31 -23 -33 -74 -33 -53 0 -55 -1 -61
-32 -4 -18 -35 -149 -71 -291 -35 -141 -64 -260 -64 -262 0 -3 -12 -5 -26 -5
-28 0 -214 -132 -214 -152 0 -5 31 -43 69 -84 78 -84 136 -167 159 -227 23
-62 35 -72 156 -131 443 -216 1024 -293 1218 -163 48 33 46 43 -32 140 -80 99
-85 101 -122 47 -29 -42 -102 -100 -125 -100 -16 0 -16 18 2 150 8 58 15 135
15 171 0 66 0 66 -51 73 -60 8 -241 98 -345 172 -175 123 -343 337 -370 472
-11 52 15 40 73 -35 128 -168 332 -322 498 -378 133 -44 392 -64 490 -37 54
14 119 163 275 630 81 244 100 321 100 407 0 112 -22 136 -83 93 -17 -13 -52
-25 -77 -28 -45 -5 -45 -5 -45 -230 0 -225 0 -225 -55 -258 -62 -37 -88 -37
-190 0 -30 11 -77 23 -104 27 -77 12 -117 73 -86 132 16 29 40 24 40 -9 0 -38
17 -52 63 -52 21 0 69 -7 107 -16 37 -8 88 -14 112 -12 50 4 47 -34 33 400 -8
255 -7 268 10 275 11 4 20 2 23 -5 8 -26 50 -15 290 79 29 11 28 26 -7 81 -74
116 -266 179 -466 152z m-229 -285 c208 -78 264 -82 264 -17 0 10 7 18 15 18
37 0 18 -78 -31 -130 -44 -47 -46 -51 -35 -81 23 -66 -3 -85 -32 -24 -20 42
-35 44 -68 9 -62 -67 -175 -124 -244 -124 -63 0 -62 25 2 34 58 8 113 47 113
82 0 31 -43 33 -80 4 -34 -27 -80 -25 -121 5 -72 52 -89 58 -128 46 -83 -25
-137 18 -78 63 26 19 45 21 183 25 122 2 154 6 154 17 0 34 -157 70 -235 54
-114 -23 -114 -23 -121 -6 -9 23 2 32 72 62 95 40 192 30 370 -37z m358 -890
c50 -59 47 -100 -7 -82 -37 12 -323 11 -409 -1 -76 -11 -78 9 -5 46 79 41 171
61 248 55 36 -3 72 -1 80 4 29 18 67 10 93 -22z m-24 -173 c0 -33 -52 -51
-147 -50 -114 2 -145 9 -141 32 3 15 21 18 128 22 69 3 133 7 143 8 9 1 17 -4
17 -12z m-682 -842 c134 -107 153 -126 150 -148 -6 -43 -42 -23 -136 75 -86
91 -106 119 -82 119 6 0 36 -21 68 -46z" fill="#B53018"/>
    <path d="M3623 4524 c-85 -48 -83 -64 7 -64 77 0 90 10 90 69 0 41 -18 40 -97
-5z" fill="#B53018"/>
    <path d="M1889 4382 c-59 -41 -72 -67 -40 -77 22 -7 139 79 140 103 2 24 -46
12 -100 -26z" fill="#B53018"/>
    <path d="M1760 4169 c0 -6 -29 -61 -65 -124 -105 -183 -118 -328 -16 -192 48
64 141 248 141 280 0 13 -5 28 -12 35 -15 15 -48 16 -48 1z" fill="#B53018"/>
    <path d="M1837 3897 c-43 -83 -149 -209 -239 -284 -195 -162 -287 -258 -317
-332 -19 -44 -17 -45 108 -12 130 34 141 41 141 88 0 63 27 102 161 231 141
137 171 178 188 260 24 114 4 136 -42 49z" fill="#B53018"/>
    <path d="M1240 3087 c-136 -46 -152 -60 -98 -91 43 -25 123 -93 217 -183 85
-82 78 -80 131 -53 44 22 50 46 25 90 -34 59 -8 66 59 15 96 -74 45 -180 -107
-221 -85 -23 -112 -19 -138 19 -85 123 -295 307 -350 307 -28 0 -279 -122
-279 -136 0 -6 21 -15 48 -19 124 -18 257 -86 452 -229 117 -86 249 -160 307
-171 134 -26 293 100 293 231 0 97 -30 144 -203 321 -188 192 -166 184 -357
120z" fill="#B53018"/>
    <path d="M3280 2983 c0 -5 20 -48 44 -96 72 -143 118 -312 119 -436 1 -115
-70 -253 -122 -236 -32 10 -27 57 14 129 19 35 35 73 35 84 0 23 -24 30 -36
11 -26 -42 -138 -73 -269 -73 -365 -2 -677 66 -984 215 -166 80 -158 78 -165
39 -18 -93 -25 -79 81 -165 137 -112 209 -164 361 -263 234 -152 284 -202 191
-189 -81 11 -306 156 -505 325 -179 153 -160 142 -189 107 -13 -16 -24 -35
-25 -41 -1 -30 289 -355 449 -504 111 -103 135 -140 89 -140 -67 0 -334 240
-537 483 -84 101 -85 102 -119 89 -15 -6 -39 -13 -54 -16 -19 -4 -28 -13 -28
-25 0 -34 317 -583 452 -784 59 -87 66 -117 30 -117 -55 0 -264 318 -463 705
-59 114 -107 196 -117 199 -98 27 -95 40 -32 -159 23 -71 77 -258 120 -415 44
-157 84 -300 89 -318 34 -116 33 -232 -3 -232 -22 0 -24 7 -73 193 -24 95 -59
231 -77 302 -32 122 -65 244 -153 560 -20 72 -40 135 -44 140 -13 17 -137 80
-144 73 -4 -3 5 -50 19 -103 71 -265 100 -587 99 -1073 -1 -309 1 -392 11
-392 23 0 188 76 489 225 298 147 298 147 388 266 49 65 131 169 182 231 51
62 138 172 194 243 55 72 112 139 125 151 39 35 388 144 462 144 114 0 288
-61 409 -144 50 -34 68 -33 93 7 78 120 335 236 491 221 73 -6 73 -6 124 40
28 25 55 46 60 46 68 0 -211 267 -399 382 -130 79 -137 78 -101 -14 50 -127
106 -336 96 -361 -12 -33 -35 -17 -53 36 -52 161 -163 396 -213 451 -49 53
-141 98 -141 68 0 -5 22 -63 49 -130 61 -148 84 -223 112 -369 25 -130 21
-166 -18 -161 -30 4 -40 27 -72 173 -40 180 -107 351 -186 475 -23 36 -47 75
-54 88 -19 36 -101 80 -101 55z" fill="#B53018"/>
    <path d="M596 2739 c-200 -47 -391 -284 -546 -679 -19 -47 -37 -86 -42 -88 -9
-4 -11 -1002 -2 -1002 3 0 19 9 35 21 100 71 176 93 330 97 224 6 386 -47 546
-179 64 -52 103 -72 103 -53 0 36 -80 251 -251 669 -71 175 -77 195 -58 195
23 0 182 -256 299 -483 72 -139 80 -127 50 85 -39 273 -112 625 -176 846 -5
16 -2 22 9 22 42 0 221 -557 272 -845 22 -130 24 -135 40 -135 42 0 1 709 -55
965 -71 319 -132 425 -295 509 -112 58 -182 73 -259 55z" fill="#B53018"/>
    <path d="M4386 2189 c-24 -19 -36 -59 -17 -59 4 0 38 -23 76 -50 46 -35 73
-49 86 -45 29 9 24 22 -36 90 -30 35 -55 68 -55 74 0 17 -25 13 -54 -10z" fill="#B53018"/>
    <path d="M4005 2091 c-87 -31 -150 -68 -209 -121 -85 -78 -79 -89 43 -83 77 5
111 2 150 -11 27 -9 52 -16 55 -16 2 0 16 26 31 57 14 32 44 81 65 110 50 66
50 69 -6 77 -65 8 -72 8 -129 -13z" fill="#B53018"/>
    <path d="M4209 2008 c-47 -59 -93 -154 -85 -174 7 -19 52 -18 59 1 6 14 146
61 201 67 70 7 54 47 -50 121 -67 48 -76 47 -125 -15z" fill="#B53018"/>
    <path d="M3110 2024 c-14 -3 -52 -13 -85 -24 -33 -10 -88 -26 -123 -35 -113
-29 -127 -39 -223 -175 -49 -69 -138 -190 -199 -270 -60 -80 -131 -174 -157
-209 -91 -123 -140 -168 -236 -220 -115 -62 -530 -271 -538 -271 -4 0 -53 -22
-110 -49 -117 -55 -463 -174 -644 -221 -149 -39 -187 -61 -292 -167 -133 -136
-211 -123 705 -123 l787 1 180 189 c182 192 200 216 171 232 -47 26 -8 58 71
58 115 0 236 53 309 133 49 54 69 109 80 220 7 76 6 75 89 47 77 -26 105 -46
105 -71 0 -19 -4 -20 -32 -15 -73 14 -73 14 -76 -31 -3 -41 -2 -42 34 -49 85
-16 194 32 224 99 45 98 5 176 -112 216 -76 26 -95 37 -155 88 -56 47 -70 79
-30 70 44 -11 272 -108 290 -125 31 -27 77 -114 77 -144 0 -66 83 -5 95 70 9
56 -11 165 -37 197 -27 34 -63 52 -200 96 -132 43 -168 62 -168 91 0 18 4 20
33 13 17 -3 62 -11 100 -15 173 -23 357 -111 357 -170 0 -22 153 -141 178
-138 65 8 46 74 -65 223 -121 164 -215 220 -402 240 -137 15 -161 21 -161 39
0 16 240 42 299 32 21 -3 90 -31 154 -61 249 -119 299 -136 327 -110 35 32 22
48 -120 148 -238 168 -366 216 -500 191z" fill="#B53018"/>
    <path d="M4592 1957 c-35 -36 -40 -52 -18 -60 8 -3 25 -24 38 -46 16 -29 30
-41 46 -41 16 0 22 -6 22 -21 0 -24 27 -23 43 2 8 13 0 25 -38 60 -46 43 -47
45 -42 91 7 59 -5 62 -51 15z" fill="#B53018"/>
    <path d="M4433 1774 c-52 -65 -51 -63 -8 -91 46 -31 58 -29 94 12 37 43 39 71
6 108 -33 37 -43 34 -92 -29z" fill="#B53018"/>
    <path d="M3870 1770 c0 -16 97 -110 113 -110 27 0 52 39 39 60 -7 11 -12 26
-12 34 0 8 -7 17 -16 20 -27 10 -124 7 -124 -4z" fill="#B53018"/>
    <path d="M4091 1646 c-64 -64 -66 -93 -8 -88 28 2 37 -1 37 -13 0 -8 -7 -15
-16 -15 -41 0 -7 -35 41 -42 59 -8 60 -8 74 60 18 85 15 117 -14 136 -39 26
-57 19 -114 -38z" fill="#B53018"/>
    <path d="M3795 1638 c-12 -54 61 -100 89 -56 8 14 4 24 -24 53 -42 43 -56 44
-65 3z" fill="#B53018"/>
    <path d="M4680 1663 c-23 -8 -40 -34 -40 -60 0 -28 21 -30 45 -4 9 11 33 21
54 23 29 2 37 8 39 26 3 20 -1 22 -40 21 -24 0 -50 -3 -58 -6z" fill="#B53018"/>
    <path d="M4320 1570 c0 -43 12 -50 43 -26 23 17 22 43 -2 56 -33 17 -41 11
-41 -30z" fill="#B53018"/>
    <path d="M4807 1536 c-66 -76 -61 -89 24 -66 32 9 37 15 43 48 15 90 -1 94
-67 18z" fill="#B53018"/>
    <path d="M3650 1553 c0 -4 18 -43 39 -88 53 -109 61 -182 23 -218 -54 -51
-124 -66 -201 -41 -23 7 -24 6 -18 -34 8 -61 50 -127 112 -172 69 -51 68 -51
97 18 14 31 42 79 63 107 38 49 38 49 22 125 -12 58 -13 93 -6 155 4 43 5 82
1 85 -84 58 -103 70 -116 70 -9 0 -16 -3 -16 -7z" fill="#B53018"/>
    <path d="M4960 1525 c0 -33 2 -35 35 -35 41 0 46 17 12 48 -33 31 -47 28 -47
-13z" fill="#B53018"/>
    <path d="M3940 1501 c0 -12 9 -26 20 -33 11 -7 34 -32 52 -55 31 -42 58 -56
58 -30 0 20 -93 131 -113 135 -12 2 -17 -3 -17 -17z" fill="#B53018"/>
    <path d="M4408 1464 c-60 -56 -61 -69 -6 -60 49 8 58 13 58 30 0 8 9 16 20 19
26 7 37 36 19 48 -26 16 -44 9 -91 -37z" fill="#B53018"/>
    <path d="M4903 1383 c-31 -12 -12 -33 30 -33 51 0 111 -26 160 -69 20 -18 44
-31 53 -29 27 5 55 69 48 106 -6 32 -6 32 -143 31 -75 0 -142 -3 -148 -6z" fill="#B53018"/>
    <path d="M4786 1338 c-13 -28 -25 -63 -53 -150 -3 -12 0 -18 10 -18 13 0 87
164 87 193 0 21 -32 3 -44 -25z" fill="#B53018"/>
    <path d="M4615 1278 c-21 -47 -13 -71 26 -76 39 -5 67 56 44 92 -25 38 -48 33
-70 -16z" fill="#B53018"/>
    <path d="M4875 1180 c-21 -44 -37 -82 -34 -84 23 -23 190 50 197 86 4 19 -79
78 -108 78 -10 0 -30 -29 -55 -80z" fill="#B53018"/>
    <path d="M3987 1193 c-44 -31 -45 -47 -12 -114 32 -62 46 -68 101 -40 25 11
51 21 59 21 9 0 15 9 15 23 0 12 3 32 6 44 5 17 -4 28 -47 57 -64 43 -73 44
-122 9z" fill="#B53018"/>
    <path d="M4401 1174 c-36 -30 -39 -49 -12 -64 30 -16 39 -12 56 20 34 66 10
90 -44 44z" fill="#B53018"/>
    <path d="M5195 1149 c4 -19 10 -50 14 -69 7 -37 32 -49 60 -31 12 8 10 19 -16
68 -35 68 -71 87 -58 32z" fill="#B53018"/>
    <path d="M3352 1116 c-47 -103 -267 -246 -379 -246 -41 0 -48 -5 -112 -67 -38
-38 -94 -84 -125 -103 -31 -19 -83 -52 -115 -72 -77 -49 -361 -324 -361 -349
0 -18 10 -19 231 -19 l232 0 -7 80 c-9 101 5 105 53 17 54 -99 50 -97 162 -97
54 0 101 4 104 10 3 5 -8 76 -25 158 -60 294 -10 255 112 -88 26 -75 26 -75
90 -75 63 0 63 0 86 205 30 270 30 270 48 270 14 0 15 -29 13 -237 -3 -238 -3
-238 59 -241 73 -3 80 6 123 176 33 129 55 129 44 0 -17 -188 -26 -173 100
-173 110 0 110 0 155 87 64 124 87 122 50 -4 -27 -87 -26 -88 79 -88 109 0
103 -6 134 155 48 248 52 230 -46 185 -230 -108 -393 -33 -405 188 -4 73 -7
82 -24 82 -72 0 -186 119 -219 228 -14 48 -39 56 -57 18z" fill="#B53018"/>
    <path d="M4525 1090 c-20 -39 -19 -60 4 -60 19 0 61 55 61 79 0 25 -49 11 -65
-19z" fill="#B53018"/>
    <path d="M5076 1082 c-3 -5 -42 -24 -86 -42 -102 -41 -110 -66 -18 -56 34 4
70 12 79 17 10 5 30 9 44 9 24 0 26 3 23 37 -3 37 -28 57 -42 35z" fill="#B53018"/>
    <path d="M4255 1051 c-8 -26 35 -115 57 -119 12 -2 20 8 27 35 16 55 14 59
-23 82 -41 26 -53 26 -61 2z" fill="#B53018"/>
    <path d="M3821 1011 c-33 -77 -28 -83 50 -59 45 13 46 16 17 68 -30 52 -41 50
-67 -9z" fill="#B53018"/>
    <path d="M195 980 c-197 -17 -195 -14 -195 -260 0 -121 2 -220 5 -220 3 0 31
20 62 44 172 132 366 176 625 142 58 -8 79 -6 148 14 99 28 102 41 24 105
-136 110 -260 160 -428 170 -50 3 -107 7 -126 9 -19 1 -71 0 -115 -4z" fill="#B53018"/>
    <path d="M4132 958 c-17 -17 -15 -27 11 -49 42 -35 60 -18 35 36 -12 27 -27
32 -46 13z" fill="#B53018"/>
    <path d="M5210 924 c-6 -14 -10 -34 -10 -45 0 -10 -4 -19 -9 -19 -5 0 -19 -16
-32 -36 -26 -42 -91 -86 -160 -109 -53 -18 -58 -28 -33 -64 17 -23 146 -111
164 -111 6 0 10 -9 10 -20 0 -18 -7 -20 -58 -20 -88 0 -151 46 -238 171 -38
56 -148 94 -169 59 -19 -30 54 -175 170 -336 13 -18 0 -28 -29 -20 -68 17
-173 159 -216 289 -10 33 -15 38 -34 32 -47 -15 -61 -11 -64 18 -3 27 -3 27
-80 25 -42 -2 -96 1 -119 6 -46 9 -59 -5 -27 -28 12 -9 18 -40 24 -117 10
-125 48 -250 92 -303 29 -35 31 -36 99 -36 83 0 84 5 28 80 -60 81 -102 192
-114 305 -7 66 -7 66 25 63 37 -3 34 1 65 -128 28 -115 95 -234 174 -304 34
-31 248 -16 274 19 16 21 24 24 60 19 49 -7 96 9 145 51 19 16 59 40 90 55 79
38 123 87 129 143 6 53 -51 175 -118 251 -47 53 -49 66 -9 66 28 0 30 3 30 35
0 45 -44 52 -60 9z" fill="#B53018"/>
    <path d="M4404 895 c-45 -59 -7 -85 71 -48 41 20 44 35 10 53 -14 7 -25 17
-25 22 0 20 -31 5 -56 -27z" fill="#B53018"/>
    <path d="M4990 894 c-36 -7 -80 -13 -97 -14 -36 0 -40 -10 -23 -54 21 -57 210
6 210 70 0 16 -3 16 -90 -2z" fill="#B53018"/>
    <path d="M4713 884 c-8 -22 9 -48 36 -52 23 -4 28 16 11 49 -13 23 -38 25 -47
3z" fill="#B53018"/>
    <path d="M3959 874 c-14 -7 -64 -22 -110 -31 -84 -18 -84 -18 -84 -77 1 -51 4
-61 28 -82 55 -47 186 -27 291 45 59 41 57 52 -19 112 -66 52 -68 53 -106 33z" fill="#B53018"/>
    <path d="M360 557 c-104 -31 -170 -71 -272 -163 -124 -113 -123 -134 5 -134
94 0 94 0 131 55 41 59 146 162 214 210 79 57 48 69 -78 32z" fill="#B53018"/>
  </g>
    <g transform="translate(0.000000,697.000000) scale(0.100000,-0.100000)">
    
  </g>
    <g transform="translate(0.000000,697.000000) scale(0.100000,-0.100000)">
    <path d="M0 4544 c0 -1325 4 -2184 9 -2182 5 2 37 45 71 97 144 220 245 326
425 444 83 54 282 156 365 187 33 12 54 21 122 48 20 8 30 22 38 54 33 122
150 259 356 413 111 84 111 84 116 173 4 97 19 133 138 347 51 92 59 122 38
143 -31 31 -52 14 -82 -64 -63 -164 -200 -367 -359 -531 -52 -54 -98 -93 -109
-93 -32 0 -298 199 -298 223 0 5 29 40 64 78 273 295 406 704 346 1064 -21
127 -24 474 -6 620 53 429 319 879 654 1103 98 66 152 62 -918 62 l-970 0 0
-2186z" fill="#E1BD85"/>
    <path d="M3660 6718 c0 -7 16 -26 36 -41 50 -40 43 -60 -46 -131 -146 -116
-320 -313 -320 -361 0 -8 5 -24 12 -34 9 -15 4 -34 -25 -103 -21 -47 -37 -90
-37 -95 0 -6 42 -42 93 -79 275 -204 424 -448 521 -853 37 -152 38 -156 98
-235 33 -44 72 -104 86 -132 25 -52 25 -52 -14 -91 -21 -22 -57 -66 -79 -98
-53 -77 -131 -163 -165 -180 -25 -13 -27 -20 -33 -92 -3 -52 -16 -106 -37
-163 -43 -115 -66 -196 -74 -261 -22 -183 -30 -231 -48 -292 -19 -69 -19 -69
2 -130 30 -86 38 -221 16 -286 -25 -76 -25 -75 92 -134 114 -58 301 -166 392
-226 67 -44 243 -212 300 -286 41 -54 41 -54 148 -48 143 7 197 -12 276 -98
31 -33 59 -74 64 -92 12 -49 62 -53 62 -5 0 95 -54 193 -154 283 -90 81 -110
118 -101 185 8 56 1 63 -74 75 -181 30 -344 133 -397 251 -28 63 -26 226 4
283 107 200 311 250 675 165 61 -14 149 -34 194 -45 254 -59 366 -176 367
-384 2 -174 -75 -276 -248 -331 -98 -31 -162 -30 -305 2 -62 14 -120 23 -127
20 -39 -15 -2 -79 104 -184 108 -106 181 -253 183 -366 0 -38 4 -44 66 -91 36
-27 76 -65 90 -83 32 -41 42 -40 108 8 63 47 66 56 26 94 -122 117 -115 363
14 492 98 98 209 130 361 105 239 -40 356 -82 419 -152 159 -176 107 -431
-116 -567 -113 -69 -305 -60 -521 24 -47 18 -47 18 -97 -36 -58 -62 -61 -70
-24 -70 78 0 210 -110 264 -219 29 -59 37 -70 55 -66 12 3 51 9 87 14 83 12
78 8 116 85 39 79 128 166 192 186 24 7 87 14 139 15 52 1 136 7 186 14 110
16 133 8 219 -74 145 -140 149 -390 10 -530 -104 -104 -440 -143 -592 -69 -96
47 -193 188 -193 283 0 11 -11 12 -46 7 -26 -3 -66 -6 -90 -6 -43 0 -44 -1
-44 -33 0 -152 -89 -314 -222 -403 -40 -27 -74 -52 -76 -57 -2 -4 -14 -7 -27
-7 -62 0 -64 -148 -3 -237 86 -124 88 -207 9 -340 -93 -154 -181 -138 752
-141 l807 -2 0 3230 0 3230 -1655 0 c-1317 0 -1655 -3 -1655 -12z m2583 -5668
c265 -47 299 -60 380 -150 114 -127 105 -343 -20 -468 -84 -83 -156 -107 -313
-105 -184 2 -416 40 -504 81 -139 65 -222 194 -214 334 5 80 5 80 -55 109 -76
36 -107 65 -107 101 0 40 42 38 116 -7 72 -44 76 -44 107 4 41 61 137 118 227
135 52 10 221 -5 383 -34z" fill="#E1BD85"/>
    <path d="M5826 980 c-150 -59 -213 -259 -124 -390 60 -88 157 -127 401 -160
263 -36 337 -25 432 61 139 128 99 350 -77 423 -29 13 -354 70 -418 75 -161
11 -166 11 -214 -9z m204 -120 c0 -35 3 -40 23 -40 49 0 57 -41 34 -155 -10
-49 -17 -60 -32 -60 -22 0 -23 6 -10 98 7 53 6 57 -13 57 -16 0 -21 -9 -27
-47 -11 -81 -16 -93 -36 -93 -11 0 -22 6 -25 14 -4 11 -17 13 -55 9 -67 -8
-89 12 -89 79 0 99 47 155 106 127 37 -18 49 -79 15 -79 -12 0 -21 7 -21 15 0
21 -38 19 -43 -2 -20 -73 -19 -93 8 -93 14 0 25 5 25 10 0 6 15 10 34 10 34 0
34 0 45 68 20 118 21 122 42 122 16 0 19 -7 19 -40z m203 -69 c35 -14 40 -38
26 -131 -11 -80 -11 -80 -60 -80 -106 0 -121 108 -18 129 38 8 54 41 20 41
-11 0 -23 -4 -26 -10 -12 -19 -35 -10 -35 13 0 43 38 59 93 38z m112 -31 c12
-19 -17 -191 -32 -197 -30 -12 -36 13 -23 104 7 48 14 91 17 96 6 10 31 9 38
-3z m160 -25 c0 -14 -8 -21 -30 -25 -28 -5 -31 -9 -41 -71 -12 -75 -19 -89
-41 -89 -18 0 -12 154 8 191 15 29 104 24 104 -6z" fill="#E1BD85"/>
    <path d="M4488 3336 c-159 -66 -211 -202 -135 -353 51 -99 130 -144 322 -178
50 -9 153 -30 230 -47 166 -36 239 -39 319 -13 157 50 219 167 173 326 -35
118 -104 163 -325 214 -81 18 -174 41 -207 50 -105 29 -308 30 -377 1z m67
-96 c-6 -37 -5 -40 17 -40 49 0 58 -39 35 -150 -9 -41 -17 -56 -31 -58 -19 -4
-19 66 0 136 5 18 2 22 -14 22 -21 0 -28 -16 -47 -107 -7 -34 -31 -45 -41 -19
-5 14 15 133 37 219 15 57 54 54 44 -3z m151 -97 c-20 -89 -20 -125 0 -121 15
2 22 19 34 71 11 52 18 67 32 67 23 0 23 -52 -1 -135 -16 -60 -16 -60 -61 -57
-72 6 -83 29 -59 132 14 66 16 70 40 70 18 0 20 -4 15 -27z m229 -14 c5 -5 23
-9 41 -9 45 0 57 -19 49 -80 -7 -49 10 -72 30 -40 3 6 19 10 36 10 19 0 29 5
29 15 0 10 -10 15 -30 15 -23 0 -30 4 -30 20 0 31 41 46 76 28 36 -16 40 -40
23 -135 -13 -74 -13 -74 -59 -67 -25 4 -53 13 -62 21 -12 10 -26 13 -49 8 -32
-7 -32 -7 -26 46 4 30 10 66 13 82 5 20 3 27 -9 27 -17 0 -18 -4 -37 -88 -9
-40 -16 -52 -29 -50 -18 4 -20 33 -7 111 6 38 5 47 -8 47 -15 0 -16 -3 -37
-87 -12 -50 -49 -79 -49 -39 0 23 29 166 35 176 7 11 85 2 100 -11z m384 -93
c28 -22 -8 -188 -43 -194 -20 -4 -20 -13 0 118 6 36 4 40 -14 40 -16 0 -22
-11 -32 -66 -12 -64 -30 -88 -51 -67 -10 10 11 124 31 171 10 24 77 23 109 -2z" fill="#E1BD85"/>
    <path d="M5592 2555 c-60 -15 -130 -67 -170 -128 -38 -58 -39 -199 -2 -267 52
-93 230 -166 432 -177 133 -7 176 6 241 76 168 180 110 379 -133 455 -154 49
-279 63 -368 41z m66 -155 c30 -28 30 -80 1 -80 -12 0 -23 8 -26 20 -6 21 -37
27 -48 10 -32 -51 -9 -136 25 -95 31 37 63 2 36 -40 -38 -58 -126 -16 -126 59
1 109 80 180 138 126z m192 -30 c0 -11 7 -23 15 -26 23 -9 18 -33 -9 -44 -32
-12 -46 -92 -21 -121 35 -37 0 -63 -44 -33 -25 18 -25 13 -5 137 5 32 4 37
-14 37 -16 0 -22 -11 -33 -72 -12 -63 -18 -73 -37 -76 -27 -4 -27 6 -4 107 17
72 47 115 59 84 7 -19 27 -16 48 7 23 26 45 26 45 0z m118 -88 c4 -51 25 -56
38 -10 10 35 40 50 50 25 5 -15 -60 -177 -91 -223 -13 -20 -23 -25 -48 -22
-36 3 -53 38 -20 38 36 0 41 17 35 132 -5 104 -4 110 14 106 14 -2 20 -13 22
-46z" fill="#E1BD85"/>
    <path d="M4575 2265 c-5 -2 -22 -6 -37 -9 -35 -8 -36 -28 -4 -46 14 -7 37 -32
52 -56 30 -48 41 -51 83 -30 15 8 51 18 79 22 58 7 61 13 32 54 -36 51 -145
85 -205 65z" fill="#E1BD85"/>
    <path d="M4738 2033 c-44 -18 -46 -24 -17 -64 18 -26 92 -60 104 -47 3 2 8 32
11 66 7 62 7 62 -27 61 -19 0 -51 -7 -71 -16z" fill="#E1BD85"/>
    <path d="M4928 1996 c-1 -20 -2 -44 -2 -53 -2 -31 30 -26 43 6 18 42 11 75
-16 79 -20 3 -23 -1 -25 -32z" fill="#E1BD85"/>
    <path d="M5076 1908 c-50 -78 -43 -103 26 -93 91 13 105 35 55 83 -39 38 -61
40 -81 10z" fill="#E1BD85"/>
    <path d="M6450 1789 c-30 -5 -110 -13 -178 -18 -115 -8 -125 -10 -160 -38
-137 -111 -139 -334 -3 -423 24 -17 63 -35 85 -41 48 -13 264 -5 280 11 5 5
25 10 43 10 170 0 256 261 138 416 -23 31 -122 95 -141 93 -5 -1 -34 -5 -64
-10z m50 -139 c0 -11 7 -20 15 -20 17 0 20 -36 4 -46 -21 -12 -5 -105 21 -124
29 -22 21 -50 -14 -50 -36 0 -61 42 -61 103 0 35 -5 52 -17 61 -22 16 -23 42
-3 50 8 3 15 15 15 26 0 13 7 20 20 20 13 0 20 -7 20 -20z m-96 -45 c15 -11
19 -32 24 -103 5 -89 5 -89 -48 -96 -43 -6 -56 -4 -72 11 -13 12 -23 14 -32 8
-56 -42 -68 -47 -91 -41 -82 21 -71 226 12 226 26 0 63 -32 63 -55 0 -20 -28
-31 -43 -16 -25 25 -37 12 -37 -44 0 -47 3 -55 19 -55 10 0 21 7 25 15 3 8 18
15 33 15 20 0 34 9 48 30 12 18 29 30 43 30 15 0 22 6 22 20 0 11 -7 20 -15
20 -8 0 -15 -7 -15 -15 0 -9 -9 -15 -25 -15 -21 0 -25 5 -25 30 0 46 70 68
114 35z" fill="#E1BD85"/>
    <path d="M5376 1646 c1 -136 4 -146 41 -146 19 0 141 54 172 76 25 19 -79 146
-144 175 -71 33 -70 34 -69 -105z" fill="#E1BD85"/>
    <path d="M5218 1736 c-26 -20 -22 -38 16 -68 56 -45 67 -34 45 45 -11 40 -30
47 -61 23z" fill="#E1BD85"/>
    <path d="M5150 1590 c0 -11 16 -38 36 -60 37 -40 74 -53 74 -25 0 8 -4 15 -10
15 -5 0 -10 6 -10 13 0 16 -62 77 -78 77 -7 0 -12 -9 -12 -20z" fill="#E1BD85"/>
    <path d="M5540 1450 c-25 -16 -58 -32 -74 -36 -28 -6 -28 -8 -22 -53 4 -25 9
-81 13 -123 7 -89 14 -94 60 -39 65 78 103 169 103 249 0 41 -19 41 -80 2z" fill="#E1BD85"/>
    <path d="M5275 1303 c-6 -65 -5 -71 27 -125 52 -90 72 -76 58 40 -15 120 -29
152 -63 152 -11 0 -17 -18 -22 -67z" fill="#E1BD85"/>
  </g>
  </g>
</svg>
